<svg id="Capa_1" data-name="Capa 1" xmlns="http://www.w3.org/2000/svg" xmlns:xlink="http://www.w3.org/1999/xlink" viewBox="0 0 2099.2 729.6"><defs><linearGradient id="Degradado_sin_nombre_39" x1="-142.62" y1="828.71" x2="2124.22" y2="822.51" gradientUnits="userSpaceOnUse"><stop offset="0" stop-color="#fff9de"/><stop offset="1" stop-color="#464ca3"/></linearGradient><linearGradient id="Degradado_sin_nombre_39-2" x1="-142.54" y1="856.99" x2="2124.3" y2="850.79" xlink:href="#Degradado_sin_nombre_39"/><linearGradient id="Degradado_sin_nombre_39-3" x1="-142.55" y1="854.04" x2="2124.29" y2="847.85" xlink:href="#Degradado_sin_nombre_39"/><linearGradient id="Degradado_sin_nombre_39-4" x1="-142.5" y1="872.81" x2="2124.34" y2="866.62" xlink:href="#Degradado_sin_nombre_39"/><linearGradient id="Degradado_sin_nombre_39-5" x1="-142.76" y1="778.23" x2="2124.08" y2="772.03" xlink:href="#Degradado_sin_nombre_39"/><linearGradient id="Degradado_sin_nombre_39-6" x1="-142.54" y1="856.86" x2="2124.3" y2="850.66" xlink:href="#Degradado_sin_nombre_39"/><linearGradient id="Degradado_sin_nombre_39-7" x1="-142.71" y1="795.71" x2="2124.13" y2="789.51" xlink:href="#Degradado_sin_nombre_39"/><linearGradient id="Degradado_sin_nombre_39-8" x1="-142.54" y1="857.3" x2="2124.3" y2="851.11" xlink:href="#Degradado_sin_nombre_39"/></defs><path d="M1334.2,468.5a9.2,9.2,0,0,1-1.9,6.9,8.4,8.4,0,0,1-6.4,3.7,142.4,142.4,0,0,0-28.9,5,243.9,243.9,0,0,0-28,10.6c-2.1,1.2-4.7,2.6-7.8,4.1q-.5.9-.9.9v.5h-.5q-31.2,28.5-59.6,67.9a638.1,638.1,0,0,0-48.2,78,851.1,851.1,0,0,0-67.4,170.7c-5.6,19.9-10.6,40.2-15.2,61a324.1,324.1,0,0,0,51.4-4.1,279.8,279.8,0,0,0,40.4-10.1,97.5,97.5,0,0,0,18.3-8.3c7.1-3.6,12.1-7.6,15.2-11.9,1.8-2.4,3.9-2.7,6.4-.9s2.8,4,.9,6.4c-3.7,5.2-9.5,10.3-17.4,15.2a220.8,220.8,0,0,1-20.2,9.1,273.1,273.1,0,0,1-41.8,11,332.5,332.5,0,0,1-55.5,5.6l-2.7,16.5a741.1,741.1,0,0,0-11,91.3,700.3,700.3,0,0,0,.4,91.8c.9,9.7,2,19.7,3.2,29.8a6.9,6.9,0,0,1,.3-1.6,6.5,6.5,0,0,1,.6-2.1,7.4,7.4,0,0,1,3.9-5.7,9.2,9.2,0,0,1,7.2-1.2,8.1,8.1,0,0,1,4.1,2.3,10.3,10.3,0,0,1,2.5,4.1,9,9,0,0,1,.2,4.6v.5l-.4.5c-1.6,5.8-2.8,10.7-3.7,14.6s-1.7,9.7-2.3,15.2a136,136,0,0,0-.9,15.6,126.5,126.5,0,0,0,0,15.1v.5a7.8,7.8,0,0,1-2.3,5.5,9.6,9.6,0,0,1-5.5,2.7c-4.3,0-6.9-2.1-7.8-6.4a608.7,608.7,0,0,1-12.4-93.1,726,726,0,0,1,.5-93.2,955.6,955.6,0,0,1,13.3-107.3c-6.5,0-12.3-.2-17.5-.5-7.9-.6-15.1-1.4-21.5-2.3l-10.6-1.8-10.5-2.3a332.1,332.1,0,0,1-41.3-12.4,4.9,4.9,0,0,1-2.3-.7,4.9,4.9,0,0,0-1.9-.7c-12.2,19-23.1,35.2-32.5,48.6q-20.2,29.4-36.3,51-22,28.8-39.4,49.1-25.3,28.4-46.9,43.1c-19.2,13.5-38.7,22.8-58.2,28a58.2,58.2,0,0,1-7.8,1.8l-8.3,1.9-8.2.9-4.2.4H694.5l-8.2-.9-4.1-.4-4.2-1a9.6,9.6,0,0,1-2.5-.4,21.1,21.1,0,0,0-3-.7l-2.7-.7a95,95,0,0,1-30.8-15.1,68.8,68.8,0,0,1-22.5-27.1,9.1,9.1,0,0,1,0-6.9,9.8,9.8,0,0,1,4.9-5.3,8.5,8.5,0,0,1,6.8-.2,10.4,10.4,0,0,1,5.3,4.6v.5c3.4,7.6,8.9,14.5,16.5,20.6a74.2,74.2,0,0,0,24.4,12.8,18,18,0,0,0,3.9,1,7.3,7.3,0,0,1,2.9.9l3.7.9h3.7c.3.3,1.3.5,3,.7l3.9.2,7.3.5h3.7l3.6-.5,7.4-.4,6.9-1.4c4.2-.9,6.7-1.4,7.3-1.4q26.1-6.9,53.7-25.2,20.1-13.8,45-40.4,18.8-21.1,39-47.7c10.7-14.4,22.7-31.2,36.2-50.5q13.4-19.2,31.2-45.9c-7.9-3.3-15.9-6.9-23.9-10.5-11.9-5.5-24.6-11.8-38-18.8q-12.9-6.9-74.4-40.9c-29-15.9-54-29-74.8-39.4q-37.1-18.9-76.1-35.8c-12.6-5.5-25.6-10.9-39-16.1s-27.7-10.7-39-14.7c-27.6-9.8-54.3-18.3-80.3-25.7a547.5,547.5,0,0,0-81.7-16.5q-86.7-11-166.1,5.5a395.9,395.9,0,0,0-79.4,24.8,301.5,301.5,0,0,0-36.7,18.8,273.5,273.5,0,0,0-33.9,23.9c-23,18.3-40.9,39-53.7,61.9a197.5,197.5,0,0,0-25.3,78v.5c-.3,3-2,4.4-5,4.1a5.5,5.5,0,0,1-4.1-2.8A25.7,25.7,0,0,1,3.1,854a35.1,35.1,0,0,1-1.4-6.5,97.5,97.5,0,0,1-.9-13.7,62,62,0,0,1,1.4-13.3,4.2,4.2,0,0,1,.2-1.4c.1-.6.3-1.2.4-1.6s.3-1,.5-1.6a5.8,5.8,0,0,0,.2-1.9l1.9-6.4q1.3-4.1,5.7-3c2.9.8,3.9,2.7,3,5.8l-1.4,5.9a4.4,4.4,0,0,0-.7,1.9c-.1.9-.3,1.7-.4,2.3a5.7,5.7,0,0,0-.3,1.8v.5A185.6,185.6,0,0,1,30.1,776q20.3-36.7,55.6-66.6a271.4,271.4,0,0,1,34.8-25.2c12.3-7.3,25-14.1,38.1-20.2a411.4,411.4,0,0,1,82.1-26.6q81.8-17.9,170.7-7.8a533.5,533.5,0,0,1,84.5,16.1c29,7.6,56.2,15.9,81.6,24.7q74.4,25.8,156.5,68.9,31.2,16.1,74.3,40.8l73.4,41.7c13.2,7.1,25.7,13.5,37.7,19.3,8.5,4,16.9,7.8,25.2,11.5,4-5.8,9.6-14.3,17-25.5s11.8-17.8,13.3-19.9c14.4-21.8,26.1-39.4,35.3-53s20.4-29.9,33.5-48.9,26-36.7,38.6-53.2,25-32.4,37.6-47.7q21.1-25.8,41.7-46.8a439.5,439.5,0,0,1,46.8-42.7,240.3,240.3,0,0,1,25.7-18.8c3.4-2.5,7.1-4.9,11-7.4q.5,0,1.2-.9l1.1-1.4a8.5,8.5,0,0,1,6-2.3c3.1-1.8,5.8-3.3,8.3-4.5a225.2,225.2,0,0,1,30.3-12,206.1,206.1,0,0,1,32.1-7.3l2.7.2a15.2,15.2,0,0,1,2.8.9,7.1,7.1,0,0,1,2.3,1.9,15.3,15.3,0,0,1,1.6,2.5A6.8,6.8,0,0,1,1334.2,468.5ZM1138.7,639.2q28-54.2,58.7-95.4c-8.2,7.3-16.6,15.3-25.2,23.8q-20.7,20.7-41.8,45.5-32.6,37.6-75.2,98.2-28,39.5-70.2,102.7l-8.7,13.8c-3.7,5.8-7.2,11.2-10.6,16.1l-9.2,13.3a1.3,1.3,0,0,0,1,.4A327.1,327.1,0,0,0,996.9,870l10.1,2.3,6,1.2c2.4.4,3.9.7,4.6.7a163,163,0,0,0,20.2,2.7l18.8.9c4.2-22,9.3-43.6,15.1-64.7q12-42.6,28.9-88.5A891.2,891.2,0,0,1,1138.7,639.2Z" transform="translate(-0.8 -460.3)" style="fill:url(#Degradado_sin_nombre_39)"/><path d="M1184.1,858.6a406.9,406.9,0,0,0,45.4-53.7,400.9,400.9,0,0,0,36.3-60.6c1.2-2.4,2.4-5,3.7-7.8l1.8-4.1,1.4-4.2a95.9,95.9,0,0,0,5-16.5q1.8-10.5.9-16.5a14.6,14.6,0,0,0-.9-3.2v-.5l.5.5.9.5h-.5a12.2,12.2,0,0,0-2.3,1.8,68.8,68.8,0,0,0-10.1,12.4,116.9,116.9,0,0,0-9.1,14.2c-5.2,8.9-10.6,19.3-16.1,31.2-8.9,18.7-18,40.4-27.5,65.2s-17.3,47.1-23.4,66c-5.2,16.2-11.6,38.9-19.3,67.9-3,12.3-5.8,23.7-8.2,34.5-1.3,5.2-2.5,10.8-3.7,16.9-.6,3.1-1.1,6-1.4,8.7a48.6,48.6,0,0,0-.9,7.8l-10.1-4.5a57,57,0,0,0,6.4-6.9,44.2,44.2,0,0,0,5.5-8.3,191.5,191.5,0,0,0,10.6-18.3,249,249,0,0,0,16.5-38.6c5.5-15.9,8.9-29.5,10.1-40.8.9-8.6.7-15.3-.5-20.2-1.2-3.4-2.9-5.7-5-6.9s-4.6-1.2-7.4,0l1.4-11.9c6.4,4.3,15.5,7.5,27.1,9.6a112.5,112.5,0,0,0,28.4,1.9,73,73,0,0,0,27.1-8.3,96.2,96.2,0,0,0,23-16.5c1.5-1.6,2.9-1.6,4.3,0a3.1,3.1,0,0,1,.2,4.6h-.4a127,127,0,0,1-12,9.1,76.3,76.3,0,0,1-12.8,7.4,89.3,89.3,0,0,1-28.9,8.2c-8.9,1.3-18.8,1.1-29.8-.4l-9-1.6-11-1.9a42.4,42.4,0,0,0-9.4-.2,5.9,5.9,0,0,1-4.1-1.6,5.2,5.2,0,0,1-1.9-3.9q-.5-4.5,4.2-6l3.2-.9a44.4,44.4,0,0,1,6.9,2.3,19.1,19.1,0,0,1,5.9,4.1,23.8,23.8,0,0,1,6,11.1c1.5,6.1,1.8,13.6.9,22.4-1.5,12.6-4.7,26.8-9.6,42.7-4.3,13.2-9.4,26.6-15.2,40.4a205.2,205.2,0,0,1-9.6,19.7,93.2,93.2,0,0,1-5.5,9.7,58.4,58.4,0,0,1-7.8,9.1c-3.1,2.8-6,2.6-8.7-.4a5.1,5.1,0,0,1-1.4-3.7,78.3,78.3,0,0,1,.9-10.1c.3-2.7.8-5.8,1.4-9.2s1.7-10.1,3.2-17.4c2.5-11,5.1-22.6,7.8-34.9,5.8-23.8,12.2-46.8,19.3-68.8q25.7-77.1,52.3-132.6c5.8-12.2,11.5-22.9,17-32.1a121.4,121.4,0,0,1,10.1-15.2c4.8-6.7,9.1-11.6,12.8-14.6a14.6,14.6,0,0,1,5-2.8,9.6,9.6,0,0,1,4.2-.9,7.2,7.2,0,0,1,5,.9,9.4,9.4,0,0,1,3.7,3.7,10,10,0,0,1,1.4,3.6,30.2,30.2,0,0,1,.4,5.5c-.3,4.9-1.7,11.2-4.1,18.9a236.9,236.9,0,0,1-13.8,33c-8.2,17.1-20.6,37.5-37.1,61q-7.8,11.5-21.6,28.5c-7.3,9.1-15.1,18.2-23.4,27a2.9,2.9,0,0,1-4.4-.2A2.9,2.9,0,0,1,1184.1,858.6Z" transform="translate(-0.8 -460.3)" style="fill:url(#Degradado_sin_nombre_39-2)"/><path d="M1419.7,850.1q2.5,1.5,1.2,3.9v.4a213.9,213.9,0,0,1-19.8,25.3,221.3,221.3,0,0,1-22.4,22A229.5,229.5,0,0,1,1353,921a141.5,141.5,0,0,1-29.4,13.3,52.2,52.2,0,0,1-17,2.3,19.3,19.3,0,0,1-9.2-2.3,13.9,13.9,0,0,1-4.5-3.2l-1.9-1.9-.7-1.6a1.6,1.6,0,0,0-.7-1.1,20.5,20.5,0,0,1-.9-10.6,28.7,28.7,0,0,1,2.3-8.7,102.9,102.9,0,0,1,7.4-15.2l8.2-13.5c3.7-6,6.4-10.3,8.3-13.1a62.6,62.6,0,0,1,3.2-6.4,55,55,0,0,0,1.8-5.5h-3.6a14.7,14.7,0,0,0-3.3.5,26.1,26.1,0,0,1-4.1.4l-8.2.9a77.8,77.8,0,0,1-17.5-1.8,31.4,31.4,0,0,1-9.2-3.2,20.2,20.2,0,0,1-8.2-6.9,17.1,17.1,0,0,1-3.7-11.9,36.6,36.6,0,0,1,1.9-9.2q4.5-14.2,17.4-29.4a147.7,147.7,0,0,1,24.8-21.5c2.7-1.9,5.2-3.4,7.3-4.6l4.6-1.9a41.3,41.3,0,0,1,5-1.3,24,24,0,0,1,10.6,1.3,18,18,0,0,1,8.7,7.9,18.7,18.7,0,0,1,1.9,10,37.6,37.6,0,0,1-2.3,9.2,93.1,93.1,0,0,1-9.2,14.2q-4.2,5.1-31.2,35.4a41.3,41.3,0,0,1,5.5-.5,20.4,20.4,0,0,1,3.7-.7,35,35,0,0,0,4.5-.7h5.1a16.3,16.3,0,0,1,6,1.9,10.9,10.9,0,0,1,6.4,6.4,19.2,19.2,0,0,1,.4,7.3,56.9,56.9,0,0,1-3.2,9.2,47.8,47.8,0,0,1-4.1,7.4c-1.8,3.3-4.7,7.9-8.5,13.7l-8.5,12.9c-3,5.2-5.3,9.5-6.9,12.8-2.1,5.2-3,9-2.7,11.5s3.3,4.9,8.2,5.5a32,32,0,0,0,14.3-.5c8.2-1.8,17.7-5.8,28.4-11.9a169.8,169.8,0,0,0,25-17.9,243.3,243.3,0,0,0,22.3-22,215.1,215.1,0,0,0,17.9-25.2C1416.6,849.2,1418,849,1419.7,850.1Zm-142.9-14.9c1.5,2.1,4.7,3.8,9.6,5a29.9,29.9,0,0,0,7.8.9q7.8-7.8,13.8-14.7a253.8,253.8,0,0,0,20.2-23.8,34.4,34.4,0,0,0,6.4-13.3c1.2-4.9.8-8.6-1.4-11s-4.7-2.9-8.7-2.3a7.4,7.4,0,0,0-2.3.4,11.6,11.6,0,0,1-2.7,1.4l-6,4.1a120.2,120.2,0,0,0-22,19.8c-7.4,8.8-12.1,17.1-14.2,24.7a26.6,26.6,0,0,0-1.4,6A5.4,5.4,0,0,0,1276.8,835.2Z" transform="translate(-0.8 -460.3)" style="fill:url(#Degradado_sin_nombre_39-3)"/><path d="M1554.9,849.4c1.5,1.2,1.6,2.6.4,4.1a84.5,84.5,0,0,1-12.4,11.9,53.5,53.5,0,0,1-15.6,8.3,41,41,0,0,1-33.9-1.8c-5.8-2.5-14.9-9.2-27.1-20.2l-.5-.5-.4-.4.9,6.4a98.1,98.1,0,0,1,0,13.3,59.5,59.5,0,0,1-7.3,24.8,38.1,38.1,0,0,1-8.8,10.5,28.5,28.5,0,0,1-13.3,6.9,21.1,21.1,0,0,1-7.8-.5,19.2,19.2,0,0,1-7.8-2.7,30.4,30.4,0,0,1-9.6-11.5c-4-7.6-5.4-16.8-4.1-27.5a76,76,0,0,1,7.3-25.3,84,84,0,0,1,7.3-11.4,28.8,28.8,0,0,1,5.6-5.1,21.1,21.1,0,0,1,8.2-4.1l.9.5q3.3-2,6,0l2.8,1.3a4.4,4.4,0,0,0,1.6,1,5.7,5.7,0,0,1,1.6.9,41.3,41.3,0,0,1,5.9,4.1,37.1,37.1,0,0,1,4.6,5.5,95.6,95.6,0,0,1,10.6,9.6c10.7,10.4,19.1,17.2,25.2,20.2a37,37,0,0,0,30.7,1.4,39.4,39.4,0,0,0,13.4-7.8,65.4,65.4,0,0,0,11.4-11.5C1551.9,848.3,1553.3,848.2,1554.9,849.4Zm-96.4,20.2c.9-8.9-.2-16.1-3.2-21.6a21.1,21.1,0,0,0-6.9-7.3,10.1,10.1,0,0,0-4.1-2.3,10.2,10.2,0,0,1-2.8-1h-1.4a16.2,16.2,0,0,0-.9,3.7,31.5,31.5,0,0,1-5.5,8.7,42.2,42.2,0,0,1-7.3,7.4,7.4,7.4,0,0,0-2.8,1.8,58.7,58.7,0,0,0-3.6,13.3c-1,8-.2,14.7,2.2,20.2s7.5,10,13.4,9.6a19.7,19.7,0,0,0,8.7-3.6,27.5,27.5,0,0,0,7.3-7.8A44,44,0,0,0,1458.5,869.6ZM1432.3,842a56.8,56.8,0,0,0-5.5,8.3,16.7,16.7,0,0,0,3.3-3.2,48.6,48.6,0,0,0,3.2-6h-.5Zm0-9.1a4.9,4.9,0,0,0-1.3-1Z" transform="translate(-0.8 -460.3)" style="fill:url(#Degradado_sin_nombre_39-4)"/><path d="M1752.6,614c2.2,4.9,3.2,11,3.2,18.3a72,72,0,0,1-2.3,17.5c-1.2,4.6-2.9,9.9-5,16a239.9,239.9,0,0,1-12.9,30.3q-11.8,23.4-33,56.5c-12.2,18.6-24.8,36.5-37.6,53.6-7.1,9.5-13.8,18.1-20.2,25.7-1.8,2.2-4.6,5.2-8.3,9.2-2.4,13.5-4.3,25.7-5.5,36.7-.3,5.5-.4,10.7-.4,15.6a72.4,72.4,0,0,0,1.3,14.7q3.3,16.9,13.8,21.6a44.6,44.6,0,0,0,6.4,1.8,47.4,47.4,0,0,0,6.5.5,41.1,41.1,0,0,0,13.7-4.2c8-3.9,15.8-10.8,23.4-20.6a195.4,195.4,0,0,0,17-27.1,243,243,0,0,0,12.8-29.3c1-2.2,2.3-2.9,4.2-2.1a2.9,2.9,0,0,1,1.8,3.9v.4q-16.9,38.1-31.2,57.9c-8,10.7-15.9,18.6-23.9,23.8a38.1,38.1,0,0,1-16,6.9,35.3,35.3,0,0,1-19.3-.9c-5.8-2.2-10.7-6.4-14.7-12.9a57,57,0,0,1-6.8-16.9,72.8,72.8,0,0,1-1.9-17.5c0-5.2.2-10.8.5-17s1.2-10.8,1.8-16.9c-6.7,7.3-13.5,14-20.2,20.2-10.1,8.8-18.9,15.6-26.6,20.1l-3.7,2.3-1.8,1a5.6,5.6,0,0,1-1.4.9,3.9,3.9,0,0,0-1.8.4,15.2,15.2,0,0,1-6.7.5,13.7,13.7,0,0,1-6.6-2.8,16,16,0,0,1-6.4-10.5,45.3,45.3,0,0,1-1-4.6v-4.6q0-15.6,7.8-33.9a127.7,127.7,0,0,1,17.5-29.4c8.2-10.4,16.8-18.1,25.7-22.9a45.9,45.9,0,0,1,8.2-3.7,29.5,29.5,0,0,1,4.6-.9,54.4,54.4,0,0,1,5.5-.5,13.8,13.8,0,0,1,10.1,5.5,35.8,35.8,0,0,1,5.1,8.3,32.7,32.7,0,0,1,1.3,6.4,737.3,737.3,0,0,1,44.1-123q17-35.7,32.1-57.8a137.3,137.3,0,0,1,10.6-13.3,55.2,55.2,0,0,1,6.4-6.4,43.4,43.4,0,0,1,8.2-5.5c2.2-.6,4.2-1.1,6-1.4a15.7,15.7,0,0,1,3.7.5l3.2.9Q1749.5,607.6,1752.6,614ZM1615.9,849.4l6.9-7.4c.6-2.7,1.2-5.8,1.8-9.1v-2.3a35.9,35.9,0,0,0-.9-7.8,52.8,52.8,0,0,0-3.7-14.7,17.3,17.3,0,0,0-3.4-5.3,6.3,6.3,0,0,0-4.4-2.1,23.6,23.6,0,0,0-6,1.4c-2.4,1.2-4.4,2.3-5.9,3.2-7.4,4.6-14.6,11.7-21.6,21.1a136.4,136.4,0,0,0-15.1,27.1c-4.3,10.1-6.6,19.7-6.9,28.9v3.7a18.2,18.2,0,0,1,.4,2.7,5,5,0,0,0,1.9,3.2,3.1,3.1,0,0,0,1.8.5l.5-.5h.4l1.9-.9,3.2-1.8C1580.9,880.7,1597.2,867.4,1615.9,849.4Zm126.6-201.9a55.2,55.2,0,0,0,1.4-15.2c0-5.5-.8-9.7-2.3-12.8a4.8,4.8,0,0,0-2.3-2.8,1.2,1.2,0,0,0-.9-.4h-.5a3.9,3.9,0,0,0-1.8.4c-3.1,1.3-6.6,4.2-10.6,8.8s-5.8,7.5-9.1,12.4c-9.8,14-19.9,32.7-30.3,55.9a580.5,580.5,0,0,0-24.3,59.7q-11.5,32.6-18.8,61.5a62.8,62.8,0,0,0-2.3,8.2,527.8,527.8,0,0,0,56.4-73.9c6.1-9.4,11.6-18.8,16.5-27.9,5.5-10.7,10.3-20.4,14.2-28.9a274.4,274.4,0,0,0,11-29.9C1740.1,657.7,1741.3,652.7,1742.5,647.5Z" transform="translate(-0.8 -460.3)" style="fill:url(#Degradado_sin_nombre_39-5)"/><path d="M1840.7,848.2c1.5,1.4,1.7,2.9.5,4.4a273.4,273.4,0,0,1-38.6,31.6,232.1,232.1,0,0,1-21.5,13.4c-8.9,4.5-16.7,7.8-23.4,9.6a45,45,0,0,1-13.8,1.4,31,31,0,0,1-14.2-4.2,14.8,14.8,0,0,1-6-7.3,23.7,23.7,0,0,1-1.4-8.3,61.5,61.5,0,0,1,1.9-13.7c1.8-5.8,4.1-12.1,6.8-18.8-1.8.3-3.2,0-4.1-1s-2-4.2-.4-6.4c6.4-7.9,12.2-15.3,17.4-22,2.7-3.4,5.8-3.8,9.2-1.4a6.1,6.1,0,0,1,2.7,6v.4a32.3,32.3,0,0,1-1.4,4.6c-.3.6-.7,1.7-1.3,3.2l-2.3,6-2.8,5.5a34.7,34.7,0,0,0-2.3,5.5c-4.6,10.1-7.6,17.5-9.1,22a43.6,43.6,0,0,0-2.3,10.1,15.2,15.2,0,0,0,.4,4.2,5.9,5.9,0,0,0,1.4,2.3c4.6,3.6,11.2,4.9,19.7,3.6a70.1,70.1,0,0,0,22.5-7.3,130,130,0,0,0,21.1-11.9,157.4,157.4,0,0,0,19.7-14.3,128.6,128.6,0,0,0,17.5-16.9C1837.8,846.9,1839.2,846.9,1840.7,848.2Zm-83-27.7c-2.8,1.5-4.9.9-6.5-1.9a4.4,4.4,0,0,1,.5-5l.5-.9a15.3,15.3,0,0,0,2.2-5.1,21.1,21.1,0,0,0,1.4-6.4,7,7,0,0,1,3.2-5,8.2,8.2,0,0,1,6-1.4,7,7,0,0,1,5,3.2,8,8,0,0,1,1.4,6l-.9,2.7-.5.5a81,81,0,0,1-5,6.8A38.4,38.4,0,0,1,1757.7,820.5Z" transform="translate(-0.8 -460.3)" style="fill:url(#Degradado_sin_nombre_39-6)"/><path d="M2039.8,715.9c1.9.3,2.8,1.5,2.8,3.6a2.9,2.9,0,0,1-3.2,2.8h-.5q-42.2-5.5-129.8-4.2c-8.3,20.5-13.3,32.9-15.2,37.2L1875.6,803c-7.1,18.4-12.7,34.3-17,47.8q-4.6,13.7-7.8,24.3a139.6,139.6,0,0,0-5,23.8,33,33,0,0,0-.5,6,8.4,8.4,0,0,0,.5,2.3v.9l.4.9a15.1,15.1,0,0,0,4.6,7.8c2.1,2.2,5,3.4,8.7,3.7a43.6,43.6,0,0,0,11.9-1.8c6.5-1.9,13.7-5.7,21.6-11.5a130.8,130.8,0,0,0,19.3-16.1,191.4,191.4,0,0,0,29.4-40.8c.9-1.8,2.2-2.3,4.1-1.4s2.3,2.3,1.4,4.1v.5a238.3,238.3,0,0,1-31.7,40.8,155.8,155.8,0,0,1-19.3,17.5,100.4,100.4,0,0,1-22.9,13.3,50.9,50.9,0,0,1-13.3,3.2c-5.8.9-10.9,0-15.2-2.8a21.4,21.4,0,0,1-10.1-12.3l-.9-1.9a11.7,11.7,0,0,1-.4-2.3,21.7,21.7,0,0,0-.5-4.1,58.9,58.9,0,0,1,.5-6.9c.6-6.7,2.3-15.4,5-26.1,2.1-7.4,4.6-15.6,7.4-24.8a22,22,0,0,0,.9-2.1,4.5,4.5,0,0,0,.4-1.6c-2.4,4.6-4.3,7.4-5.5,8.3a1.8,1.8,0,0,1-1.8.9,3.2,3.2,0,0,1-2.3-.9c-1.2-1.9-1.1-3.4.5-4.6q4.5-4.6,39-84.9c.3-.9.9-2.8,2-5.5l2.5-6.4c3.4-8.3,7.7-19,12.9-32.2l-86.7,2.8c-17.5.9-27.7,1.4-30.8,1.4a3.3,3.3,0,0,1-.9-6.4l21.1-5.6c2.2-.6,3.5,0,4.1,1.9a3,3,0,0,1-.9,3.2,12.2,12.2,0,0,1,3.7-.5h3.2q55-2.2,89.5-2.7c1.8-4.6,4.3-10.6,7.6-18.1s6.1-14.4,8.7-20.7,4.9-12.1,7.1-17.7c1.5-3.9,4.3-5,8.2-3.2s4.8,3.9,3.3,7.8c-5.2,13.8-12,30.9-20.2,51.4Q1998.1,710.3,2039.8,715.9Z" transform="translate(-0.8 -460.3)" style="fill:url(#Degradado_sin_nombre_39-7)"/><path d="M2098.6,849.8c1.5,1.3,1.8,2.6.9,4.2-8,11-16.8,19.9-26.6,26.6-12.3,8.2-24.3,12.5-36.3,12.8a27.9,27.9,0,0,1-10.1-.9,30.2,30.2,0,0,1-9.6-4.6,28.7,28.7,0,0,1-12.8-16.5,50.5,50.5,0,0,1-2.3-19.3c-14.1,15.6-22.4,24.7-24.8,27.1a116.3,116.3,0,0,1-10.6,9.6c-5.2,3.7-9.9,6.2-14.2,7.4a16,16,0,0,1-9.2,0,16.8,16.8,0,0,1-8.7-6,24.2,24.2,0,0,1-3.2-8.7,31.4,31.4,0,0,1-.5-5.1,20.2,20.2,0,0,0,.5-3.6c1.5-9.5,5.7-18.8,12.4-28a103.9,103.9,0,0,1,21.1-20.7,99.9,99.9,0,0,1,25.7-14.2,51.1,51.1,0,0,1,14.7-3.7,15.4,15.4,0,0,1,8.7,1.4,8.8,8.8,0,0,1,4.1,4.2,10.7,10.7,0,0,1,.5,5.5c-.3,1.8-1.6,2.6-3.7,2.3s-2.4-1-2.7-2.8v-.5a1.7,1.7,0,0,0-.5-1.3c0-.3-.3-.6-.9-1a11.4,11.4,0,0,0-4.6,0,45.4,45.4,0,0,0-11.9,4.6,119.6,119.6,0,0,0-22.5,14.3,115.9,115.9,0,0,0-17.9,19.2,57.6,57.6,0,0,0-10.6,22.5,20.7,20.7,0,0,1-.4,2.8v2.3a9.1,9.1,0,0,0,.9,4.1,11.5,11.5,0,0,0,2.7,2.7,13.8,13.8,0,0,0,4.2.5,35.3,35.3,0,0,0,11.4-4.6,78.1,78.1,0,0,0,10.6-8.2,134.4,134.4,0,0,0,33-44.1c2.5-3.4,5.4-3.8,8.7-1.4s2.9,3.7,2.3,6.5a82.3,82.3,0,0,0-3.2,16.9,46.1,46.1,0,0,0,.9,16.1,19,19,0,0,0,8.3,11.5,24.2,24.2,0,0,0,14.2,4.5c10.1,0,20.8-3.3,32.1-10a117.1,117.1,0,0,0,25.7-23.9C2095.7,848.8,2097,848.6,2098.6,849.8Z" transform="translate(-0.8 -460.3)" style="fill:url(#Degradado_sin_nombre_39-8)"/></svg>