<svg id="Capa_1" data-name="Capa 1" xmlns="http://www.w3.org/2000/svg" xmlns:xlink="http://www.w3.org/1999/xlink" viewBox="0 0 1986.7 677.5"><defs><linearGradient id="Degradado_sin_nombre_39" x1="506.76" y1="911.5" x2="1962.25" y2="905.31" gradientUnits="userSpaceOnUse"><stop offset="0" stop-color="#fff9de"/><stop offset="1" stop-color="#464ca3"/></linearGradient><linearGradient id="Degradado_sin_nombre_39-2" x1="506.88" y1="938.09" x2="1962.36" y2="931.9" xlink:href="#Degradado_sin_nombre_39"/><linearGradient id="Degradado_sin_nombre_39-3" x1="506.88" y1="938.41" x2="1962.36" y2="932.22" xlink:href="#Degradado_sin_nombre_39"/><linearGradient id="Degradado_sin_nombre_39-4" x1="506.84" y1="928.57" x2="1962.32" y2="922.38" xlink:href="#Degradado_sin_nombre_39"/><linearGradient id="Degradado_sin_nombre_39-5" x1="506.63" y1="880.74" x2="1962.12" y2="874.54" xlink:href="#Degradado_sin_nombre_39"/><linearGradient id="Degradado_sin_nombre_39-6" x1="506.87" y1="936.67" x2="1962.36" y2="930.48" xlink:href="#Degradado_sin_nombre_39"/><linearGradient id="Degradado_sin_nombre_39-7" x1="506.88" y1="938.68" x2="1962.36" y2="932.49" xlink:href="#Degradado_sin_nombre_39"/><linearGradient id="Degradado_sin_nombre_39-8" x1="506.64" y1="882.09" x2="1962.12" y2="875.9" xlink:href="#Degradado_sin_nombre_39"/><linearGradient id="Degradado_sin_nombre_39-9" x1="506.92" y1="947.39" x2="1962.4" y2="941.2" xlink:href="#Degradado_sin_nombre_39"/></defs><path d="M1311.1,577.6a8.9,8.9,0,0,1-1.7,6.4,8.4,8.4,0,0,1-6,3.4,128.7,128.7,0,0,0-26.8,4.6,231.5,231.5,0,0,0-26,9.8c-2,1.2-4.4,2.5-7.3,3.9-.2.6-.5.8-.8.8v.5h-.4c-19.4,17.6-37.8,38.6-55.4,63a588.1,588.1,0,0,0-44.8,72.5A789.2,789.2,0,0,0,1079.3,901q-7.6,27.6-14.1,56.6a291.7,291.7,0,0,0,47.8-3.8,261,261,0,0,0,37.4-9.4,91.2,91.2,0,0,0,17.1-7.6q9.8-5.1,14.1-11.1c1.7-2.3,3.6-2.6,5.9-.9s2.6,3.7.9,6q-5.1,7.2-16.2,14.1c-5.4,2.8-11.7,5.6-18.8,8.5a253.3,253.3,0,0,1-38.7,10.2,319.9,319.9,0,0,1-51.6,5.1c-1.1,6.8-2,11.9-2.6,15.4a686.4,686.4,0,0,0-10.2,84.8,670,670,0,0,0,.4,85.2c.9,9.1,1.9,18.3,3,27.7,0-.3.1-.8.2-1.5a8.4,8.4,0,0,1,.7-1.9,7.2,7.2,0,0,1,3.6-5.4,8.5,8.5,0,0,1,6.6-1,6.9,6.9,0,0,1,3.8,2.1,8.2,8.2,0,0,1,2.4,3.8,9,9,0,0,1,.2,4.3v.4l-.4.4c-1.5,5.4-2.6,10-3.4,13.7s-1.6,8.9-2.2,14a142.5,142.5,0,0,0-.8,14.5,110.4,110.4,0,0,0,0,14.1v.4a6.7,6.7,0,0,1-2.2,5.1,9,9,0,0,1-5.1,2.6c-3.9,0-6.4-2-7.2-6a559.9,559.9,0,0,1-11.5-86.5,675.9,675.9,0,0,1,.4-86.5,920.1,920.1,0,0,1,12.4-99.7c-6,0-11.4-.1-16.2-.4q-11.1-.9-20.1-2.1l-9.8-1.7-9.8-2.2A290.1,290.1,0,0,1,957,950.8a4.8,4.8,0,0,1-2.1-.6l-1.7-.7c-11.4,17.7-21.5,32.7-30.3,45.2q-18.7,27.3-33.7,47.3-20.4,26.9-36.6,45.6-23.4,26.4-43.5,40.1-26.9,18.8-54.1,25.9a50,50,0,0,1-7.2,1.8l-7.7,1.7-7.7.8-3.8.4H717.1l-7.7-.8-3.8-.4-3.8-.9a8.5,8.5,0,0,1-2.4-.4l-2.7-.7a11,11,0,0,1-2.6-.6,85.8,85.8,0,0,1-28.6-14.1,63.5,63.5,0,0,1-20.8-25.1,7.9,7.9,0,0,1,0-6.4,8.2,8.2,0,0,1,4.4-4.9,7.6,7.6,0,0,1,6.4-.2,9,9,0,0,1,4.9,4.3v.4a52.2,52.2,0,0,0,15.4,19.2,71,71,0,0,0,22.6,11.9,16.4,16.4,0,0,0,3.6.8c1.5.3,2.5.6,2.7.9l3.5.8h3.4c.2.3,1.2.5,2.7.7l3.7.2,6.8.4h3.4l3.4-.4,6.8-.4,6.4-1.3a55.7,55.7,0,0,1,6.8-1.3q24.3-6.4,49.9-23.4c12.5-8.5,26.4-21.1,41.7-37.5,11.7-13.1,23.7-27.9,36.2-44.3q15-20.1,33.7-46.9,12.3-17.9,29-42.6c-7.4-3.1-14.8-6.4-22.2-9.8-11-5.1-22.8-10.9-35.3-17.5-8-4.2-31-16.9-69.1-37.9q-40.5-22.2-69.4-36.7-34.5-17.4-70.8-33.2c-11.6-5.1-23.7-10.1-36.2-14.9s-25.7-9.9-36.2-13.6c-25.6-9.1-50.4-17.1-74.6-23.9a494.2,494.2,0,0,0-75.8-15.3q-80.5-10.3-154.2,5.1a363.5,363.5,0,0,0-73.8,23,266.9,266.9,0,0,0-34.1,17.5,271.6,271.6,0,0,0-31.5,22.1c-21.3,17.1-37.9,36.2-49.8,57.5a183.8,183.8,0,0,0-23.5,72.5v.4c-.3,2.8-1.8,4.1-4.7,3.8a5.1,5.1,0,0,1-3.8-2.5,28.2,28.2,0,0,1-2.1-6.4,29.9,29.9,0,0,1-1.3-6,85.7,85.7,0,0,1-.9-12.8,66.8,66.8,0,0,1,1.3-12.3,10.5,10.5,0,0,1,.2-1.3,13.1,13.1,0,0,1,.5-1.5,15.5,15.5,0,0,0,.4-1.5,8.8,8.8,0,0,0,.2-1.7l1.7-6c.9-2.5,2.6-3.4,5.3-2.7s3.7,2.5,2.8,5.3l-1.3,5.5a3,3,0,0,0-.6,1.7c-.2.9-.3,1.6-.4,2.2a5.1,5.1,0,0,0-.3,1.7v.4A173.1,173.1,0,0,1,100.1,863q18.8-34.1,51.6-61.7a235.5,235.5,0,0,1,32.4-23.5,382,382,0,0,1,35.3-18.7,376.9,376.9,0,0,1,76.3-24.7q75.9-16.6,158.5-7.3A501.7,501.7,0,0,1,532.6,742q40.5,10.7,75.9,23,69,24,145.3,64,29,14.8,69,37.9L891,905.7c12.2,6.5,23.8,12.5,34.9,17.9l23.4,10.6c3.7-5.4,9-13.3,15.8-23.6S976,894,977.5,892q19.9-30.2,32.8-49.2c8.5-12.6,18.8-27.8,31.1-45.4s24.1-34.1,35.8-49.4,23.2-30.1,34.9-44.3q19.7-23.9,38.8-43.5a409.7,409.7,0,0,1,43.4-39.6,226.7,226.7,0,0,1,23.9-17.5c3.1-2.2,6.5-4.5,10.2-6.8.3,0,.7-.3,1.1-.8a8.1,8.1,0,0,1,1.1-1.3,7.5,7.5,0,0,1,5.5-2.2c2.8-1.7,5.4-3.1,7.7-4.2a213.6,213.6,0,0,1,28.1-11.1,188.2,188.2,0,0,1,29.8-6.8l2.6.2a8.4,8.4,0,0,1,2.5.9,6.2,6.2,0,0,1,2.2,1.7,17.6,17.6,0,0,1,1.4,2.3A5.1,5.1,0,0,1,1311.1,577.6ZM1129.6,736.1q26-50.2,54.5-88.7c-7.7,6.9-15.5,14.2-23.4,22.2-12.8,12.8-25.7,26.8-38.8,42.2q-30.3,35-69.9,91.2-25.9,36.6-65.2,95.4l-8.1,12.8c-3.4,5.4-6.6,10.4-9.8,14.9l-8.5,12.4a1.2,1.2,0,0,0,.9.4,310.8,310.8,0,0,0,36.6,11.5l9.4,2.1,5.5,1.1,4.3.6a143,143,0,0,0,18.7,2.6l17.5.8q6-30.6,14.1-60c7.3-26.5,16.3-53.9,26.8-82.3A845.4,845.4,0,0,1,1129.6,736.1Z" transform="translate(-72.8 -569.9)" style="fill:url(#Degradado_sin_nombre_39)"/><path d="M1327.3,935.1h-.5a118.6,118.6,0,0,1-9.8,13.2,77.5,77.5,0,0,1-12.3,11.5,49,49,0,0,1-14.9,7.6,46.7,46.7,0,0,1-17.1,2.2,35.6,35.6,0,0,1-17-5.1,41.8,41.8,0,0,1-12.8-12.4,122.3,122.3,0,0,1-8.1-14.9,64.6,64.6,0,0,0-3.4-6.4,9.6,9.6,0,0,0-1.7-2.1l-.4-.5h-.5l.5-.4a1.8,1.8,0,0,0-.9.4l-3,1.3a30.5,30.5,0,0,0-6.4,3.9,99.6,99.6,0,0,0-12.3,9.8c-2,1.7-5.8,5.5-11.5,11.5s-9.7,10.5-11.1,11.9a11.9,11.9,0,0,1-2.1,1.7,1.2,1.2,0,0,0-.9.4h-.8c-.3.3-.7.3-1.3,0a4.9,4.9,0,0,1-1.3-.8,2.7,2.7,0,0,1-1.3-1.3v-.9a16.6,16.6,0,0,1,.5-2.1l1.2-4.3c.9-2.5,1.7-5.1,2.6-7.6,2.3-7.4,3.7-12.5,4.3-15.4,3.4-11.3,6.1-21.7,8.1-31.1l10.6,3.9c-2.3,5.4-4.1,9.3-5.5,11.9a52.1,52.1,0,0,1-3.4,6.4l-3.9,5.5c-2.3,3.2-5,3.6-8.1,1.5s-3.5-4.7-1.3-7.9l3.5-5.5a20.6,20.6,0,0,0,2.9-5.1c1.2-2.3,2.9-6.1,5.2-11.5l.4-.4c1.4-3.5,3.8-4.4,7.2-3s4.6,3.8,3.4,7.2l-11.5,30.7-5.5,15.3-3,7.7-1.3,3.4v-.4l-.4-.4a1.5,1.5,0,0,0-.6-1.3,2.1,2.1,0,0,0-1.1-.4H1179l.8-.9q2.3-1.6,11.1-11.1l3.9-3.8c1.4-1.4,2.7-2.8,4-4.3l3.6-3.8,4.9-5.3,6.2-7.1c2.6-2.5,4.7-4.5,6.4-5.9a32.7,32.7,0,0,1,4.3-2.6,17.1,17.1,0,0,1,2.9-.8,12,12,0,0,1,10.7,3.4,17.4,17.4,0,0,1,3,4.2,48.5,48.5,0,0,1,4.2,7.7c3.7,9.4,5.7,14.2,6,14.5,2.6,5.1,5.5,8.9,9,11.5a25.9,25.9,0,0,0,13.2,5.1,39.3,39.3,0,0,0,28.5-7.7,84.4,84.4,0,0,0,11.5-11,136.7,136.7,0,0,0,9-12.8c.8-1.7,2.1-2.1,3.8-1.1A2.9,2.9,0,0,1,1327.3,935.1Z" transform="translate(-72.8 -569.9)" style="fill:url(#Degradado_sin_nombre_39-2)"/><path d="M1315.8,939.7c14.2-13.9,28.2-30.5,42.2-49.8a371,371,0,0,0,33.6-56.3c1.1-2.2,2.3-4.6,3.4-7.2l1.7-3.8,1.3-3.9a82.6,82.6,0,0,0,4.7-15.3c1.1-6.5,1.4-11.7.8-15.3a8.7,8.7,0,0,0-.8-3v-.5l.4.5.9.4h-.5a11,11,0,0,0-2.1,1.7,65.1,65.1,0,0,0-9.4,11.5,121.6,121.6,0,0,0-8.5,13.2c-4.8,8.3-9.8,17.9-14.9,29-8.2,17.3-16.8,37.5-25.6,60.5s-16,43.7-21.7,61.4q-7.2,22.5-17.9,63c-2.8,11.4-5.4,22-7.7,32-1.1,4.8-2.2,10.1-3.4,15.7-.5,2.9-1,5.6-1.2,8.1a42.7,42.7,0,0,0-.9,7.3l-9.4-4.3a43,43,0,0,0,6-6.4,45.4,45.4,0,0,0,5.1-7.6,165.9,165.9,0,0,0,9.8-17.1,217.8,217.8,0,0,0,15.3-35.8c5.2-14.7,8.3-27.4,9.4-37.9.9-8,.7-14.2-.4-18.8-1.1-3.1-2.7-5.2-4.7-6.3a6.9,6.9,0,0,0-6.8,0l1.3-11.1c5.9,4,14.3,6.9,25.1,8.9a105.4,105.4,0,0,0,26.4,1.7,66.9,66.9,0,0,0,25.2-7.6,87.5,87.5,0,0,0,21.3-15.4c1.4-1.4,2.7-1.4,4,0a2.9,2.9,0,0,1,.2,4.3h-.4a127.7,127.7,0,0,1-11.1,8.5,67.1,67.1,0,0,1-11.9,6.8,82.2,82.2,0,0,1-26.8,7.7,103.7,103.7,0,0,1-27.7-.4l-8.4-1.5c-3.8-.7-7.2-1.3-10.2-1.7a31.9,31.9,0,0,0-8.7-.2,5.5,5.5,0,0,1-3.8-1.5,4.6,4.6,0,0,1-1.8-3.7c-.2-2.8,1-4.6,3.9-5.5l3-.8a36,36,0,0,1,6.4,2.1,17.6,17.6,0,0,1,5.5,3.8,21.9,21.9,0,0,1,5.5,10.2c1.5,5.7,1.7,12.7.9,20.9-1.4,11.7-4.4,24.9-9,39.7-3.9,12.2-8.6,24.7-14,37.4-3.4,7.7-6.4,13.8-9,18.4a78.2,78.2,0,0,1-5.1,8.9,46.3,46.3,0,0,1-7.2,8.5c-2.9,2.6-5.6,2.4-8.1-.4a4.4,4.4,0,0,1-1.3-3.4,82.3,82.3,0,0,1,.8-9.4c.3-2.5.8-5.4,1.3-8.5s1.6-9.4,3-16.2c2.3-10.2,4.7-21,7.3-32.4,5.4-22.1,11.3-43.4,17.9-63.9q23.9-71.5,48.5-123.1c5.4-11.4,10.7-21.3,15.8-29.9a117.3,117.3,0,0,1,9.4-14c4.5-6.3,8.5-10.8,11.9-13.6a14.5,14.5,0,0,1,4.7-2.6,7.9,7.9,0,0,1,3.8-.9,6.9,6.9,0,0,1,4.7.9,9.2,9.2,0,0,1,3.4,3.4,9.7,9.7,0,0,1,1.3,3.4,25.1,25.1,0,0,1,.4,5.1,74.3,74.3,0,0,1-3.8,17.5,221.1,221.1,0,0,1-12.8,30.7q-11.5,23.9-34.5,56.6c-4.8,7.2-11.5,16-20,26.5-6.9,8.5-14.1,16.9-21.8,25.1a2.7,2.7,0,0,1-4-.2A2.7,2.7,0,0,1,1315.8,939.7Z" transform="translate(-72.8 -569.9)" style="fill:url(#Degradado_sin_nombre_39-3)"/><path d="M1520.7,930.2c1.4,1.2,1.6,2.6.4,4a250,250,0,0,1-35.7,29.4,213.6,213.6,0,0,1-20.1,12.4,117.3,117.3,0,0,1-21.7,8.9,41.6,41.6,0,0,1-12.8,1.3,31.1,31.1,0,0,1-13.2-3.8,14.3,14.3,0,0,1-5.5-6.9,20.2,20.2,0,0,1-1.3-7.6,63.6,63.6,0,0,1,1.7-12.8c1.7-5.4,3.8-11.2,6.4-17.5a4.5,4.5,0,0,1-3.9-.8c-1.7-2-1.8-4-.4-6,6-7.4,11.4-14.2,16.2-20.5,2.6-3.1,5.4-3.5,8.5-1.2a5.5,5.5,0,0,1,2.6,5.5v.4c-.3,1.2-.7,2.6-1.3,4.3l-1.3,3-2.1,5.5c-.6,1.2-1.4,2.9-2.6,5.1a34.6,34.6,0,0,0-2.1,5.1c-4.2,9.4-7.1,16.2-8.5,20.5a40.2,40.2,0,0,0-2.1,9.4,12.5,12.5,0,0,0,.4,3.8,4.4,4.4,0,0,0,1.3,2.1c4.2,3.4,10.3,4.6,18.3,3.4a65.2,65.2,0,0,0,20.9-6.8,112.6,112.6,0,0,0,19.6-11.1,154.5,154.5,0,0,0,18.3-13.2,127.8,127.8,0,0,0,16.2-15.7C1518,929,1519.3,928.9,1520.7,930.2Zm-83.1-35.6a2.5,2.5,0,0,1-1.7-3,52.3,52.3,0,0,1,3-8.1l4.3-6.8a66.8,66.8,0,0,1,5.1-6.8,28.4,28.4,0,0,1,7.7-6l.8-.4c3.7-1.4,6.3-.4,7.9,3.2s.5,6-3.2,7.4a3.7,3.7,0,0,1-1.7.5c-1.2.2-2.7,1.1-4.7,2.5s-3.4,3-5.1,4.7a48.8,48.8,0,0,0-4.7,5.5,37.9,37.9,0,0,0-3.8,6A2.6,2.6,0,0,1,1437.6,894.6Z" transform="translate(-72.8 -569.9)" style="fill:url(#Degradado_sin_nombre_39-4)"/><path d="M1705.6,807.2c1.7.3,2.6,1.5,2.6,3.4a2.8,2.8,0,0,1-3,2.6h-.4q-39.1-5.1-120.6-3.8c-7.7,19-12.3,30.5-14.1,34.5q-8.4,22.1-17,44.3-9.7,25.5-15.8,44.3c-2.8,8.5-5.2,16.1-7.2,22.6a136.5,136.5,0,0,0-4.7,22.1,37.8,37.8,0,0,0-.4,5.6,9.6,9.6,0,0,0,.4,2.1v.9l.4.8a14.7,14.7,0,0,0,4.3,7.3,13.1,13.1,0,0,0,8.1,3.4,42.3,42.3,0,0,0,11.1-1.7c5.9-1.7,12.6-5.3,20-10.7a129.8,129.8,0,0,0,17.9-14.9,178.8,178.8,0,0,0,27.3-37.9c.8-1.7,2.1-2.2,3.8-1.3s2.1,2.1,1.3,3.8v.5a220.9,220.9,0,0,1-29.4,37.9,157.8,157.8,0,0,1-17.9,16.2,89.8,89.8,0,0,1-21.3,12.3,47.2,47.2,0,0,1-12.4,3,19.3,19.3,0,0,1-14-2.5,19.9,19.9,0,0,1-9.4-11.5l-.9-1.8a9.6,9.6,0,0,1-.4-2.1,18.2,18.2,0,0,0-.4-3.8,48.8,48.8,0,0,1,.4-6.4,157.5,157.5,0,0,1,4.7-24.3c2-6.8,4.2-14.5,6.8-23l.9-1.9a8.5,8.5,0,0,0,.4-1.5c-2.3,4.2-4,6.8-5.1,7.7a1.9,1.9,0,0,1-1.7.8,3.3,3.3,0,0,1-2.2-.8c-1.1-1.8-1-3.2.5-4.3q4.2-4.2,36.2-78.8c.3-.9.9-2.6,1.9-5.1l2.3-6c3.2-7.7,7.1-17.6,12-29.8-20.8.5-47.6,1.4-80.6,2.5-16.2.9-25.7,1.3-28.5,1.3a2.8,2.8,0,0,1-3-2.6,2.8,2.8,0,0,1,2.1-3.4l19.6-5.1c2-.6,3.3,0,3.9,1.7a2.9,2.9,0,0,1-.9,3,10.9,10.9,0,0,1,3.4-.4h3q51.2-2.1,83.1-2.6c1.7-4.2,4.1-9.8,7-16.8s5.7-13.4,8.1-19.2,4.6-11.3,6.6-16.4,4-4.7,7.7-3,4.4,3.6,3,7.3q-7.2,19.2-18.8,47.7Q1666.9,802.1,1705.6,807.2Z" transform="translate(-72.8 -569.9)" style="fill:url(#Degradado_sin_nombre_39-5)"/><path d="M1735.3,931.9c1.5,1,1.9,2.2,1,3.6v.4a200.4,200.4,0,0,1-18.3,23.4,192.4,192.4,0,0,1-20.9,20.5,199.9,199.9,0,0,1-23.8,17.9,132,132,0,0,1-27.3,12.4,47.2,47.2,0,0,1-15.8,2.1,17.6,17.6,0,0,1-8.5-2.1,15.3,15.3,0,0,1-4.3-3,13.7,13.7,0,0,0-1.7-1.7c-.2-.6-.5-1.1-.6-1.5a2.9,2.9,0,0,0-.6-1.1,17.5,17.5,0,0,1-.9-9.8,28.5,28.5,0,0,1,2.1-8.1,89.5,89.5,0,0,1,6.9-14.1l7.6-12.5c3.4-5.6,6-9.6,7.7-12.2a45,45,0,0,1,3-5.9c.8-2.3,1.4-4,1.7-5.1h-3.4a11.3,11.3,0,0,0-3,.4,23.1,23.1,0,0,1-3.8.4l-7.7.9a72.6,72.6,0,0,1-16.2-1.7,28.5,28.5,0,0,1-8.5-3,19.9,19.9,0,0,1-7.7-6.4,15.8,15.8,0,0,1-3.4-11.1,35.5,35.5,0,0,1,1.7-8.5q4.2-13.2,16.2-27.3a139.2,139.2,0,0,1,23-20l6.8-4.3,4.3-1.7c1.7-.5,3.2-1,4.7-1.3a23.6,23.6,0,0,1,9.8,1.3,16.8,16.8,0,0,1,8.1,7.3,18,18,0,0,1,1.7,9.3,30.3,30.3,0,0,1-2.2,8.6,92.1,92.1,0,0,1-8.5,13.2q-3.7,4.6-29,32.8a34.6,34.6,0,0,1,5.2-.4,16.5,16.5,0,0,1,3.4-.7,30.3,30.3,0,0,0,4.2-.6h4.7a13.2,13.2,0,0,1,5.5,1.7,10,10,0,0,1,6,5.9,17.2,17.2,0,0,1,.4,6.9,57.2,57.2,0,0,1-2.9,8.5,51.5,51.5,0,0,1-3.9,6.8c-1.7,3.1-4.3,7.4-7.9,12.8l-7.8,11.9a116.3,116.3,0,0,0-6.4,11.9c-2,4.9-2.9,8.4-2.6,10.7s3.1,4.5,7.7,5.1,8.1.7,13.2-.4q11.5-2.6,26.4-11.1a158,158,0,0,0,23.2-16.6,210.7,210.7,0,0,0,20.7-20.5,181.1,181.1,0,0,0,16.6-23.4A2.8,2.8,0,0,1,1735.3,931.9ZM1602.5,918c1.5,2,4.4,3.6,9,4.7a25.3,25.3,0,0,0,7.2.9c4.8-4.9,9.1-9.4,12.8-13.7a252.8,252.8,0,0,0,18.8-22.1,32.5,32.5,0,0,0,5.9-12.4c1.1-4.5.7-7.9-1.3-10.2s-4.4-2.7-8.1-2.2a7.6,7.6,0,0,0-2.1.5,14.9,14.9,0,0,1-2.5,1.3l-5.6,3.8a109.7,109.7,0,0,0-20.4,18.3c-6.9,8.3-11.3,15.9-13.2,23a22.1,22.1,0,0,0-1.3,5.6A4.9,4.9,0,0,0,1602.5,918Z" transform="translate(-72.8 -569.9)" style="fill:url(#Degradado_sin_nombre_39-6)"/><path d="M1838.6,930.2a2.6,2.6,0,0,1,.4,4,251.2,251.2,0,0,1-35.8,29.4,200.2,200.2,0,0,1-20,12.4,120.2,120.2,0,0,1-21.7,8.9,41.6,41.6,0,0,1-12.8,1.3,30.3,30.3,0,0,1-13.2-3.8,15.1,15.1,0,0,1-5.6-6.9,22.4,22.4,0,0,1-1.3-7.6,58,58,0,0,1,1.8-12.8c1.7-5.4,3.8-11.2,6.3-17.5a4.2,4.2,0,0,1-3.8-.8c-1.7-2-1.8-4-.4-6,6-7.4,11.3-14.2,16.2-20.5,2.5-3.1,5.4-3.5,8.5-1.2a5.6,5.6,0,0,1,2.6,5.5v.4c-.3,1.2-.8,2.6-1.3,4.3l-1.3,3c-.6,1.4-1.3,3.2-2.1,5.5l-2.6,5.1a34.6,34.6,0,0,0-2.1,5.1,217.7,217.7,0,0,0-8.5,20.5,40.8,40.8,0,0,0-2.2,9.4,12,12,0,0,0,.5,3.8,4.3,4.3,0,0,0,1.2,2.1c4.3,3.4,10.4,4.6,18.4,3.4s13.4-3.1,20.8-6.8a109.1,109.1,0,0,0,19.6-11.1,154.9,154.9,0,0,0,18.4-13.2,120.4,120.4,0,0,0,16.1-15.7C1835.9,929,1837.2,928.9,1838.6,930.2Zm-77.1-25.8c-2.6,1.4-4.6.8-6-1.7a4.1,4.1,0,0,1,.4-4.7l.4-.9a13.7,13.7,0,0,0,2.2-4.7,27.8,27.8,0,0,0,1.3-5.9,6.1,6.1,0,0,1,2.9-4.7,8,8,0,0,1,5.6-1.3,6.7,6.7,0,0,1,4.7,3,7.8,7.8,0,0,1,1.2,5.5,25.8,25.8,0,0,1-.8,2.6l-.4.4a71.8,71.8,0,0,1-4.7,6.4A32.9,32.9,0,0,1,1761.5,904.4Z" transform="translate(-72.8 -569.9)" style="fill:url(#Degradado_sin_nombre_39-7)"/><path d="M2023.5,807.2c1.7.3,2.6,1.5,2.6,3.4a2.8,2.8,0,0,1-3,2.6h-.4q-39.3-5.1-120.6-3.8-11.5,28.5-14.1,34.5-8.6,22.1-17,44.3c-6.6,17-11.8,31.8-15.8,44.3-2.8,8.5-5.3,16.1-7.2,22.6-2.6,9.1-4.2,16.5-4.7,22.1a38.7,38.7,0,0,0-.5,5.6,13.3,13.3,0,0,0,.5,2.1v.9l.4.8a14,14,0,0,0,4.3,7.3,12.6,12.6,0,0,0,8.1,3.4,41.6,41.6,0,0,0,11-1.7c6-1.7,12.7-5.3,20.1-10.7a129.8,129.8,0,0,0,17.9-14.9,175,175,0,0,0,27.2-37.9c.9-1.7,2.2-2.2,3.9-1.3s2.1,2.1,1.2,3.8v.5A220.9,220.9,0,0,1,1908,973a149.7,149.7,0,0,1-17.9,16.2,89.8,89.8,0,0,1-21.3,12.3,45.7,45.7,0,0,1-12.3,3,19.7,19.7,0,0,1-14.1-2.5,20.3,20.3,0,0,1-9.4-11.5l-.8-1.8a9.6,9.6,0,0,1-.4-2.1,18.9,18.9,0,0,0-.5-3.8,49.8,49.8,0,0,1,.5-6.4c.5-6.3,2.1-14.4,4.7-24.3,1.9-6.8,4.2-14.5,6.8-23,.2-.6.5-1.2.8-1.9a4.1,4.1,0,0,0,.4-1.5c-2.2,4.2-3.9,6.8-5.1,7.7a1.8,1.8,0,0,1-1.7.8,3.2,3.2,0,0,1-2.1-.8c-1.1-1.8-1-3.2.4-4.3,2.9-2.8,14.9-29.1,36.2-78.8.3-.9,1-2.6,2-5.1s1.7-4.6,2.3-6c3.1-7.7,7.1-17.6,11.9-29.8-20.7.5-47.5,1.4-80.5,2.5-16.2.9-25.7,1.3-28.5,1.3a3.1,3.1,0,0,1-.9-6l19.6-5.1c2-.6,3.3,0,3.8,1.7a3,3,0,0,1-.8,3,10.5,10.5,0,0,1,3.4-.4h3q51.1-2.1,83.1-2.6c1.7-4.2,4-9.8,7-16.8s5.7-13.4,8.1-19.2,4.6-11.3,6.6-16.4,4-4.7,7.7-3,4.4,3.6,2.9,7.3q-7.2,19.2-18.7,47.7Q1984.8,802.1,2023.5,807.2Z" transform="translate(-72.8 -569.9)" style="fill:url(#Degradado_sin_nombre_39-8)"/><path d="M2058.4,932.1q2.3,2.1,0,4.2c-6.8,6-11.3,9.8-13.6,11.5-4,3.4-8.7,7-14,10.7a142,142,0,0,1-30.7,17.5c-13.1,5.4-25,7.9-35.8,7.6a49,49,0,0,1-9.4-.8l-4.7-1.3a20.5,20.5,0,0,1-5.1-2.6,32.1,32.1,0,0,1-13.6-14.9,29.3,29.3,0,0,1-3.4-9.8c-.3-3.1-.5-6.4-.5-9.8a47.3,47.3,0,0,1,5.1-19.1,56.3,56.3,0,0,1,12-15,50.1,50.1,0,0,1,16.6-10.2l5.1-1.3a21,21,0,0,1,7.3.5,13.4,13.4,0,0,1,5.5,5.1,13.7,13.7,0,0,1,1.7,6.8,12.9,12.9,0,0,1-1.3,5.5,47.1,47.1,0,0,1-2.1,4.7,23.2,23.2,0,0,1-6.4,7.7,37.5,37.5,0,0,1-17,8.9,46.2,46.2,0,0,1-14.5,1.3,38.7,38.7,0,0,0-.5,5.6,24.4,24.4,0,0,0,.5,7.6,16.1,16.1,0,0,0,2.1,6.4c1.7,4,4.8,7.5,9.4,10.7,2.8,2.2,7.5,3.8,14,4.7a78.6,78.6,0,0,0,32.8-3.9q29.4-10.6,56.3-38.3A2.6,2.6,0,0,1,2058.4,932.1Zm-93.3-22.2c-10.2,4.3-17.6,11.1-22.1,20.5a4.9,4.9,0,0,0-1.3,2.5,51.7,51.7,0,0,0,10.2-1.7,29.6,29.6,0,0,0,13.2-8.1,22.9,22.9,0,0,0,4.3-5.9c.3-.9.7-2,1.3-3.4a12.4,12.4,0,0,0,.4-3,2.5,2.5,0,0,0-1.3-2.2l-1.7.5A8.4,8.4,0,0,0,1965.1,909.9Z" transform="translate(-72.8 -569.9)" style="fill:url(#Degradado_sin_nombre_39-9)"/></svg>