<svg id="Capa_1" data-name="Capa 1" xmlns="http://www.w3.org/2000/svg" xmlns:xlink="http://www.w3.org/1999/xlink" viewBox="0 0 1994.2 677.5"><defs><linearGradient id="Degradado_sin_nombre_39" x1="456.15" y1="778.02" x2="1954.99" y2="765.63" gradientUnits="userSpaceOnUse"><stop offset="0" stop-color="#fff9de"/><stop offset="1" stop-color="#464ca3"/></linearGradient><linearGradient id="Degradado_sin_nombre_39-2" x1="456.34" y1="801.43" x2="1955.18" y2="789.05" xlink:href="#Degradado_sin_nombre_39"/><linearGradient id="Degradado_sin_nombre_39-3" x1="455.89" y1="746.99" x2="1954.73" y2="734.6" xlink:href="#Degradado_sin_nombre_39"/><linearGradient id="Degradado_sin_nombre_39-4" x1="456.43" y1="812.62" x2="1955.27" y2="800.23" xlink:href="#Degradado_sin_nombre_39"/><linearGradient id="Degradado_sin_nombre_39-5" x1="456.47" y1="817.27" x2="1955.31" y2="804.88" xlink:href="#Degradado_sin_nombre_39"/><linearGradient id="Degradado_sin_nombre_39-6" x1="456.39" y1="807.45" x2="1955.23" y2="795.07" xlink:href="#Degradado_sin_nombre_39"/><linearGradient id="Degradado_sin_nombre_39-7" x1="456.4" y1="809.05" x2="1955.24" y2="796.66" xlink:href="#Degradado_sin_nombre_39"/><linearGradient id="Degradado_sin_nombre_39-8" x1="456.4" y1="808.97" x2="1955.24" y2="796.59" xlink:href="#Degradado_sin_nombre_39"/></defs><path d="M1269.8,441.3a9.3,9.3,0,0,1-1.7,6.4,8.4,8.4,0,0,1-6,3.4,129.9,129.9,0,0,0-26.9,4.7,219,219,0,0,0-25.9,9.8l-7.3,3.8c-.3.6-.6.9-.8.9v.4h-.5q-29,26.4-55.4,63.1a586.4,586.4,0,0,0-44.7,72.4A791.5,791.5,0,0,0,1038,764.7c-5.2,18.5-9.8,37.4-14.1,56.7a289.7,289.7,0,0,0,47.7-3.9,250.4,250.4,0,0,0,37.5-9.3,101.5,101.5,0,0,0,17.1-7.7c6.5-3.4,11.2-7.1,14-11.1,1.7-2.2,3.7-2.5,6-.8s2.5,3.7.8,5.9c-3.4,4.9-8.8,9.6-16.1,14.1a202.1,202.1,0,0,1-18.8,8.5,254.8,254.8,0,0,1-38.8,10.2,306.9,306.9,0,0,1-51.5,5.2c-1.2,6.8-2,11.9-2.6,15.3a688.7,688.7,0,0,0-10.2,84.8,652,652,0,0,0,.4,85.2c.9,9.1,1.9,18.3,3,27.7,0-.3.1-.8.2-1.5a10.6,10.6,0,0,1,.6-1.9,6.9,6.9,0,0,1,3.7-5.3,8.2,8.2,0,0,1,6.6-1.1,7.6,7.6,0,0,1,3.8,2.1,10.6,10.6,0,0,1,2.4,3.9,9.9,9.9,0,0,1,.2,4.2v.5l-.5.4c-1.4,5.4-2.5,9.9-3.4,13.6s-1.5,9-2.1,14.1a116.4,116.4,0,0,0-.9,14.5c-.2,5.1-.2,9.8,0,14v.5a7.3,7.3,0,0,1-2.1,5.1,8.8,8.8,0,0,1-5.1,2.5c-4,0-6.4-2-7.2-5.9a563.2,563.2,0,0,1-11.5-86.5,675.8,675.8,0,0,1,.4-86.5,938.9,938.9,0,0,1,12.3-99.7c-5.9,0-11.3-.2-16.2-.5-7.3-.5-14-1.2-20-2.1l-9.8-1.7-9.8-2.1a318.3,318.3,0,0,1-38.3-11.5,4.6,4.6,0,0,1-2.2-.7,4.9,4.9,0,0,0-1.7-.6q-16.9,26.4-30.2,45.2c-12.5,18.1-23.7,33.9-33.7,47.2q-20.4,26.8-36.6,45.6c-15.6,17.7-30.1,31-43.5,40.1q-26.8,18.8-54.1,26a64.8,64.8,0,0,1-7.2,1.7l-7.7,1.7-7.7.8-3.8.5H675.8l-7.7-.9-3.8-.4-3.9-.9a8.4,8.4,0,0,1-2.3-.4l-2.8-.6-2.5-.7a85.6,85.6,0,0,1-28.6-14A63.3,63.3,0,0,1,603.3,979a8.8,8.8,0,0,1,0-6.4,9,9,0,0,1,4.5-4.9,7.9,7.9,0,0,1,6.4-.2,9.8,9.8,0,0,1,4.9,4.3v.4q4.6,10.6,15.3,19.2a69.2,69.2,0,0,0,22.6,11.9l3.7.9a7.1,7.1,0,0,1,2.7.8l3.4.9h3.4c.3.3,1.2.5,2.8.6a27.1,27.1,0,0,0,3.6.2l6.8.5h3.5l3.4-.5,6.8-.4,6.4-1.3a64.2,64.2,0,0,1,6.8-1.2q24.3-6.4,49.8-23.5c12.5-8.5,26.5-21,41.8-37.5q17.4-19.5,36.2-44.3c10-13.3,21.2-29,33.7-46.9q12.3-17.9,29-42.6c-7.4-3.1-14.8-6.4-22.2-9.8q-16.6-7.7-35.4-17.4c-7.9-4.3-30.9-16.9-69-38-27-14.7-50.1-27-69.4-36.6-23.1-11.7-46.6-22.7-70.8-33.2-11.6-5.2-23.7-10.1-36.2-15s-25.7-9.9-36.2-13.6c-25.6-9.1-50.4-17-74.6-23.9a496.6,496.6,0,0,0-75.8-15.3q-80.6-10.2-154.3,5.1a368.9,368.9,0,0,0-73.7,23,280.5,280.5,0,0,0-34.1,17.5A252.9,252.9,0,0,0,117.6,674q-31.9,25.5-49.9,57.5a183.2,183.2,0,0,0-23.4,72.4v.4c-.3,2.9-1.8,4.2-4.7,3.9a5.3,5.3,0,0,1-3.8-2.6,26.4,26.4,0,0,1-2.2-6.4,40.8,40.8,0,0,1-1.2-5.9,86.7,86.7,0,0,1-.9-12.8,60.1,60.1,0,0,1,1.3-12.4,10.5,10.5,0,0,1,.2-1.3,10.3,10.3,0,0,0,.4-1.4c.2-.5.3-1,.5-1.5a11.1,11.1,0,0,0,.2-1.7l1.7-6c.8-2.6,2.6-3.5,5.3-2.8s3.6,2.5,2.8,5.3l-1.3,5.6A2.7,2.7,0,0,0,42,766c-.2.8-.3,1.6-.5,2.1a11.1,11.1,0,0,0-.2,1.7v.5a170.1,170.1,0,0,1,17.5-43.5q18.8-34,51.5-61.8a257.4,257.4,0,0,1,32.4-23.4,397.9,397.9,0,0,1,35.4-18.8,383.3,383.3,0,0,1,76.3-24.7q75.7-16.6,158.5-7.2a492.5,492.5,0,0,1,78.4,14.9c27,7.1,52.2,14.8,75.8,23q69,23.9,145.3,63.9c19.3,9.9,42.3,22.6,69.1,37.9l68.1,38.8c12.2,6.5,23.9,12.5,35,17.9,7.9,3.7,15.7,7.2,23.4,10.6,3.7-5.3,8.9-13.2,15.8-23.6s10.9-16.5,12.3-18.5l32.8-49.3c8.6-12.6,18.9-27.7,31.1-45.3s24.2-34.1,35.8-49.5,23.3-30.1,35-44.3c13-15.9,26-30.4,38.7-43.4a410.7,410.7,0,0,1,43.5-39.7,213.9,213.9,0,0,1,23.9-17.4,120.4,120.4,0,0,1,10.2-6.8c.3,0,.6-.3,1.1-.9l1-1.3a7.6,7.6,0,0,1,5.6-2.1c2.8-1.7,5.4-3.1,7.6-4.3a199.8,199.8,0,0,1,28.2-11,186.1,186.1,0,0,1,29.8-6.9l2.5.2a13.4,13.4,0,0,1,2.6.9,5.1,5.1,0,0,1,2.1,1.7,11.4,11.4,0,0,1,1.5,2.3A6.8,6.8,0,0,1,1269.8,441.3ZM1088.2,599.8c17.4-33.5,35.5-63.1,54.6-88.6-7.7,6.8-15.5,14.2-23.5,22.1-12.7,12.8-25.7,26.9-38.7,42.2q-30.3,34.9-69.9,91.2-26,36.6-65.2,95.5l-8.1,12.7c-3.4,5.4-6.7,10.4-9.8,15l-8.5,12.3a1,1,0,0,0,.8.4,294.4,294.4,0,0,0,36.7,11.5l9.4,2.2,5.5,1a26.1,26.1,0,0,0,4.3.7,141.9,141.9,0,0,0,18.7,2.5l17.5.9q5.8-30.7,14-60.1,11.1-39.6,26.9-82.2A861.9,861.9,0,0,1,1088.2,599.8Z" transform="translate(-31.5 -433.6)" style="fill:url(#Degradado_sin_nombre_39)"/><path d="M1258.5,795.6c1.5,1,1.9,2.2,1,3.6v.5a220.3,220.3,0,0,1-39.2,43.8,199.9,199.9,0,0,1-23.8,17.9,126.9,126.9,0,0,1-27.3,12.4,47.2,47.2,0,0,1-15.8,2.1,17.6,17.6,0,0,1-8.5-2.1,15.3,15.3,0,0,1-4.3-3l-1.7-1.7c-.2-.6-.5-1.1-.6-1.5a2.4,2.4,0,0,0-.6-1.1,17.5,17.5,0,0,1-.9-9.8,27,27,0,0,1,2.1-8,89.5,89.5,0,0,1,6.9-14.1l7.6-12.6c3.4-5.5,6-9.6,7.7-12.1a41.3,41.3,0,0,1,3-6c.8-2.3,1.4-4,1.7-5.1h-3.4a11.3,11.3,0,0,0-3,.4,26.3,26.3,0,0,1-3.8.5l-7.7.8a72.6,72.6,0,0,1-16.2-1.7,28.5,28.5,0,0,1-8.5-3,19.1,19.1,0,0,1-7.7-6.4,16.3,16.3,0,0,1-3.4-11.1,42.6,42.6,0,0,1,1.7-8.5c2.8-8.8,8.2-17.9,16.2-27.2a139.9,139.9,0,0,1,23-20.1c2.6-1.7,4.8-3.1,6.8-4.2l4.3-1.7a33.6,33.6,0,0,1,4.7-1.3,20.7,20.7,0,0,1,9.8,1.3,16.6,16.6,0,0,1,8.1,7.2,18.4,18.4,0,0,1,1.7,9.4,29.6,29.6,0,0,1-2.2,8.5,82.2,82.2,0,0,1-8.5,13.2c-2.5,3.1-12.2,14.1-29,32.8a34.6,34.6,0,0,1,5.2-.4,12.3,12.3,0,0,1,3.4-.6l4.2-.7h4.7a16.1,16.1,0,0,1,5.6,1.7,10.3,10.3,0,0,1,5.9,6,16.7,16.7,0,0,1,.4,6.8,53.6,53.6,0,0,1-2.9,8.5,45.8,45.8,0,0,1-3.9,6.8c-1.7,3.2-4.3,7.4-7.9,12.8l-7.8,12a116.3,116.3,0,0,0-6.4,11.9c-2,4.8-2.9,8.4-2.6,10.6s3.1,4.6,7.7,5.2a30.1,30.1,0,0,0,13.2-.5q11.6-2.5,26.4-11.1a150.9,150.9,0,0,0,23.2-16.6,199.1,199.1,0,0,0,20.7-20.4,189,189,0,0,0,16.6-23.5A2.8,2.8,0,0,1,1258.5,795.6Zm-132.8-13.8c1.5,1.9,4.4,3.5,9,4.6a25.3,25.3,0,0,0,7.2.9c4.9-4.8,9.1-9.4,12.8-13.6a252.1,252.1,0,0,0,18.8-22.2,32.5,32.5,0,0,0,5.9-12.4c1.2-4.5.7-7.9-1.3-10.2s-4.4-2.7-8.1-2.1a6.8,6.8,0,0,0-2.1.4,10,10,0,0,1-2.5,1.3l-5.6,3.8a113.4,113.4,0,0,0-20.4,18.3q-10.4,12.4-13.2,23.1a21.2,21.2,0,0,0-1.3,5.5A5.2,5.2,0,0,0,1125.7,781.8Z" transform="translate(-31.5 -433.6)" style="fill:url(#Degradado_sin_nombre_39-2)"/><path d="M1444,671c1.7.3,2.6,1.4,2.6,3.4a2.7,2.7,0,0,1-3,2.5h-.4q-39.3-5.1-120.6-3.8-11.5,28.5-14.1,34.5c-5.7,14.8-11.3,29.6-17,44.3-6.6,17.1-11.8,31.8-15.8,44.3-2.8,8.6-5.2,16.1-7.2,22.6a135.2,135.2,0,0,0-4.7,22.2,36.5,36.5,0,0,0-.4,5.5,11.2,11.2,0,0,0,.4,2.2v.8l.4.9a14.4,14.4,0,0,0,4.3,7.2,12.6,12.6,0,0,0,8.1,3.4,41,41,0,0,0,11-1.7c6-1.7,12.7-5.2,20.1-10.6a130.6,130.6,0,0,0,17.9-15,172.6,172.6,0,0,0,27.2-37.9,2.9,2.9,0,0,1,5.2,2.6v.4a231.4,231.4,0,0,1-29.4,37.9,147.9,147.9,0,0,1-17.9,16.2,96.2,96.2,0,0,1-21.3,12.4,47.2,47.2,0,0,1-12.4,3c-5.4.8-10.1,0-14.1-2.6a20.1,20.1,0,0,1-9.3-11.5l-.9-1.7a10.8,10.8,0,0,1-.4-2.1,28.7,28.7,0,0,0-.4-3.9,48.8,48.8,0,0,1,.4-6.4,162.1,162.1,0,0,1,4.7-24.3c2-6.8,4.2-14.4,6.8-23a8.4,8.4,0,0,0,.8-1.9,5,5,0,0,0,.5-1.5c-2.3,4.3-4,6.8-5.1,7.7s-.9.8-1.8.8a2.8,2.8,0,0,1-2.1-.8c-1.1-1.7-1-3.1.4-4.3q4.4-4.2,36.3-78.8c.2-.8.9-2.6,1.9-5.1l2.3-6,12-29.8c-20.8.6-47.6,1.4-80.6,2.6q-24.3,1.2-28.5,1.2a3,3,0,0,1-.9-5.9l19.6-5.1c2-.6,3.3,0,3.9,1.7a2.9,2.9,0,0,1-.9,2.9,15.1,15.1,0,0,1,3.4-.4h3c34.1-1.4,61.8-2.3,83.1-2.5,1.7-4.3,4-9.9,7-16.9s5.7-13.3,8.1-19.1,4.6-11.3,6.6-16.4,4-4.7,7.7-3,4.4,3.5,3,7.2c-4.9,12.8-11.1,28.7-18.8,47.7Q1405.3,665.9,1444,671Z" transform="translate(-31.5 -433.6)" style="fill:url(#Degradado_sin_nombre_39-3)"/><path d="M1479,795.8a2.7,2.7,0,0,1,0,4.3c-6.9,5.9-11.4,9.8-13.7,11.5a169.2,169.2,0,0,1-14,10.6,142,142,0,0,1-30.7,17.5c-13.1,5.4-25,8-35.8,7.7a49.9,49.9,0,0,1-9.4-.9l-4.7-1.3a20,20,0,0,1-5.1-2.5,33.1,33.1,0,0,1-13.6-14.9,29.3,29.3,0,0,1-3.4-9.8c-.3-3.1-.4-6.4-.4-9.8a44.7,44.7,0,0,1,5.1-19.2,53.9,53.9,0,0,1,11.9-14.9c5.4-4.8,10.9-8.3,16.6-10.2l5.1-1.3a18.8,18.8,0,0,1,7.3.4,13.4,13.4,0,0,1,5.5,5.1,14,14,0,0,1,1.7,6.8,13.7,13.7,0,0,1-1.3,5.6c-.8,2-1.5,3.5-2.1,4.7a23.8,23.8,0,0,1-6.4,7.6,37.2,37.2,0,0,1-17,9,53,53,0,0,1-14.5,1.3,36.5,36.5,0,0,0-.4,5.5,22.2,22.2,0,0,0,.4,7.7,18.5,18.5,0,0,0,2.1,6.4,25.2,25.2,0,0,0,9.4,10.6c2.8,2.3,7.5,3.8,14,4.7a79,79,0,0,0,32.9-3.8q29.4-10.7,56.2-38.4C1476.1,794.4,1477.5,794.4,1479,795.8Zm-93.4-22.1c-10.2,4.2-17.6,11-22.1,20.4a5.3,5.3,0,0,0-1.3,2.6,60.3,60.3,0,0,0,10.2-1.7,29.6,29.6,0,0,0,13.2-8.1,19.9,19.9,0,0,0,4.3-6c.3-.8.7-2,1.3-3.4a11.3,11.3,0,0,0,.4-3,2.5,2.5,0,0,0-1.3-2.1l-1.7.4A7.1,7.1,0,0,0,1385.6,773.7Z" transform="translate(-31.5 -433.6)" style="fill:url(#Degradado_sin_nombre_39-4)"/><path d="M1686,794.5c1.7.9,2.2,2.2,1.3,3.9h-.4q-14.6,24.3-32.4,34.9c-7.9,4.8-15.8,7.4-23.4,7.7a58.9,58.9,0,0,1-13.2-2.1q-3-1.4-6-3a59.9,59.9,0,0,1-5.5-4.3c-3.4-3.1-7.9-9.8-13.2-20-2-3.1-3.7-4.7-5.2-4.7a9.4,9.4,0,0,0-4.2,1.3,15.2,15.2,0,0,0-4.7,3c-2.8,1.9-8.4,7.3-16.6,16.1a19.6,19.6,0,0,1-4.7,4.3,7,7,0,0,1-3.4,2.1l-3,.9a8.2,8.2,0,0,1-4.3-1.3,12.2,12.2,0,0,1-3.4-4.7,18.8,18.8,0,0,1-1.3-3.8c-.2-1.7-.5-3.8-.8-6.4,0-6-.1-9.5-.4-10.7a9.7,9.7,0,0,0-1.3-3.4,4.8,4.8,0,0,0-2.1-1.7l-.5-.4h-2.1l-5.1,1.3a58.2,58.2,0,0,0-9.8,5.1c-4.6,2.6-10.8,7.1-18.8,13.6-2.8,2.6-8.8,7.7-17.9,15.4-3.9,3.4-7.1,5.9-9.3,7.6a9.5,9.5,0,0,1-3,1.7,2.4,2.4,0,0,1-1.7.9,7.2,7.2,0,0,1-3.4.9,6.2,6.2,0,0,1-3.4-1.8l-.9-.8-.4-.4a3,3,0,0,0-.4-1.3,9.4,9.4,0,0,1-.5-3,18.9,18.9,0,0,1,.5-3.8,105.9,105.9,0,0,1,3.8-12c1.7-4.2,3.3-7.9,4.7-11,2.3-5.1,5-10.7,8.1-16.7q-3.5-3.3-.9-7.2a18.4,18.4,0,0,0,3.4-4.7l3.4-5.1c2.6-3.1,5-6.2,7.3-9.4s5-3.4,8.1-.8,2.8,3.8,1.7,6.4c-1.4,4.2-4.7,11.5-9.8,21.7l-10.7,20.9a10.5,10.5,0,0,0-1.2,2.3,21.2,21.2,0,0,1-1.5,2.8,8.2,8.2,0,0,0-1.3,2.3l-1.1,2.8c-1.4,2.8-2.4,5-3,6.4l6.9-4.7c3.9-2.5,10.2-7.2,18.7-14.1l18.8-14a93.5,93.5,0,0,1,10.2-7.3,26.3,26.3,0,0,1,5.9-2.9,10.4,10.4,0,0,1,3.9-.9h2.5a5.2,5.2,0,0,0,2.2.9,11.9,11.9,0,0,1,7.2,4.6,19.5,19.5,0,0,1,3.8,7.3,71.1,71.1,0,0,1,.9,12.8v6.4c1.1-.6,2.6-1.5,4.5-2.8s3.7-2.8,5.7-4.5l6.6-5.7c2.4-2.2,4.4-3.8,5.8-4.9a50.1,50.1,0,0,1,5.1-3.9,13.4,13.4,0,0,1,6.4-2.9,7.1,7.1,0,0,1,4.3-.5,14.8,14.8,0,0,1,4.2,1.7,24.1,24.1,0,0,1,5.6,4.7,106.6,106.6,0,0,1,7.2,10.2,43.5,43.5,0,0,0,6,8.6,20,20,0,0,0,7.2,6.4,22.6,22.6,0,0,0,9.8,3.4c6,.8,12.8-.9,20.5-5.1,12.2-6.9,22.3-17.9,30.2-33.3C1683.1,794.1,1684.3,793.7,1686,794.5Zm-134.2,30.3h0Z" transform="translate(-31.5 -433.6)" style="fill:url(#Degradado_sin_nombre_39-5)"/><path d="M1789.2,793.9c1.4,1.3,1.5,2.6.4,4a256.9,256.9,0,0,1-35.8,29.4,212.2,212.2,0,0,1-20,12.4,119.1,119.1,0,0,1-21.8,9,41.1,41.1,0,0,1-12.8,1.2,28.5,28.5,0,0,1-13.2-3.8,14.7,14.7,0,0,1-5.5-6.8,20.7,20.7,0,0,1-1.3-7.7,63.6,63.6,0,0,1,1.7-12.8c1.7-5.4,3.9-11.2,6.4-17.4-1.7.2-3,0-3.8-.9s-1.9-4-.4-6c5.9-7.3,11.3-14.2,16.1-20.4,2.6-3.1,5.4-3.6,8.6-1.3a5.5,5.5,0,0,1,2.5,5.5v.5c-.3,1.1-.7,2.5-1.3,4.2s-.7,1.6-1.2,3-1.3,3.3-2.2,5.6l-2.5,5.1a18.2,18.2,0,0,0-2.1,5.1c-4.3,9.4-7.2,16.2-8.6,20.4a47.5,47.5,0,0,0-2.1,9.4,12.1,12.1,0,0,0,.4,3.8,5.4,5.4,0,0,0,1.3,2.2c4.3,3.4,10.4,4.5,18.3,3.4a66.9,66.9,0,0,0,20.9-6.8,122.9,122.9,0,0,0,19.6-11.1,146.7,146.7,0,0,0,18.3-13.2,116.1,116.1,0,0,0,16.2-15.8C1786.5,792.7,1787.7,792.6,1789.2,793.9ZM1712,768.1c-2.5,1.4-4.5.9-5.9-1.7a4.1,4.1,0,0,1,.4-4.7l.4-.8a12.8,12.8,0,0,0,2.1-4.7,22.6,22.6,0,0,0,1.3-6,6.7,6.7,0,0,1,3-4.7,7.8,7.8,0,0,1,5.5-1.2,6.1,6.1,0,0,1,4.7,2.9,7.5,7.5,0,0,1,1.3,5.6,24.1,24.1,0,0,0-.8,2.5l-.5.5a67,67,0,0,1-4.7,6.4A30.2,30.2,0,0,1,1712,768.1Z" transform="translate(-31.5 -433.6)" style="fill:url(#Degradado_sin_nombre_39-6)"/><path d="M1881.8,796.7c1.6,1.1,1.8,2.5.7,4.2h-.5a116.6,116.6,0,0,1-15.3,15.8,78.2,78.2,0,0,1-18.3,11.9,69.1,69.1,0,0,1-21.3,6c-1.7.3-9,.8-21.8,1.7h-.8a28.8,28.8,0,0,1-1.3,11.1,36.4,36.4,0,0,1-3,5.9,47.4,47.4,0,0,1-4.2,5.2,23.5,23.5,0,0,1-6.4,3.8,12.7,12.7,0,0,1-9,0,9.1,9.1,0,0,1-4.2-3,22.6,22.6,0,0,1-2.2-4.7,19.7,19.7,0,0,1,.9-7.7,39.3,39.3,0,0,1,3.2-5.3,26.2,26.2,0,0,1,4.5-4.9,21.6,21.6,0,0,1,9.3-4.7c-.3-1.9-.7-4.1-1.2-6.4s-1.5-4.9-2.8-9.8l-3-11.2q-1-4.1-2.1-10.5a71.4,71.4,0,0,1,.6-23.8,79.1,79.1,0,0,1,3.8-11.1c3.5-8.3,8-14.8,13.7-19.6a34.5,34.5,0,0,1,11.1-6.4,6.5,6.5,0,0,0,2.1-.4h2.1a9.4,9.4,0,0,1,4.7,1.2,11.9,11.9,0,0,1,5.1,6.8,13.4,13.4,0,0,1,0,6.9,28.6,28.6,0,0,1-1.7,5.9,51.5,51.5,0,0,1-5.1,10.3,252.9,252.9,0,0,1-23.9,28.9,75.4,75.4,0,0,0,1.7,9.4c.3,1.4.8,3.1,1.3,4.9s1.1,3.6,1.5,5.1.9,3.4,1.3,5.3a29.5,29.5,0,0,0,1.5,5.2c.6,3.1,1,5.8,1.3,8.1l1.2-.5c10.6,0,17.5-.2,20.9-.8a67.5,67.5,0,0,0,20-5.3,75.4,75.4,0,0,0,17.5-11.3,156.8,156.8,0,0,0,14.1-15.4C1878.9,795.8,1880.3,795.5,1881.8,796.7Zm-91.2,50.7a19.5,19.5,0,0,0,1.7-3.6,14.1,14.1,0,0,0,.7-4.9,10.2,10.2,0,0,0-5.1,3.4c-.9,1.1-1.7,2.3-2.6,3.6a12.7,12.7,0,0,0-1.7,3.8,5.7,5.7,0,0,0,0,3.2h.9a2.4,2.4,0,0,0,1.2-.4,11.7,11.7,0,0,0,2.6-2.1A17,17,0,0,0,1790.6,847.4Zm5.4-74.2a31.4,31.4,0,0,0-1.3,9.4V786a122.7,122.7,0,0,0,20-25.1,36.7,36.7,0,0,0,4.3-9,26.3,26.3,0,0,0,.4-4.7,7.7,7.7,0,0,0-.8-3.8c-.3-.8-.8-1.3-1.3-1.3h-.9c-.3.3-.5.5-.8.5a33.5,33.5,0,0,0-6.8,5.5,42.1,42.1,0,0,0-10.3,15.8A50.3,50.3,0,0,0,1796,773.2Z" transform="translate(-31.5 -433.6)" style="fill:url(#Degradado_sin_nombre_39-7)"/><path d="M2024.4,795.4c1.4,1.1,1.7,2.4.8,3.8a99.8,99.8,0,0,1-24.7,24.7c-11.4,7.7-22.6,11.7-33.7,12a23.4,23.4,0,0,1-9.3-.9,28.4,28.4,0,0,1-9-4.2,26.5,26.5,0,0,1-11.9-15.4,52,52,0,0,1-2.2-17.9c-13,14.5-20.7,22.9-23,25.2a116.4,116.4,0,0,1-9.8,8.9,43.8,43.8,0,0,1-13.2,6.8,13.7,13.7,0,0,1-8.5,0,15.6,15.6,0,0,1-8.1-5.5,24.3,24.3,0,0,1-3-8.1,27.1,27.1,0,0,1-.4-4.7,16.9,16.9,0,0,0,.4-3.4c1.5-8.8,5.3-17.5,11.5-26a99.5,99.5,0,0,1,19.6-19.2,95,95,0,0,1,23.9-13.2,43.7,43.7,0,0,1,13.6-3.4,14.1,14.1,0,0,1,8.1,1.3,8.4,8.4,0,0,1,3.9,3.8,10.5,10.5,0,0,1,.4,5.1c-.3,1.7-1.4,2.5-3.4,2.2s-2.3-.9-2.6-2.6v-.4a1.7,1.7,0,0,0-.4-1.3c0-.3-.3-.6-.9-.8a9.5,9.5,0,0,0-4.2,0,37.1,37.1,0,0,0-11.1,4.2,110.3,110.3,0,0,0-20.9,13.2,112.3,112.3,0,0,0-16.6,17.9,51.6,51.6,0,0,0-9.8,20.9,17.8,17.8,0,0,1-.4,2.6v2.1a9.2,9.2,0,0,0,.8,3.8,10.6,10.6,0,0,0,2.6,2.6,14.8,14.8,0,0,0,3.8.4,35.6,35.6,0,0,0,10.7-4.3,67,67,0,0,0,9.8-7.6,126.9,126.9,0,0,0,30.7-40.9c2.2-3.2,4.9-3.6,8.1-1.3a5.6,5.6,0,0,1,2.1,6,76.3,76.3,0,0,0-3,15.7,39.5,39.5,0,0,0,.9,14.9,17,17,0,0,0,7.6,10.7,22.5,22.5,0,0,0,13.2,4.2c9.4,0,19.3-3.1,29.9-9.3a109.6,109.6,0,0,0,23.8-22.2C2021.6,794.4,2022.9,794.3,2024.4,795.4Z" transform="translate(-31.5 -433.6)" style="fill:url(#Degradado_sin_nombre_39-8)"/></svg>