<svg id="Capa_1" data-name="Capa 1" xmlns="http://www.w3.org/2000/svg" viewBox="0 0 443.1 445.1"><path d="M54,178.6h57.1a7.3,7.3,0,0,1,7.1,5.8l58.4,270.2a7.3,7.3,0,0,0,7.2,5.8H399.9" transform="translate(-48.5 -85.9)" style="fill:none;stroke:#000;stroke-linecap:round;stroke-miterlimit:10;stroke-width:11px"/><line x1="78.1" y1="137.2" x2="154.9" y2="137.2" style="fill:none;stroke:#000;stroke-linecap:round;stroke-miterlimit:10;stroke-width:11px"/><path d="M409.5,223.1h71.4a5.1,5.1,0,0,1,5.1,6.3L449.3,399.7a5.2,5.2,0,0,1-5.1,4.1H172.5" transform="translate(-48.5 -85.9)" style="fill:none;stroke:#000;stroke-linecap:round;stroke-miterlimit:10;stroke-width:11px"/><circle cx="149.6" cy="407.1" r="32.6" style="fill:none;stroke:#000;stroke-miterlimit:10;stroke-width:11px"/><circle cx="346.1" cy="407.1" r="32.6" style="fill:none;stroke:#000;stroke-miterlimit:10;stroke-width:11px"/><path d="M338.5,127.5c1.3,2.8,3,6.1,3.6,7.1l.5.7c17.1,18.7,9.3,33.5,9.3,33.5l-14.6,38.7a7.7,7.7,0,0,0,.7,6.9l75.3,120.9a3.5,3.5,0,0,1-1.3,5c-112.9,63.4-200,11.4-216.6.2a3.5,3.5,0,0,1-1-4.9l76.5-121.4a6.6,6.6,0,0,0,.6-5.8l-14.1-40.1-.2-.5c-7.8-14.5,4.4-27.2,6-28.8l.3-.3a44.1,44.1,0,0,0,6.8-12.1,3.5,3.5,0,0,1,5.5-1.7l26.1,19.2a3.5,3.5,0,0,0,4.1.1L333.2,126A3.6,3.6,0,0,1,338.5,127.5Z" transform="translate(-48.5 -85.9)"/><path d="M305.9,145s-47.3-24.8-47.7-47.6c0,0,3.3-27.5,46.4,19.4a1.5,1.5,0,0,0,2.3-.1c3.7-5.8,18.2-25.6,38.9-24a3.4,3.4,0,0,1,3.1,2.8C350.5,102.9,351.1,125.7,305.9,145Z" transform="translate(-48.5 -85.9)" style="fill:none;stroke:#000;stroke-linecap:round;stroke-miterlimit:10;stroke-width:7px"/></svg>