<svg id="Capa_1" data-name="Capa 1" xmlns="http://www.w3.org/2000/svg" xmlns:xlink="http://www.w3.org/1999/xlink" viewBox="0 0 2099.4 714.1"><defs><linearGradient id="Degradado_sin_nombre_39" x1="-32.99" y1="802.83" x2="2048.04" y2="778.06" gradientUnits="userSpaceOnUse"><stop offset="0" stop-color="#fff9de"/><stop offset="1" stop-color="#464ca3"/></linearGradient><linearGradient id="Degradado_sin_nombre_39-2" x1="-32.46" y1="847.65" x2="2048.57" y2="822.88" xlink:href="#Degradado_sin_nombre_39"/><linearGradient id="Degradado_sin_nombre_39-3" x1="-32.46" y1="847.9" x2="2048.58" y2="823.12" xlink:href="#Degradado_sin_nombre_39"/><linearGradient id="Degradado_sin_nombre_39-4" x1="-32.28" y1="862.42" x2="2048.75" y2="837.65" xlink:href="#Degradado_sin_nombre_39"/><linearGradient id="Degradado_sin_nombre_39-5" x1="-32.2" y1="869.05" x2="2048.83" y2="844.27" xlink:href="#Degradado_sin_nombre_39"/><linearGradient id="Degradado_sin_nombre_39-6" x1="-32.35" y1="856.87" x2="2048.68" y2="832.1" xlink:href="#Degradado_sin_nombre_39"/><linearGradient id="Degradado_sin_nombre_39-7" x1="-32.46" y1="847.77" x2="2048.58" y2="822.99" xlink:href="#Degradado_sin_nombre_39"/><linearGradient id="Degradado_sin_nombre_39-8" x1="-32.34" y1="857.74" x2="2048.69" y2="832.96" xlink:href="#Degradado_sin_nombre_39"/></defs><path d="M1245,432.7c2.9-.3,4.4,1,4.7,3.8a4.5,4.5,0,0,1-3.9,4.8,127.3,127.3,0,0,0-46.9,15.1c-5.5,2.8-12.5,7.3-21.1,13.3l-10,7.8c-.2.3-1.6,1.4-4,3.4a51,51,0,0,0-5.4,4.8q-32.9,29.7-64.2,78-24.6,38.4-49.2,89.2-19.4,40.1-40.5,93.9-16.8,43.2-32.3,91c16.9,1.7,32.2,2.5,45.7,2.5,32.4,0,62.8-5.1,90.9-15.5,2.9-.8,4.7,0,5.6,2.6s0,4.5-2.6,5.6q-42.1,17.7-93.5,19.4a383.2,383.2,0,0,1-50.4-1.7q-13.8,44.4-26.7,91.3t-24.6,100c-8,36.2-14.1,69.8-18.1,100.9-.6,2.8-2.3,4.1-5.2,3.8s-3.7-1.8-3.4-4.7q7.8-86.2,36.6-203.8,6.9-27.6,12.9-50c3.5-11.8,7.4-24.9,11.7-39.2l-28-3.9q-24.1-3.9-68.3-12.5c-29.5-5.8-50.2-9.6-62.3-11.7-11.5,28.8-23,54.6-34.5,77.6q-24.2,47.8-50,81.9a296.5,296.5,0,0,1-32.3,36.2,249.2,249.2,0,0,1-37.9,30.6,191.3,191.3,0,0,1-44.4,21.1,178.5,178.5,0,0,1-47.8,9.9c-8.4.6-16.6.7-24.6.5a94.8,94.8,0,0,1-66.4-31.5,98.3,98.3,0,0,1-13.3-21.1,113.2,113.2,0,0,1-7.3-23.3,108.5,108.5,0,0,1-2.6-24.6,152.8,152.8,0,0,1,1.7-24.1c1.1-8.3,2.6-16.2,4.3-23.7s4.5-14.8,7.3-22.8a159.7,159.7,0,0,1,24.2-42.7,148.7,148.7,0,0,1,35.7-33.6,176.8,176.8,0,0,1,43.6-22.4q40.5-14.2,95.2-16.8a605.1,605.1,0,0,1,95.7,4.3c13.2,1.7,27.3,3.7,42.2,6,10-25.8,20.4-54.6,31-86.2q29-84.5,30.8-89.4c1.3-3.3,2.7-6.8,4.1-10.5a394.4,394.4,0,0,1-71.9,20.6q-43.9,8.3-95.7,6.9-44.4-1.2-95.2-10.7-38.9-6.9-92.7-21.2l-29.9-8.1q-20.6-5.7-31.5-8.4L401,588l-31.5-7.5q-13-3-29.7-6.3t-31.2-5.4c-35.1-5.1-66.1-7.3-93.1-6.4-33.1.8-63.5,6-91.4,15.5q-47.4,16.4-77.6,48.3a132.8,132.8,0,0,0-25.8,37.9A113,113,0,0,0,9.9,708a106.5,106.5,0,0,0,6.9,44.6,109.2,109.2,0,0,0,23.7,37.8A96,96,0,0,0,78,813.6a99.8,99.8,0,0,0,15.1,4.3c-6.6-5.7-12.8-13.3-18.5-22.8a6.9,6.9,0,0,1-1.1-6.5,9.7,9.7,0,0,1,4.1-5.4,7.6,7.6,0,0,1,6.4-1,9.1,9.1,0,0,1,5.6,3.8,1.6,1.6,0,0,0,.5,1.3c3.7,9.2,8,16.6,12.9,22s11.2,9.4,18.1,10.8h.4a9.2,9.2,0,0,1,6.5,2.4,7.8,7.8,0,0,1,2.6,6,8.8,8.8,0,0,1-2.4,6.2,9,9,0,0,1-5.8,3.1h-.9c-18.4-1.2-34.6-4.8-48.7-10.8-16.3-7.2-29.9-16.8-40.5-28.9a116.8,116.8,0,0,1-25-42.2A122.1,122.1,0,0,1,.9,707.6a129,129,0,0,1,11.6-47.4,161.3,161.3,0,0,1,27.6-40.1A185.4,185.4,0,0,1,77.6,590a236.1,236.1,0,0,1,43.5-20.7C148.7,559.2,180,553.5,215,552q41.4-2.1,95.3,4.8c12,1.7,24.1,3.6,36.2,5.8s25.4,4.8,40.1,8,26,5.7,34.2,7.7l39.4,9.9q27.2,6.9,35.4,8.7c38.2,9.4,68.8,16.2,91.8,20.2,33.9,5.8,64.8,8.9,92.6,9.5a440,440,0,0,0,46.1-1.3c15.3-.9,30.6-2.4,46.1-4.7a400.3,400.3,0,0,0,45.7-9.1,341.2,341.2,0,0,0,35.4-10.8c2.5-6.9,4.8-12.9,6.9-18.1a428.4,428.4,0,0,1,20.6-43.5,197.6,197.6,0,0,1,13-20.7A124.4,124.4,0,0,1,909.3,499,72.8,72.8,0,0,1,930,483.5a51.5,51.5,0,0,1,25.8-6,40.5,40.5,0,0,1,13.4,3,22.2,22.2,0,0,1,11.2,10.3,25.3,25.3,0,0,1,1.7,14.7,52,52,0,0,1-3.9,12.9c-3.1,6.4-7.9,13.1-14.2,20.3-5.2,5.4-10.9,11-17.2,16.8q-31.9,28.8-76.7,50.4c-2.6,7.5-5.9,16.5-9.9,27.2s-12.5,35-27,76.7-26,73.7-34.7,96.1c10.9,1.7,22.4,3.8,34.5,6.4q78,16.5,92.2,19c10.4,1.7,20.4,3.3,30.2,4.7q14.3-46.5,32.7-95.2,43.2-111.6,93.1-185.7,33.1-49.2,68.1-79.3a201.8,201.8,0,0,1,44.4-29.3A130.6,130.6,0,0,1,1245,432.7ZM742.5,890.3q15.9-31.3,32.3-71.9c-13.5-2.3-26-4.1-37.5-5.2q-50.8-5.6-93-3.9c-34.2,1.5-64.4,6.6-90.5,15.5a209.3,209.3,0,0,0-41,19,146.4,146.4,0,0,0-34,29.3,142.7,142.7,0,0,0-24.6,38.3,181.4,181.4,0,0,0-12.5,44c-2.6,16.4-2.3,31.6.9,45.7a83,83,0,0,0,19.6,39.4,74.4,74.4,0,0,0,37.3,22.6,86.5,86.5,0,0,0,21.9,2.6,163.7,163.7,0,0,0,22.9-1.7,191,191,0,0,0,84-31.5,256.9,256.9,0,0,0,34.9-28.8,328.7,328.7,0,0,0,30.6-34.5Q719.8,935.6,742.5,890.3Zm153-343.4q-9.4,18.9-19.4,44.4c24.4-11.5,46-25.6,64.6-42.3a194.7,194.7,0,0,0,16.4-16.4c5.8-6.6,9.9-12.7,12.5-18.5,3.5-7.4,3.9-13.5,1.3-18.1s-7.5-6.7-15.5-6.4a37.1,37.1,0,0,0-19.4,5.6c-5.5,3.1-10.9,7.7-16.4,13.7C911.6,518.1,903.5,530.8,895.5,546.9Z" transform="translate(-0.6 -432.6)" style="fill:url(#Degradado_sin_nombre_39)"/><path d="M1251.4,832.2c1.5,1.1,1.8,2.4.9,3.8a102.2,102.2,0,0,1-25,25c-11.5,7.8-22.8,11.8-34,12.1a24.5,24.5,0,0,1-9.5-.9,28.1,28.1,0,0,1-9.1-4.3,26.9,26.9,0,0,1-12-15.5,50.8,50.8,0,0,1-2.2-18.1c-13.2,14.7-21,23.1-23.3,25.4a106.3,106.3,0,0,1-9.9,9.1,48.5,48.5,0,0,1-13.3,6.9,15.7,15.7,0,0,1-16.8-5.6,20.6,20.6,0,0,1-3-8.2,28,28,0,0,1-.5-4.8,17.4,17.4,0,0,0,.5-3.4c1.4-8.9,5.3-17.7,11.6-26.3a101.5,101.5,0,0,1,19.8-19.4,92.1,92.1,0,0,1,24.1-13.3,45.2,45.2,0,0,1,13.8-3.5,14.3,14.3,0,0,1,8.2,1.3,9.2,9.2,0,0,1,3.9,3.9,9.6,9.6,0,0,1,.4,5.2c-.3,1.7-1.4,2.4-3.4,2.1s-2.3-.9-2.6-2.6v-.4a1.7,1.7,0,0,0-.4-1.3q0-.4-.9-.9a14.9,14.9,0,0,0-4.3,0,43.4,43.4,0,0,0-11.2,4.3,118.3,118.3,0,0,0-21.1,13.4,114.9,114.9,0,0,0-16.8,18.1c-5.2,6.9-8.5,13.9-9.9,21.1a24.1,24.1,0,0,1-.5,2.6v2.2a7.9,7.9,0,0,0,.9,3.8,9.1,9.1,0,0,0,2.6,2.6,14.8,14.8,0,0,0,3.9.5,33.7,33.7,0,0,0,10.7-4.4,63.6,63.6,0,0,0,9.9-7.7,127.5,127.5,0,0,0,31.1-41.4c2.3-3.1,5-3.6,8.2-1.3a5.5,5.5,0,0,1,2.1,6.1,78,78,0,0,0-3,15.9,40.6,40.6,0,0,0,.9,15.1,17.3,17.3,0,0,0,7.7,10.8,23,23,0,0,0,13.4,4.3c9.5,0,19.5-3.2,30.1-9.5a110,110,0,0,0,24.2-22.4C1248.7,831.1,1250,831,1251.4,832.2Z" transform="translate(-0.6 -432.6)" style="fill:url(#Degradado_sin_nombre_39-2)"/><path d="M1369.3,832.4c1.6,1,1.9,2.2,1.1,3.6v.5a217.8,217.8,0,0,1-39.7,44.3,187,187,0,0,1-24.1,18.1,124.8,124.8,0,0,1-27.6,12.5,45.6,45.6,0,0,1-15.9,2.2,16.4,16.4,0,0,1-8.6-2.2,11.5,11.5,0,0,1-4.4-3l-1.7-1.7a7.7,7.7,0,0,1-.6-1.5,4.1,4.1,0,0,0-.7-1.1,18.9,18.9,0,0,1-.8-9.9,28.3,28.3,0,0,1,2.1-8.2,105.2,105.2,0,0,1,6.9-14.2c1.7-2.9,4.3-7.1,7.8-12.7s6-9.7,7.7-12.3a52.6,52.6,0,0,1,3.1-6c.8-2.3,1.4-4,1.7-5.2h-3.5a12.4,12.4,0,0,0-3,.4,25.7,25.7,0,0,1-3.9.5l-7.7.8a68.9,68.9,0,0,1-16.4-1.7,29.2,29.2,0,0,1-8.6-3,18.9,18.9,0,0,1-7.8-6.5,16,16,0,0,1-3.4-11.2,37.5,37.5,0,0,1,1.7-8.6c2.9-8.9,8.3-18.1,16.4-27.6a141.8,141.8,0,0,1,23.2-20.2,79.1,79.1,0,0,1,6.9-4.3l4.4-1.8,4.7-1.3a24.1,24.1,0,0,1,9.9,1.3,16.8,16.8,0,0,1,8.2,7.4,17.4,17.4,0,0,1,1.7,9.4,34.5,34.5,0,0,1-2.1,8.7,90.1,90.1,0,0,1-8.7,13.3c-2.5,3.2-12.3,14.2-29.3,33.2a35.6,35.6,0,0,1,5.2-.4,19.4,19.4,0,0,1,3.5-.7l4.3-.6h4.7a13.7,13.7,0,0,1,5.6,1.7,10.2,10.2,0,0,1,6,6,17.1,17.1,0,0,1,.5,6.9,69.6,69.6,0,0,1-3,8.6,41.8,41.8,0,0,1-3.9,6.9c-1.7,3.2-4.4,7.5-8,13s-6.2,9.4-8,12c-2.8,4.9-5,8.9-6.4,12.1-2,4.9-2.9,8.5-2.6,10.8s3.1,4.6,7.7,5.1a29.3,29.3,0,0,0,13.4-.4c7.8-1.7,16.7-5.4,26.7-11.2a162,162,0,0,0,23.5-16.8,214.7,214.7,0,0,0,20.9-20.7,185.6,185.6,0,0,0,16.8-23.7A2.8,2.8,0,0,1,1369.3,832.4Zm-134.2-14c1.4,2,4.4,3.6,9,4.7a26,26,0,0,0,7.3.9c4.9-4.9,9.2-9.5,13-13.8a254.3,254.3,0,0,0,18.9-22.4,33.5,33.5,0,0,0,6.1-12.5c1.1-4.6.7-8.1-1.3-10.4s-4.5-2.7-8.2-2.1a6.9,6.9,0,0,0-2.2.4,9.1,9.1,0,0,1-2.6,1.3c-1.7,1.1-3.6,2.4-5.6,3.9a111.6,111.6,0,0,0-20.6,18.5c-6.9,8.3-11.4,16.1-13.4,23.3a22.1,22.1,0,0,0-1.3,5.6A4.8,4.8,0,0,0,1235.1,818.4Z" transform="translate(-0.6 -432.6)" style="fill:url(#Degradado_sin_nombre_39-3)"/><path d="M1578.5,831.3c1.7.9,2.2,2.1,1.3,3.9h-.4q-14.7,24.4-32.8,35.3-12,7.3-23.7,7.8a54.2,54.2,0,0,1-13.3-2.2c-2-.9-4.1-1.9-6.1-3s-3.6-2.6-5.6-4.3-7.9-9.9-13.3-20.3c-2-3.1-3.8-4.7-5.2-4.7a9.7,9.7,0,0,0-4.3,1.3,20.1,20.1,0,0,0-4.7,3c-2.9,2-8.5,7.5-16.8,16.4a24.8,24.8,0,0,1-4.8,4.3,7,7,0,0,1-3.4,2.1l-3.1.9a8.2,8.2,0,0,1-4.3-1.3,12.2,12.2,0,0,1-3.4-4.7,16.3,16.3,0,0,1-1.3-3.9c-.3-1.7-.6-3.9-.9-6.5,0-6-.1-9.6-.4-10.8a9.7,9.7,0,0,0-1.3-3.4,4.2,4.2,0,0,0-2.1-1.7l-.5-.5H1426l-5.2,1.3a68.9,68.9,0,0,0-9.9,5.2c-4.6,2.6-10.9,7.2-19,13.8-2.8,2.6-8.9,7.8-18.1,15.5-4,3.5-7.2,6-9.5,7.8a11.7,11.7,0,0,1-3,1.7,2.2,2.2,0,0,1-1.7.9,8.4,8.4,0,0,1-3.4.8,6.4,6.4,0,0,1-3.5-1.7l-.9-.9-.4-.4a3,3,0,0,0-.4-1.3,9.5,9.5,0,0,1-.4-3,19.1,19.1,0,0,1,.4-3.9,91.7,91.7,0,0,1,3.9-12.1c1.7-4.3,3.3-8,4.7-11.2,2.3-5.1,5-10.7,8.2-16.8-2.3-2.3-2.6-4.7-.9-7.3a21.2,21.2,0,0,0,3.5-4.7l3.4-5.2c2.6-3.2,5.1-6.3,7.4-9.5s5-3.4,8.1-.8a4.8,4.8,0,0,1,1.8,6.4c-1.5,4.3-4.8,11.7-9.9,22l-10.8,21.1a10.8,10.8,0,0,0-1.3,2.4,21.2,21.2,0,0,1-1.5,2.8,8.9,8.9,0,0,0-1.3,2.4c-.4,1-.8,1.9-1.1,2.8-1.4,2.8-2.4,5-3,6.4l6.9-4.7c4-2.6,10.3-7.3,18.9-14.2l19-14.3a103.8,103.8,0,0,1,10.4-7.3,30.3,30.3,0,0,1,6-3,10,10,0,0,1,3.9-.9h2.5a5.9,5.9,0,0,0,2.2.9,12.4,12.4,0,0,1,7.3,4.7,20.2,20.2,0,0,1,3.9,7.4,71.6,71.6,0,0,1,.9,12.9v6.5l4.5-2.8a55.4,55.4,0,0,0,5.8-4.6l6.7-5.8,5.8-4.9a27.9,27.9,0,0,1,5.2-3.9,14.7,14.7,0,0,1,6.4-3,7.5,7.5,0,0,1,4.4-.5,14.1,14.1,0,0,1,4.3,1.8,21.9,21.9,0,0,1,5.6,4.7c1.7,2,4.1,5.5,7.3,10.3a44.9,44.9,0,0,0,6,8.7,19.7,19.7,0,0,0,7.4,6.4,21.5,21.5,0,0,0,9.9,3.5c6,.8,12.9-.9,20.6-5.2q18.6-10.4,30.6-33.6C1575.5,830.9,1576.8,830.4,1578.5,831.3Zm-135.7,30.6h0Z" transform="translate(-0.6 -432.6)" style="fill:url(#Degradado_sin_nombre_39-4)"/><path d="M1705.2,831.7c1.4,1.2,1.6,2.5.4,3.9a85.3,85.3,0,0,1-11.6,11.2,53,53,0,0,1-14.6,7.8,38.6,38.6,0,0,1-31.9-1.8q-8.2-3.4-25.5-18.9l-.4-.5-.4-.4c.3,2,.6,4,.8,6a86.8,86.8,0,0,1,0,12.5,52.6,52.6,0,0,1-6.9,23.3,36.5,36.5,0,0,1-8.1,9.9,28,28,0,0,1-12.5,6.5,23.5,23.5,0,0,1-7.4-.4,17.8,17.8,0,0,1-7.3-2.6,28.4,28.4,0,0,1-9-10.8c-3.8-7.2-5.1-15.8-3.9-25.9a69.7,69.7,0,0,1,6.9-23.7,66.3,66.3,0,0,1,6.9-10.7,28.1,28.1,0,0,1,5.1-4.8,18.8,18.8,0,0,1,7.8-3.8l.9.4a4.8,4.8,0,0,1,5.6,0l2.5,1.3a3.4,3.4,0,0,0,1.6.8,4.9,4.9,0,0,1,1.5.9,35.2,35.2,0,0,1,5.6,3.9,47.7,47.7,0,0,1,4.3,5.1,82.7,82.7,0,0,1,9.9,9.1c10,9.8,17.9,16.1,23.7,19a35.1,35.1,0,0,0,28.9,1.3,38.9,38.9,0,0,0,12.5-7.4,60.1,60.1,0,0,0,10.7-10.7C1702.5,830.7,1703.8,830.6,1705.2,831.7Zm-90.5,19c.9-8.3-.1-15.1-3-20.3a22.6,22.6,0,0,0-6.5-6.9,11.3,11.3,0,0,0-3.8-2.1,10.8,10.8,0,0,1-2.6-.9h-1.3a13.3,13.3,0,0,0-.9,3.5,31,31,0,0,1-5.2,8.2,34.3,34.3,0,0,1-6.9,6.8,6.5,6.5,0,0,0-2.5,1.8,51.1,51.1,0,0,0-3.5,12.5c-.8,7.4-.1,13.8,2.2,18.9s7,9.4,12.5,9.1a18.5,18.5,0,0,0,8.2-3.5,25.6,25.6,0,0,0,6.9-7.3A41.8,41.8,0,0,0,1614.7,850.7Zm-24.5-25.9a39,39,0,0,0-5.2,7.8,21.3,21.3,0,0,0,3-3,37.6,37.6,0,0,0,3-5.6h-.4Zm0-8.6-1.3-.9Z" transform="translate(-0.6 -432.6)" style="fill:url(#Degradado_sin_nombre_39-5)"/><path d="M1851.7,835.6h-.4a126.5,126.5,0,0,1-9.9,13.4,78.9,78.9,0,0,1-12.5,11.6,53.2,53.2,0,0,1-15.1,7.8,47.6,47.6,0,0,1-17.2,2.1,35.4,35.4,0,0,1-17.3-5.2,39.2,39.2,0,0,1-12.9-12.5,139.1,139.1,0,0,1-8.2-15c-1.7-3.5-2.9-5.6-3.4-6.5a14.2,14.2,0,0,0-1.8-2.2l-.4-.4h-.4l.4-.4a.9.9,0,0,0-.8.4l-3.1,1.3a35.5,35.5,0,0,0-6.4,3.9,104.3,104.3,0,0,0-12.5,9.9c-2,1.7-5.9,5.6-11.7,11.6s-9.7,10.7-11.2,12.1a7.1,7.1,0,0,1-2.1,1.7,1.8,1.8,0,0,0-.9.4h-.8a1,1,0,0,1-1.3,0,3.2,3.2,0,0,1-1.3-.8,2.7,2.7,0,0,1-1.3-1.3v-.9a9.6,9.6,0,0,1,.4-2.1l1.3-4.3c.9-2.6,1.7-5.2,2.6-7.8,2.3-7.5,3.7-12.6,4.3-15.5,3.4-11.5,6.2-22,8.2-31.5l10.8,3.9c-2.3,5.5-4.2,9.5-5.6,12.1a40.9,40.9,0,0,1-3.5,6.4l-3.9,5.6c-2.3,3.2-5,3.7-8.2,1.6s-3.5-4.9-1.2-8l3.4-5.6a23.6,23.6,0,0,0,3-5.2c1.2-2.3,2.9-6.2,5.2-11.6l.4-.5c1.5-3.4,3.9-4.4,7.3-3s4.6,3.9,3.5,7.4c-3.2,8.3-7.1,18.6-11.6,31L1710,855l-3.1,7.7-1.3,3.5v-.4l-.4-.5a1.6,1.6,0,0,0-.6-1.3,3.7,3.7,0,0,0-1.1-.4h-1.7l.8-.9c1.5-1.1,5.2-4.8,11.2-11.2l3.9-3.8,4.1-4.3a47.4,47.4,0,0,1,3.7-3.9l4.9-5.4,6.3-7.1c2.6-2.6,4.7-4.6,6.4-6.1a48.5,48.5,0,0,1,4.3-2.5l3.1-.9a10.4,10.4,0,0,1,4.3,0,10.9,10.9,0,0,1,6.4,3.4,16.4,16.4,0,0,1,3.1,4.4,57.4,57.4,0,0,1,4.3,7.7q5.6,14.3,6,14.7c2.6,5.1,5.6,9,9,11.6a26.5,26.5,0,0,0,13.4,5.2,40.4,40.4,0,0,0,28.9-7.8,81,81,0,0,0,11.6-11.2,113,113,0,0,0,9.1-12.9c.8-1.7,2.1-2.1,3.8-1.1S1852.6,833.9,1851.7,835.6Z" transform="translate(-0.6 -432.6)" style="fill:url(#Degradado_sin_nombre_39-6)"/><path d="M1955.6,830.6c1.4,1.3,1.6,2.7.4,4.1a258.2,258.2,0,0,1-36.2,29.8,224.6,224.6,0,0,1-20.2,12.5,116.2,116.2,0,0,1-22,9,39.3,39.3,0,0,1-12.9,1.3,30.3,30.3,0,0,1-13.4-3.9,14.1,14.1,0,0,1-5.6-6.9,20.7,20.7,0,0,1-1.3-7.7,63.5,63.5,0,0,1,1.7-12.9c1.8-5.5,3.9-11.4,6.5-17.7a4.2,4.2,0,0,1-3.9-.9c-1.7-2-1.9-4-.4-6,6-7.5,11.5-14.4,16.4-20.7,2.5-3.2,5.4-3.6,8.6-1.3a5.9,5.9,0,0,1,2.6,5.6v.4c-.3,1.2-.8,2.6-1.3,4.4a15.8,15.8,0,0,0-1.3,3c-.6,1.4-1.3,3.3-2.2,5.6l-2.6,5.1a34.6,34.6,0,0,0-2.1,5.2c-4.3,9.5-7.2,16.4-8.6,20.7a41.5,41.5,0,0,0-2.2,9.5,17.9,17.9,0,0,0,.4,3.9,7.4,7.4,0,0,0,1.3,2.1c4.3,3.5,10.5,4.6,18.6,3.5a69.2,69.2,0,0,0,21.1-6.9,121.9,121.9,0,0,0,19.8-11.2,158.9,158.9,0,0,0,18.5-13.4,131.2,131.2,0,0,0,16.4-15.9C1952.9,829.4,1954.1,829.4,1955.6,830.6Zm-84-35.9a2.5,2.5,0,0,1-1.8-3.1,52.3,52.3,0,0,1,3-8.1l4.4-6.9a68.8,68.8,0,0,1,5.1-6.9,33.5,33.5,0,0,1,7.8-6.1l.8-.4c3.8-1.4,6.4-.4,8,3.2s.5,6.1-3.2,7.6a3.8,3.8,0,0,1-1.7.4,16.6,16.6,0,0,0-4.8,2.6c-1.7,1.4-3.4,3-5.1,4.7a41.9,41.9,0,0,0-4.8,5.6,42.9,42.9,0,0,0-3.9,6.1C1874.6,795.1,1873.3,795.5,1871.6,794.7Z" transform="translate(-0.6 -432.6)" style="fill:url(#Degradado_sin_nombre_39-7)"/><path d="M2098.7,832.2c1.4,1.1,1.7,2.4.8,3.8a102.2,102.2,0,0,1-25,25c-11.5,7.8-22.8,11.8-34,12.1a24.5,24.5,0,0,1-9.5-.9,32.4,32.4,0,0,1-21.1-19.8,50.8,50.8,0,0,1-2.2-18.1c-13.2,14.7-20.9,23.1-23.2,25.4a120,120,0,0,1-10,9.1,47.2,47.2,0,0,1-13.3,6.9,15.7,15.7,0,0,1-16.8-5.6,20.6,20.6,0,0,1-3-8.2,28,28,0,0,1-.5-4.8,17.4,17.4,0,0,0,.5-3.4c1.4-8.9,5.3-17.7,11.6-26.3a101.5,101.5,0,0,1,19.8-19.4,91,91,0,0,1,24.2-13.3,43.9,43.9,0,0,1,13.7-3.5,14.3,14.3,0,0,1,8.2,1.3,8.2,8.2,0,0,1,3.9,3.9,9.6,9.6,0,0,1,.4,5.2c-.2,1.7-1.4,2.4-3.4,2.1s-2.3-.9-2.6-2.6v-.4a1.7,1.7,0,0,0-.4-1.3q0-.4-.9-.9a14.8,14.8,0,0,0-4.3,0,43.4,43.4,0,0,0-11.2,4.3,118.3,118.3,0,0,0-21.1,13.4,114.9,114.9,0,0,0-16.8,18.1c-5.2,6.9-8.5,13.9-9.9,21.1a24.1,24.1,0,0,1-.5,2.6v2.2a7.9,7.9,0,0,0,.9,3.8,9.1,9.1,0,0,0,2.6,2.6,14.8,14.8,0,0,0,3.9.5,33.7,33.7,0,0,0,10.7-4.4,63.6,63.6,0,0,0,9.9-7.7,126.1,126.1,0,0,0,31.1-41.4c2.3-3.1,5-3.6,8.2-1.3a5.5,5.5,0,0,1,2.1,6.1,78,78,0,0,0-3,15.9,40.6,40.6,0,0,0,.9,15.1,17.3,17.3,0,0,0,7.7,10.8,23,23,0,0,0,13.4,4.3c9.5,0,19.5-3.2,30.1-9.5a110,110,0,0,0,24.2-22.4C2095.9,831.1,2097.2,831,2098.7,832.2Z" transform="translate(-0.6 -432.6)" style="fill:url(#Degradado_sin_nombre_39-8)"/></svg>