<svg id="Capa_1" data-name="Capa 1" xmlns="http://www.w3.org/2000/svg" xmlns:xlink="http://www.w3.org/1999/xlink" viewBox="0 0 1758.2 953.2"><defs><linearGradient id="Degradado_sin_nombre_39" x1="80.68" y1="800.26" x2="1777.71" y2="800.26" gradientUnits="userSpaceOnUse"><stop offset="0" stop-color="#fff9de"/><stop offset="1" stop-color="#464ca3"/></linearGradient><linearGradient id="Degradado_sin_nombre_39-2" x1="80.68" y1="769.38" x2="1777.71" y2="769.38" xlink:href="#Degradado_sin_nombre_39"/><linearGradient id="Degradado_sin_nombre_39-3" x1="80.68" y1="885.94" x2="1777.71" y2="885.94" xlink:href="#Degradado_sin_nombre_39"/><linearGradient id="Degradado_sin_nombre_39-4" x1="80.68" y1="748.95" x2="1777.71" y2="748.95" xlink:href="#Degradado_sin_nombre_39"/><linearGradient id="Degradado_sin_nombre_39-5" x1="80.68" y1="886.18" x2="1777.71" y2="886.18" xlink:href="#Degradado_sin_nombre_39"/></defs><path d="M1026.5,341.8c4.6,7.8,6,16.6,4.1,26.7-2.7,13.6-10.2,28-22.5,43A289.2,289.2,0,0,1,976,445a204.6,204.6,0,0,1-38.3,27.3,214.6,214.6,0,0,1-43,19.8,273.5,273.5,0,0,1-30.7,8.2c-4.6,10.9-8.4,20.9-11.6,30q-13,34.2-59.5,170.8-24.4,71.7-41.3,117.1T707.2,925.8q-27.6,62.1-56.3,112-53.2,90.9-113.4,146.2-36.2,33.4-76.5,54.6a309.7,309.7,0,0,1-88.8,32.1,264,264,0,0,1-47.1,5.5c-8.7.4-16.4.7-23.2.7a184.5,184.5,0,0,1-24.6-2.1,203.3,203.3,0,0,1-88.1-38.2q-40.3-29.4-59.5-74.5t-13.6-94.2q5.4-48.6,27.3-89.5a235.5,235.5,0,0,1,58.1-73.8,250,250,0,0,1,81.9-45.1c28.2-9.1,58.8-13.6,91.5-13.6q6.9,0,6.9,7.5c0,4.1-2.3,6.4-6.9,6.8q-46.3.8-86.7,14.4a219,219,0,0,0-75.1,43,234.5,234.5,0,0,0-76.5,152.3q-4.8,44.4,13,83.3t53.9,64.2a181.5,181.5,0,0,0,77.9,32.1c8.6.9,15.4,1.4,20.5,1.4a118.2,118.2,0,0,0,21.8-.7,319.6,319.6,0,0,0,43-5.4q83.4-17.1,151.7-81.3,56.7-52.6,107.2-140.7,36.9-64.9,76.5-161.9,25.2-62.1,62.8-169.4,47.9-137.2,60.8-171.4c2.3-5,4.4-10,6.2-15a358.4,358.4,0,0,1-75.8-1.4,695.8,695.8,0,0,1-90.9-17.1q-21.9-5.4-87.4-25.3c-37.8-11.3-66.5-18.2-86.1-20.4-16.4-2.3-30.7-2.3-43,0A74.2,74.2,0,0,0,397.5,473a136.9,136.9,0,0,0-10.9,18.4,82,82,0,0,0-6.2,41c.9,13.6,5.7,26.4,14.4,38.2s19.1,18.5,32.7,23.9a101.6,101.6,0,0,0,40.3,6.9,78.6,78.6,0,0,0,13.7-1.4,14.7,14.7,0,0,1-5.5-2.1c-11.4-4.5-21.8-11.8-31.4-21.8a12.1,12.1,0,0,1-3.7-9.9,14.6,14.6,0,0,1,4.4-9.9,12.2,12.2,0,0,1,9.9-3.8,12.4,12.4,0,0,1,9.2,4.5,4.5,4.5,0,0,1,2.1,2,67.5,67.5,0,0,0,19.1,20.5q10.9,8.3,27.3,10.2a8.8,8.8,0,0,1,4.8,3.5,14.5,14.5,0,0,1,9.6,8.8,12.7,12.7,0,0,1-.7,10.6,15.6,15.6,0,0,1-8.2,7.2,4.6,4.6,0,0,0-2.1.7c-17.7,2.7-33.9,3.6-48.5,2.7A134.3,134.3,0,0,1,420,610.9a100.3,100.3,0,0,1-37.5-31.4,97.7,97.7,0,0,1-11-21.9,75.5,75.5,0,0,1-5.4-23.9,94.2,94.2,0,0,1,8.2-47.8,106,106,0,0,1,28-39.6,98.7,98.7,0,0,1,20.5-13.6,84.8,84.8,0,0,1,22.5-8.2c13.7-3.2,29.6-4.4,47.8-3.5q33.4,2.1,91.5,15.8c8.7,2.2,18,4.7,28,7.5l32.1,8.5,27.4,7.2q64.2,16.3,86.7,19.8c29.1,4.5,56.5,5.7,82,3.4q11.6-26.7,22.5-47.1,25.2-48.6,53.3-77.2c12.3-12.8,25.2-22.1,38.9-28a73.3,73.3,0,0,1,23.9-6.8,63.9,63.9,0,0,1,25.3,2C1014.7,328.4,1022,333.6,1026.5,341.8Zm-9.5,24.6c1.3-7.3.7-13.2-2.1-17.8s-7.3-7.7-13.6-9.5a59.7,59.7,0,0,0-20.5-.7,63.4,63.4,0,0,0-19.1,6.1c-11,5.1-21.7,13.9-32.1,26.7-13.7,16.4-28.3,41.6-43.8,75.8-4.1,9.1-8.4,19.6-12.9,31.4,5.9-1.3,11.3-2.7,16.4-4.1a221.2,221.2,0,0,0,40.9-16.4q36.9-19,67-55.3C1008.1,389.4,1014.7,377.3,1017,366.4Z" transform="translate(-114.6 -323.7)" style="fill:url(#Degradado_sin_nombre_39)"/><path d="M1144,532.4q4.8,11,4.8,27.3a118.3,118.3,0,0,1-3.4,26c-1.9,6.8-4.4,14.8-7.5,23.9a359.7,359.7,0,0,1-19.2,45q-17.7,34.9-49.1,84-27.4,41.7-56,80-15.7,21.1-30.1,38.2c-2.7,3.2-6.8,7.8-12.3,13.7-3.6,20-6.4,38.2-8.2,54.6-.4,8.2-.7,16-.7,23.2a103,103,0,0,0,2.1,21.9c3.2,16.8,10,27.5,20.5,32.1a47.9,47.9,0,0,0,19.1,3.4,64.9,64.9,0,0,0,20.5-6.1c11.8-6,23.4-16.2,34.8-30.8a280.8,280.8,0,0,0,25.3-40.3,389.5,389.5,0,0,0,19.1-43.7c1.4-3.2,3.4-4.2,6.2-3.1s3.6,3.1,2.7,5.8v.7c-16.9,37.8-32.3,66.5-46.5,86.1-11.8,15.9-23.6,27.8-35.5,35.5a56.1,56.1,0,0,1-23.9,10.2,66.1,66.1,0,0,1-14.3,1.4,74.8,74.8,0,0,1-14.4-2.7c-8.6-3.2-15.9-9.6-21.8-19.1a84.5,84.5,0,0,1-10.3-25.3,115.4,115.4,0,0,1-2.7-26c0-7.7.2-16.1.7-25.2s1.8-16.2,2.7-25.3q-15,16.4-30,30-22.6,20-39.6,30.1l-5.5,3.4-2.7,1.4a9.6,9.6,0,0,1-2.1,1.3,6.8,6.8,0,0,0-2.7.7,23.5,23.5,0,0,1-9.9.7,20.8,20.8,0,0,1-9.9-4.1c-5-3.6-8.2-8.9-9.6-15.7a58.4,58.4,0,0,1-1.4-6.8v-6.9c0-15.4,3.9-32.3,11.6-50.5a193.5,193.5,0,0,1,26-43.7c12.3-15.5,25-26.9,38.3-34.2a76.6,76.6,0,0,1,12.2-5.4,45.9,45.9,0,0,1,6.9-1.4c3.6-.4,6.3-.7,8.2-.7a21.1,21.1,0,0,1,15,8.2,54.1,54.1,0,0,1,7.5,12.3,53.1,53.1,0,0,1,2.1,9.6q23.8-92.2,65.5-183.1,25.4-53.2,47.8-86a180.1,180.1,0,0,1,15.8-19.8,78.6,78.6,0,0,1,9.5-9.6,76.8,76.8,0,0,1,12.3-8.2c3.2-.9,6.2-1.6,8.9-2.1a25,25,0,0,1,5.4.7l4.8,1.4C1136.5,521.7,1140.8,526,1144,532.4ZM940.5,882.8c1.3-1.4,4.8-5,10.2-11,.9-4.1,1.8-8.6,2.7-13.6v-3.4a54.4,54.4,0,0,0-1.3-11.7,77.4,77.4,0,0,0-5.5-21.8,25.1,25.1,0,0,0-5.1-7.9,9.3,9.3,0,0,0-6.5-3,31,31,0,0,0-8.9,2c-3.6,1.8-6.6,3.4-8.9,4.8q-16.4,10.2-32.1,31.4a207.8,207.8,0,0,0-22.5,40.3c-6.4,15-9.8,29.4-10.2,43v5.5c.4,2.3.6,3.7.6,4.1.5,2.3,1.4,3.9,2.8,4.8a6.8,6.8,0,0,0,2.7.7l.7-.7h.7l2.7-1.4,4.8-2.7Q898.8,923,940.5,882.8ZM1129,582.2a78.7,78.7,0,0,0,2-22.5c0-8.2-1.1-14.6-3.4-19.1-.9-2.3-2-3.7-3.4-4.1a1.9,1.9,0,0,0-1.4-.7h-.6a5.5,5.5,0,0,0-2.8.7c-4.5,1.8-9.8,6.1-15.7,13-4.1,5-8.6,11.1-13.6,18.4q-21.9,31.4-45.1,83.3a878.9,878.9,0,0,0-36.2,88.8c-11.4,32.3-20.8,62.8-28,91.5a112.7,112.7,0,0,0-3.4,12.3,800.5,800.5,0,0,0,84-109.9q13.6-21.1,24.6-41.7c8.1-15.9,15.2-30.3,21.1-43a415.3,415.3,0,0,0,16.4-44.4C1125.3,597.5,1127.2,590,1129,582.2Z" transform="translate(-114.6 -323.7)" style="fill:url(#Degradado_sin_nombre_39-2)"/><path d="M1337.3,883.4c2.3,1.9,2.7,3.9,1.4,6.2q-17.9,24.6-39.7,39.6-27.3,18.4-53.9,19.1a40.5,40.5,0,0,1-15-1.3,46.5,46.5,0,0,1-14.4-6.9,42.9,42.9,0,0,1-19.1-24.6c-2.7-8.2-3.9-17.7-3.4-28.6q-31.5,34.8-36.9,40.3a196.9,196.9,0,0,1-15.7,14.3c-7.8,5.5-14.8,9.1-21.2,10.9a22.5,22.5,0,0,1-13.6,0,23.8,23.8,0,0,1-13-8.9,35.3,35.3,0,0,1-4.8-12.9,42.7,42.7,0,0,1-.7-7.5,26.4,26.4,0,0,0,.7-5.5q3.4-21.1,18.4-41.7,12.3-16.4,31.5-30.7a144.5,144.5,0,0,1,38.2-21.2,67.4,67.4,0,0,1,21.9-5.4c5.4-.5,9.7.2,12.9,2a13.3,13.3,0,0,1,6.2,6.2,16.2,16.2,0,0,1,.7,8.1c-.5,2.8-2.3,3.9-5.5,3.5s-3.6-1.4-4.1-4.1v-.7a2.8,2.8,0,0,0-.7-2.1c0-.4-.4-.9-1.3-1.3s-3.7-.5-6.9,0c-5,.9-10.9,3.2-17.7,6.8a176.8,176.8,0,0,0-33.5,21.2,171.9,171.9,0,0,0-26.6,28.7c-8.2,10.9-13.5,22-15.7,33.4,0,.5-.3,1.9-.7,4.1v3.4a13.8,13.8,0,0,0,1.3,6.2,19.8,19.8,0,0,0,4.1,4.1,28.6,28.6,0,0,0,6.2.7q7.5-1.3,17.1-6.9a104.6,104.6,0,0,0,15.7-12.3q32.1-28.6,49.1-65.5c3.7-5,8-5.7,13-2.1,3.2,2.3,4.3,5.5,3.4,9.6a118.4,118.4,0,0,0-4.7,25.3,65.8,65.8,0,0,0,1.3,23.9,27.2,27.2,0,0,0,12.3,17,35.4,35.4,0,0,0,21.2,6.9q22.5,0,47.8-15.1,20.5-13.6,38.2-35.5C1333,881.9,1335,881.6,1337.3,883.4Z" transform="translate(-114.6 -323.7)" style="fill:url(#Degradado_sin_nombre_39-3)"/><path d="M1333.5,895.1c-2.5-1.9-2.8-3.9-1-6.2a1201.4,1201.4,0,0,0,66.9-110.6q33.4-62.2,53.3-117.5a403.6,403.6,0,0,0,18.5-61.5c2.7-10.9,4.7-21.2,6.1-30.7.4-5.5.7-10.5.7-15.1s.2-10.6-.7-14.3-.9-3.4-1.4-3.4l.7.7h.7a13,13,0,0,0-3.4,2.7,31,31,0,0,0-4.8,4.1c-5.5,5.9-11.6,14.1-18.4,24.6q-13.8,22.5-30.1,56.7c-10.9,22.8-19.8,42.3-26.6,58.7q-10.9,27.3-21.2,60.8-21.9,69-26,124.3c-1.3,23.7,0,44.4,4.1,62.2a26,26,0,0,0,2.1,6.8,60.8,60.8,0,0,1,2,7.5,56.9,56.9,0,0,0,6.2,11.6,28.4,28.4,0,0,0,8.9,8.2,24.1,24.1,0,0,0,12.9,2.1c8.2-.5,17.3-4.1,27.4-11a127.5,127.5,0,0,0,23.9-21.1q21.2-21.2,38.9-50.6v-.7c1.8-2.2,4-2.6,6.5-1s3.1,3.8,1.7,6.5h-.7c-15.9,22.8-29.4,39.9-40.3,51.2a157.9,157.9,0,0,1-24.6,22.6c-11.4,8.2-21.8,13.4-31.4,15.7a47.2,47.2,0,0,1-19.1,0,45.8,45.8,0,0,1-17.1-10.9,60.8,60.8,0,0,1-9.6-15.8c-.4-.9-1.6-3.8-3.4-8.8-.4-1.4-1.1-4.1-2-8.2q-7.5-28.8-5.5-67,2.7-56,26-129.7a654.4,654.4,0,0,1,22.5-62.2q10.2-25.2,26.7-59.4c11.8-23.7,22.5-43,32.1-58.1q11.6-17.7,20.4-27.3a48.8,48.8,0,0,1,6.9-6.8,29.5,29.5,0,0,1,10.9-5.5,17.7,17.7,0,0,1,8.2.7,12.8,12.8,0,0,1,8.2,4.8,23.8,23.8,0,0,1,4.8,10.9,58.1,58.1,0,0,1,1.3,18.4,113.2,113.2,0,0,1-1.3,17.1c-1.4,10-3.4,21-6.2,32.8a542.4,542.4,0,0,1-20.5,62.8Q1447.3,721,1411,784.4a1021.3,1021.3,0,0,1-71,110C1338.2,896.7,1336,896.9,1333.5,895.1Z" transform="translate(-114.6 -323.7)" style="fill:url(#Degradado_sin_nombre_39-4)"/><path d="M1644,881.1c2.2,2,2.4,4.2.6,6.4q-23.8,24-57.3,47.2a338.5,338.5,0,0,1-32.1,19.8c-13.3,6.8-24.9,11.6-34.9,14.3a67.8,67.8,0,0,1-20.5,2.1,47.2,47.2,0,0,1-21.1-6.2,22.7,22.7,0,0,1-8.9-10.9,33.7,33.7,0,0,1-2.1-12.3c0-5.5,1-12.3,2.8-20.5s6.1-18,10.2-28c-2.7.5-4.8,0-6.1-1.4-2.8-3.1-3-6.3-.7-9.5,9.5-11.9,18.2-22.8,25.9-32.8,4.1-5,8.7-5.7,13.7-2.1a9.1,9.1,0,0,1,4.1,8.9v.7c-.5,1.8-1.1,4.1-2.1,6.8-.4,1-1.1,2.5-2,4.8s-2.1,5.3-3.4,8.9l-4.1,8.2a42.1,42.1,0,0,0-3.4,8.2c-6.9,15-11.4,25.9-13.7,32.8a67.6,67.6,0,0,0-3.4,15,18.8,18.8,0,0,0,.7,6.1,8.1,8.1,0,0,0,2,3.5c6.9,5.4,16.6,7.3,29.4,5.4,10.5-1.3,21.6-5,33.5-10.9a189.8,189.8,0,0,0,31.4-17.8,236,236,0,0,0,29.3-21.1,196.1,196.1,0,0,0,26-25.3C1639.6,879.1,1641.7,879,1644,881.1Zm-123.7-41.4c-4.1,2.3-7.3,1.4-9.5-2.7a6.5,6.5,0,0,1,.6-7.5l.7-1.4a21.9,21.9,0,0,0,3.4-7.5,36.5,36.5,0,0,0,2.1-9.6,10.4,10.4,0,0,1,4.8-7.5,12.2,12.2,0,0,1,8.9-2,10.4,10.4,0,0,1,7.5,4.8,12.1,12.1,0,0,1,2,8.8c-.4,1.4-.9,2.8-1.3,4.1l-.7.7c-2.8,4.1-5.3,7.5-7.5,10.3A49,49,0,0,1,1520.3,839.7Z" transform="translate(-114.6 -323.7)" style="fill:url(#Degradado_sin_nombre_39-5)"/><path d="M1870.7,883.4c2.3,1.9,2.7,3.9,1.4,6.2q-17.8,24.6-39.6,39.6c-18.3,12.3-36.2,18.7-54,19.1a40.5,40.5,0,0,1-15-1.3,47.6,47.6,0,0,1-14.4-6.9,42.9,42.9,0,0,1-19.1-24.6c-2.7-8.2-3.9-17.7-3.4-28.6q-31.5,34.8-36.9,40.3a196.9,196.9,0,0,1-15.7,14.3c-7.7,5.5-14.8,9.1-21.2,10.9a22.5,22.5,0,0,1-13.6,0,24.2,24.2,0,0,1-13-8.9,35.3,35.3,0,0,1-4.8-12.9,55.1,55.1,0,0,1-.7-7.5,26.4,26.4,0,0,0,.7-5.5c2.3-14.1,8.4-28,18.5-41.7q12.1-16.4,31.4-30.7a146.1,146.1,0,0,1,38.2-21.2,68,68,0,0,1,21.9-5.4c5.4-.5,9.8.2,13,2a13.6,13.6,0,0,1,6.1,6.2,16.2,16.2,0,0,1,.7,8.1c-.5,2.8-2.3,3.9-5.5,3.5s-3.6-1.4-4.1-4.1v-.7a2.8,2.8,0,0,0-.7-2.1c0-.4-.4-.9-1.3-1.3s-3.7-.5-6.9,0c-5,.9-10.9,3.2-17.7,6.8a176.8,176.8,0,0,0-33.5,21.2,171.9,171.9,0,0,0-26.6,28.7c-8.2,10.9-13.5,22-15.7,33.4,0,.5-.3,1.9-.7,4.1v3.4a12.6,12.6,0,0,0,1.4,6.2,17.4,17.4,0,0,0,4,4.1,29.4,29.4,0,0,0,6.2.7q7.5-1.3,17.1-6.9a104.6,104.6,0,0,0,15.7-12.3q32.1-28.6,49.2-65.5,5.4-7.5,12.9-2.1c3.2,2.3,4.4,5.5,3.4,9.6a118.4,118.4,0,0,0-4.7,25.3c-.9,9.1-.5,17,1.3,23.9a27.2,27.2,0,0,0,12.3,17,35.6,35.6,0,0,0,21.2,6.9c15,0,31-5,47.8-15.1,13.7-9.1,26.4-20.9,38.3-35.5C1866.4,881.9,1868.4,881.6,1870.7,883.4Z" transform="translate(-114.6 -323.7)" style="fill:url(#Degradado_sin_nombre_39-3)"/></svg>