<svg id="Capa_1" data-name="Capa 1" xmlns="http://www.w3.org/2000/svg" xmlns:xlink="http://www.w3.org/1999/xlink" viewBox="0 0 1548.8 953.2"><defs><linearGradient id="Degradado_sin_nombre_39" x1="179.77" y1="725.94" x2="1666.23" y2="725.94" gradientUnits="userSpaceOnUse"><stop offset="0" stop-color="#fff9de"/><stop offset="1" stop-color="#464ca3"/></linearGradient><linearGradient id="Degradado_sin_nombre_39-2" x1="179.77" y1="809.44" x2="1666.23" y2="809.44" xlink:href="#Degradado_sin_nombre_39"/><linearGradient id="Degradado_sin_nombre_39-3" x1="179.77" y1="824.39" x2="1666.23" y2="824.39" xlink:href="#Degradado_sin_nombre_39"/><linearGradient id="Degradado_sin_nombre_39-4" x1="179.77" y1="814.47" x2="1666.23" y2="814.47" xlink:href="#Degradado_sin_nombre_39"/></defs><path d="M1125.6,267.5c4.6,7.7,5.9,16.6,4.1,26.6-2.7,13.7-10.2,28-22.5,43.1a279.9,279.9,0,0,1-32.1,33.4,200.1,200.1,0,0,1-38.3,27.3,215,215,0,0,1-43,19.9,296.8,296.8,0,0,1-30.7,8.2c-4.6,10.9-8.5,20.9-11.6,30Q938.5,490.2,892,626.8q-24.4,71.7-41.3,117.1T806.3,851.5a1227.3,1227.3,0,0,1-56.3,112q-53.2,90.8-113.4,146.1a353.2,353.2,0,0,1-76.5,54.7,309.7,309.7,0,0,1-88.8,32.1,264,264,0,0,1-47.1,5.5c-8.7.4-16.4.6-23.2.6a181.9,181.9,0,0,1-24.6-2,202.3,202.3,0,0,1-88.1-38.3,175.5,175.5,0,0,1-59.5-74.4q-19.8-44.4-13.6-94.3t27.3-89.4a235.5,235.5,0,0,1,58.1-73.8,248.2,248.2,0,0,1,81.9-45.1c28.2-9.1,58.8-13.6,91.5-13.6q6.9,0,6.9,7.5c0,4.1-2.3,6.4-6.9,6.8-30.9.5-59.8,5.2-86.7,14.3a219.2,219.2,0,0,0-75.1,43.1,234.5,234.5,0,0,0-76.5,152.3q-4.8,44.4,12.9,83.3c11.9,25,29.9,46.5,54,64.2a181.5,181.5,0,0,0,77.9,32.1c8.6.9,15.4,1.4,20.5,1.4a127.7,127.7,0,0,0,21.8-.7,304,304,0,0,0,43-5.5q83.4-17.1,151.7-81.2,56.7-52.7,107.2-140.7,36.9-64.9,76.5-161.9,25.2-62.1,62.8-169.4Q911.9,480,924.8,445.8c2.3-5,4.4-10.1,6.2-15.1a351.6,351.6,0,0,1-75.8-1.3,712.8,712.8,0,0,1-90.9-17.1c-14.6-3.6-43.7-12.1-87.4-25.3q-56.7-17.1-86.1-20.5c-16.4-2.2-30.7-2.2-43,0a75.1,75.1,0,0,0-51.2,32.1,144.6,144.6,0,0,0-10.9,18.5,82,82,0,0,0-6.2,41c.9,13.6,5.7,26.4,14.3,38.2s19.2,18.4,32.8,23.9a99.8,99.8,0,0,0,40.3,6.8,77.8,77.8,0,0,0,13.7-1.3,16.6,16.6,0,0,1-5.5-2.1c-11.4-4.5-21.8-11.8-31.4-21.8a12.4,12.4,0,0,1-3.7-9.9,14.6,14.6,0,0,1,4.4-9.9,13.2,13.2,0,0,1,19.1.6,5.3,5.3,0,0,1,2.1,2.1,68.7,68.7,0,0,0,19.1,20.5c7.3,5.4,16.4,8.9,27.3,10.2a9.1,9.1,0,0,1,4.8,3.4,14.9,14.9,0,0,1,9.6,8.9,12.7,12.7,0,0,1-.7,10.6,15.6,15.6,0,0,1-8.2,7.2,4.6,4.6,0,0,0-2.1.7c-17.7,2.7-33.9,3.6-48.5,2.7a138.6,138.6,0,0,1-47.8-12.3,100.3,100.3,0,0,1-37.5-31.4,97.7,97.7,0,0,1-11-21.9,76.1,76.1,0,0,1-5.4-23.9,94,94,0,0,1,8.2-47.8,105.2,105.2,0,0,1,28-39.6,99.1,99.1,0,0,1,20.5-13.7,92.4,92.4,0,0,1,22.5-8.2c13.7-3.1,29.6-4.3,47.8-3.4q33.4,2.1,91.5,15.7l28,7.5c10,2.8,20.7,5.6,32.1,8.6l27.4,7.2c42.7,10.9,71.7,17.5,86.7,19.8,29.1,4.5,56.4,5.7,82,3.4q11.6-26.7,22.5-47.2,25.2-48.4,53.3-77.1c12.3-12.8,25.2-22.1,38.9-28a76,76,0,0,1,23.9-6.9,65.7,65.7,0,0,1,25.3,2.1C1113.8,254.1,1121.1,259.3,1125.6,267.5Zm-9.5,24.6c1.3-7.3.7-13.2-2.1-17.8s-7.3-7.7-13.6-9.5a59.7,59.7,0,0,0-20.5-.7,62.1,62.1,0,0,0-19.2,6.1q-16.4,7.5-32.1,26.7c-13.6,16.4-28.2,41.6-43.7,75.8-4.1,9.1-8.4,19.6-12.9,31.4,5.9-1.4,11.3-2.7,16.3-4.1a226.4,226.4,0,0,0,41-16.4q36.9-19.1,67-55.3C1107.2,315.1,1113.8,303,1116.1,292.1Z" transform="translate(-213.7 -249.3)" style="fill:url(#Degradado_sin_nombre_39)"/><path d="M1136.9,809.5c2.5,1.6,3.1,3.5,1.7,5.8v.7a330.6,330.6,0,0,1-29.4,37.5,355.5,355.5,0,0,1-71.7,61.5,211.1,211.1,0,0,1-43.7,19.8c-9.6,2.7-18,3.9-25.3,3.4a27.2,27.2,0,0,1-13.6-3.4A20.6,20.6,0,0,1,948,930l-2.7-2.7a20.8,20.8,0,0,1-1-2.4,4,4,0,0,0-1-1.7c-1.9-4.6-2.3-9.8-1.4-15.7a43.7,43.7,0,0,1,3.4-13A140.7,140.7,0,0,1,956.2,872l12.3-20.2q8.3-13.3,12.3-19.5a81.8,81.8,0,0,1,4.8-9.5,67.6,67.6,0,0,0,2.7-8.2h-5.4a17.9,17.9,0,0,0-4.8.7,50.3,50.3,0,0,1-6.2.7l-12.2,1.3a114.7,114.7,0,0,1-26-2.7,43.7,43.7,0,0,1-13.7-4.8,31.5,31.5,0,0,1-12.3-10.2,25.6,25.6,0,0,1-5.4-17.8,56.4,56.4,0,0,1,2.7-13.7c4.6-14.1,13.2-28.6,26-43.7a218.4,218.4,0,0,1,36.9-32.1c4-2.7,7.7-5,10.9-6.8l6.8-2.7a72.8,72.8,0,0,1,7.5-2.1c5.9-.4,11.2.2,15.7,2.1a26.1,26.1,0,0,1,13,11.6,26.9,26.9,0,0,1,2.7,15,49.1,49.1,0,0,1-3.4,13.7,138.4,138.4,0,0,1-13.6,21.1q-6.2,7.6-46.5,52.6a69.7,69.7,0,0,1,8.2-.7,39.7,39.7,0,0,1,5.5-1,53.1,53.1,0,0,0,6.8-1H989a24.6,24.6,0,0,1,8.9,2.7,17.1,17.1,0,0,1,9.6,9.6,27.6,27.6,0,0,1,.6,10.9,107.1,107.1,0,0,1-4.7,13.7,67.5,67.5,0,0,1-6.2,10.9c-2.7,5-6.9,11.9-12.6,20.5s-9.9,15-12.7,19.1c-4.5,7.8-7.9,14.1-10.2,19.1-3.2,7.8-4.6,13.5-4.1,17.1s5,7.3,12.3,8.2,13,1.2,21.2-.7q18.4-4.1,42.3-17.7a250,250,0,0,0,37.2-26.7,341.1,341.1,0,0,0,33.2-32.7,315.4,315.4,0,0,0,26.6-37.6C1132.2,808.2,1134.4,807.9,1136.9,809.5ZM924.1,787.3q3.4,4.8,14.4,7.5a43.1,43.1,0,0,0,11.6,1.3c7.7-7.7,14.6-15,20.5-21.8q19-20.5,30-35.5,7.5-10.3,9.6-19.8c1.8-7.3,1.1-12.8-2.1-16.4s-7-4.4-12.9-3.4a12.2,12.2,0,0,0-3.4.6,17.7,17.7,0,0,1-4.1,2.1c-2.8,1.8-5.7,3.9-8.9,6.1A177.8,177.8,0,0,0,946,737.4c-10.9,13.2-18,25.5-21.2,36.9a34.7,34.7,0,0,0-2,8.9A7.6,7.6,0,0,0,924.1,787.3Z" transform="translate(-213.7 -249.3)" style="fill:url(#Degradado_sin_nombre_39-2)"/><path d="M1333.3,809.8c2.2,2.3,2.2,4.6,0,6.8-11,9.6-18.3,15.7-21.9,18.5q-9.6,8.1-22.5,17.1a230.3,230.3,0,0,1-49.2,28q-31.5,12.9-57.4,12.2a84.4,84.4,0,0,1-15-1.3l-7.5-2.1a30,30,0,0,1-8.2-4.1,52.6,52.6,0,0,1-21.9-23.9,49.6,49.6,0,0,1-5.4-15.7c-.5-5-.7-10.2-.7-15.7a74.4,74.4,0,0,1,8.2-30.7,86.8,86.8,0,0,1,19.1-23.9c8.6-7.8,17.5-13.2,26.6-16.4l8.2-2.1a32.6,32.6,0,0,1,11.6.7,21,21,0,0,1,9.6,28c-1.4,3.2-2.5,5.7-3.4,7.5a38.9,38.9,0,0,1-10.3,12.3c-7.2,6.9-16.4,11.6-27.3,14.4a76.7,76.7,0,0,1-23.2,2,57.8,57.8,0,0,0-.7,8.9,39.2,39.2,0,0,0,.7,12.3,26.2,26.2,0,0,0,3.4,10.2c2.7,6.4,7.8,12.1,15,17.1,4.6,3.7,12.1,6.2,22.6,7.5,16.8,1.8,34.4-.2,52.6-6.1q47.1-17.1,90.1-61.5Q1329.9,806.4,1333.3,809.8Zm-149.6-35.5c-16.4,6.8-28.3,17.7-35.5,32.8a8.4,8.4,0,0,0-2.1,4.1,88.9,88.9,0,0,0,16.4-2.8,47.5,47.5,0,0,0,21.2-12.9,38.8,38.8,0,0,0,6.8-9.6c.5-1.4,1.1-3.2,2.1-5.5a22.3,22.3,0,0,0,.6-4.7,4.1,4.1,0,0,0-2-3.5,13.2,13.2,0,0,0-2.7.7A11.1,11.1,0,0,0,1183.7,774.3Z" transform="translate(-213.7 -249.3)" style="fill:url(#Degradado_sin_nombre_39-3)"/><path d="M1565.5,814.6h-.7c-6.4,9.5-11.6,16.6-15.7,21.2a129.5,129.5,0,0,1-19.8,18.4,81.3,81.3,0,0,1-23.9,12.3,74.8,74.8,0,0,1-27.3,3.4,56,56,0,0,1-27.4-8.2c-7.7-4.5-14.5-11.1-20.5-19.8a209.3,209.3,0,0,1-12.9-23.9c-2.8-5.5-4.6-8.9-5.5-10.2a26.6,26.6,0,0,0-2.7-3.5l-.7-.6h-.7l.7-.7a1.9,1.9,0,0,0-1.4.7,38.6,38.6,0,0,0-4.8,2,48,48,0,0,0-10.2,6.2,149.7,149.7,0,0,0-19.8,15.7c-3.2,2.7-9.4,8.8-18.5,18.4s-15.4,16.9-17.7,19.1a16.8,16.8,0,0,1-3.4,2.8,2.2,2.2,0,0,0-1.4.6h-1.4c-.4.5-1.1.5-2,0a9.6,9.6,0,0,1-2.1-1.3,5.1,5.1,0,0,1-2-2.1v-1.3a17.9,17.9,0,0,1,.7-3.5l2-6.8,4.1-12.3c3.7-11.8,5.9-20,6.9-24.6q8.1-27.3,12.9-49.8l17.1,6.1a188.3,188.3,0,0,1-8.9,19.1,69,69,0,0,1-5.4,10.3l-6.2,8.9c-3.6,5-8,5.8-13,2.4s-5.7-7.7-2-12.7l5.5-8.9a32.1,32.1,0,0,0,4.7-8.2c1.8-3.6,4.6-9.7,8.2-18.4l.7-.7c2.3-5.4,6.2-7,11.6-4.8s7.3,6.2,5.5,11.7q-7.5,19.8-18.5,49.1l-8.8,24.6-4.8,12.3-2.1,5.5v-.7l-.6-.7a2.2,2.2,0,0,0-1.1-2,2.9,2.9,0,0,0-1.7-.7h-2.7l1.4-1.4c2.2-1.8,8.2-7.7,17.7-17.7,1.8-1.9,3.9-3.9,6.2-6.2s4.4-4.5,6.4-6.8l5.9-6.2c.9-.9,3.5-3.7,7.8-8.5s7.6-8.5,9.9-11.3a125.3,125.3,0,0,1,10.3-9.5,52.9,52.9,0,0,1,6.8-4.1l4.8-1.4a19.4,19.4,0,0,1,6.8,0,17.6,17.6,0,0,1,10.2,5.5,23,23,0,0,1,4.8,6.8,74.9,74.9,0,0,1,6.9,12.3c5.9,15,9.1,22.8,9.5,23.2,4.1,8.2,8.9,14.4,14.4,18.5a41.4,41.4,0,0,0,21.1,8.1,63.1,63.1,0,0,0,45.8-12.2,139.4,139.4,0,0,0,18.4-17.8,182.7,182.7,0,0,0,14.4-20.5c1.3-2.7,3.4-3.3,6.1-1.7S1566.8,811.9,1565.5,814.6Z" transform="translate(-213.7 -249.3)" style="fill:url(#Degradado_sin_nombre_39-4)"/><path d="M1760.8,809.8c2.3,2.3,2.3,4.6,0,6.8-10.9,9.6-18.2,15.7-21.8,18.5-6.4,5.4-13.9,11.1-22.6,17.1a225.5,225.5,0,0,1-49.2,28q-31.4,12.9-57.3,12.2a86.4,86.4,0,0,1-15.1-1.3l-7.5-2.1a33.1,33.1,0,0,1-8.2-4.1c-10-5.9-17.3-13.8-21.8-23.9a47.5,47.5,0,0,1-5.5-15.7c-.4-5-.7-10.2-.7-15.7a76,76,0,0,1,8.2-30.7,87.1,87.1,0,0,1,19.2-23.9c8.6-7.8,17.5-13.2,26.6-16.4l8.2-2.1a32.8,32.8,0,0,1,11.6.7,22.6,22.6,0,0,1,8.9,8.2,21.8,21.8,0,0,1,2.7,10.9,23.6,23.6,0,0,1-2,8.9c-1.4,3.2-2.5,5.7-3.5,7.5a38.6,38.6,0,0,1-10.2,12.3c-7.3,6.9-16.4,11.6-27.3,14.4a76.7,76.7,0,0,1-23.2,2,57.8,57.8,0,0,0-.7,8.9,34.1,34.1,0,0,0,.7,12.3,24.7,24.7,0,0,0,3.4,10.2q4,9.6,15,17.1c4.5,3.7,12.1,6.2,22.5,7.5q25.3,2.7,52.6-6.1,47.1-17.1,90.2-61.5C1756.3,807.5,1758.5,807.5,1760.8,809.8Zm-149.6-35.5q-24.6,10.2-35.5,32.8a8.3,8.3,0,0,0-2,4.1,90.4,90.4,0,0,0,16.4-2.8c8.6-2.7,15.7-7,21.1-12.9a39.1,39.1,0,0,0,6.9-9.6c.4-1.4,1.1-3.2,2-5.5a17.8,17.8,0,0,0,.7-4.7,4.3,4.3,0,0,0-2-3.5,15.4,15.4,0,0,0-2.8.7A11.9,11.9,0,0,0,1611.2,774.3Z" transform="translate(-213.7 -249.3)" style="fill:url(#Degradado_sin_nombre_39-3)"/></svg>