<svg id="Capa_1" data-name="Capa 1" xmlns="http://www.w3.org/2000/svg" xmlns:xlink="http://www.w3.org/1999/xlink" viewBox="0 0 1818.7 660.5"><defs><linearGradient id="Degradado_sin_nombre_39" x1="508.03" y1="940.67" x2="1709.58" y2="940.67" gradientUnits="userSpaceOnUse"><stop offset="0" stop-color="#fff9de"/><stop offset="1" stop-color="#464ca3"/></linearGradient><linearGradient id="Degradado_sin_nombre_39-2" x1="508.03" y1="958.13" x2="1709.58" y2="958.13" xlink:href="#Degradado_sin_nombre_39"/><linearGradient id="Degradado_sin_nombre_39-3" x1="508.03" y1="959.76" x2="1709.58" y2="959.76" xlink:href="#Degradado_sin_nombre_39"/><linearGradient id="Degradado_sin_nombre_39-4" x1="508.03" y1="965.95" x2="1709.58" y2="965.95" xlink:href="#Degradado_sin_nombre_39"/><linearGradient id="Degradado_sin_nombre_39-5" x1="508.03" y1="956.63" x2="1709.58" y2="956.63" xlink:href="#Degradado_sin_nombre_39"/><linearGradient id="Degradado_sin_nombre_39-6" x1="508.03" y1="966.44" x2="1709.58" y2="966.44" xlink:href="#Degradado_sin_nombre_39"/><linearGradient id="Degradado_sin_nombre_39-7" x1="508.03" y1="957.98" x2="1709.58" y2="957.98" xlink:href="#Degradado_sin_nombre_39"/></defs><path d="M928.9,708.9q-13.6,22.1-34.5,57.5-45.3,78.8-72.5,122.7-43.4,69.4-81.8,118a680,680,0,0,1-47.7,54.6q-28.2,28.5-55,47.3c-21.9,15.6-43.7,26.7-65.6,33.2a153.6,153.6,0,0,1-17.9,4.7c-7.1,1.1-13.3,1.8-18.7,2.1a124.2,124.2,0,0,1-19.2-1.3l-9.8-2.1c-4.6-1.4-7.5-2.4-9-3a78.7,78.7,0,0,1-32.3-21.3,85.7,85.7,0,0,1-11.1-15.7,82.6,82.6,0,0,1-7.7-17.9,92.4,92.4,0,0,1-3.4-37.5,112.8,112.8,0,0,1,10.2-36.3,89.8,89.8,0,0,1,22.6-30.2,108.4,108.4,0,0,1,32.4-18.8,105.2,105.2,0,0,1,36.6-6.8c13.7.3,25.7,3.6,36.3,9.8,2.5,1.5,3.1,3.4,1.7,6s-3.4,3.1-6,1.7c-9.1-5.4-19.8-8-32-7.7a90.2,90.2,0,0,0-32.8,6.4,94.7,94.7,0,0,0-28.9,17.9,74.1,74.1,0,0,0-19.2,26.4,97.7,97.7,0,0,0-8.1,32.4,88.4,88.4,0,0,0,3.4,32.8,82.9,82.9,0,0,0,6.8,14.9,80.5,80.5,0,0,0,9.8,12.8,69.3,69.3,0,0,0,26.9,17.5l7.6,2.1a61.9,61.9,0,0,0,8.1,1.7,131.6,131.6,0,0,0,16.2.9,131.5,131.5,0,0,0,16.6-2.2q7.6-1.6,16.2-4.2,29.9-9.7,60.5-32a402.4,402.4,0,0,0,52.4-46,613.4,613.4,0,0,0,46.1-53.2q36.1-46.5,79.6-116.8Q813.3,867,879,757c8.3-13.9,15.5-26,21.8-36.2l-9,3a241.8,241.8,0,0,1-34.9,8.9L839,736.1l-17.9,2.2a545,545,0,0,1-72,2.9c-3.2,0-15.1-.4-35.8-1.2l-4.7-.2-4.5-.5-4.5-.4-4.2-.2-17.9-1.3q-53.2-5.1-141.9-19.2l-70.3-10.6-35-5.1L395,697.8q-44.8-5.1-70.3-6.8a370.3,370.3,0,0,0-69.9,2.9c-24.7,3.5-47.2,9.4-67.3,17.9a181.9,181.9,0,0,0-58,38c-17.3,17-29.1,36.5-35.3,58.3a113,113,0,0,0,17.4,97.6,99.7,99.7,0,0,0,24.7,22.6A103.8,103.8,0,0,0,167,941.5a49,49,0,0,1,5.6,1.3c-6.6-5.7-12.8-13.4-18.8-23a8.4,8.4,0,0,1-.8-6.4,8,8,0,0,1,3.8-5.3,8.1,8.1,0,0,1,6.6-1.1,7.8,7.8,0,0,1,5.3,3.8,3,3,0,0,1,.4,1.3c3.7,9.1,8,16.3,12.8,21.7a32.6,32.6,0,0,0,17.9,10.7h.9a9.9,9.9,0,0,1,6.2,2.3,7.7,7.7,0,0,1,2.7,6,9.1,9.1,0,0,1-2.3,6.2,9.4,9.4,0,0,1-5.8,3h-1.3c-6.5-.6-12.7-1.5-18.7-2.6a122.7,122.7,0,0,1-18.3-4.7,120.6,120.6,0,0,1-33.3-16.6,115.2,115.2,0,0,1-26.2-26.4,117.5,117.5,0,0,1-16.4-33.3,129,129,0,0,1-6.4-36.2,125.1,125.1,0,0,1,4.7-36.6c6.6-23,19.1-43.8,37.5-62.2q24.3-24.7,60.1-40.9,31.1-14.1,69.5-20.1a405.1,405.1,0,0,1,72.4-4.6q26.4.8,71.6,5.1,40.1,3.8,90.5,11.3l101.9,15.1q51.3,7.7,90.1,11.5c26.7,2.8,50.1,4.7,70.3,5.5a467.3,467.3,0,0,0,70.3-.8l17.5-1.7c10.5-1.4,16.3-2.3,17.4-2.6a269.2,269.2,0,0,0,34.1-7.7,216.3,216.3,0,0,0,20.9-7.2c3.1-5.1,5.3-8.5,6.4-10.2q25.9-40.1,42.6-58.4c4.5-4.8,9-9.2,13.2-13.2a80.4,80.4,0,0,1,16.6-10.7,25.9,25.9,0,0,1,9.8-2.9l3-.5h3.4a11.9,11.9,0,0,1,5.1,3,11.1,11.1,0,0,1,1.7,4.7,16.2,16.2,0,0,1-.4,6.4c-.3.6-.8,2.1-1.7,4.7-.6,1.1-1.8,4-3.8,8.5A129.6,129.6,0,0,1,984.7,668,184.9,184.9,0,0,1,957,692.2,229,229,0,0,1,928.9,708.9Zm363.2-74.6a7.9,7.9,0,0,1,3.2,5.5,8.8,8.8,0,0,1-1.7,6.4,7.5,7.5,0,0,1-5.5,3.4h-.4a286.4,286.4,0,0,0-75,15.8c-9.7,3.1-21.6,8-35.8,14.5l-10.3,5.1a6.8,6.8,0,0,1-2.1,6l-.4.4q-31.2,31.5-60.9,77.5a622.6,622.6,0,0,0-47.8,87q-43.4,94.5-51.5,190.9a452.2,452.2,0,0,0-1.7,49.4,215.4,215.4,0,0,0,5.9,48.1,193.8,193.8,0,0,0,16.6,45.6q12,22.6,28.6,38.4a112.1,112.1,0,0,0,40.5,24.3c14.7,5.1,30.7,7.3,47.7,6.8q22.6-.9,47.7-9a275.6,275.6,0,0,0,45.6-19.6c2.6-1.1,4.6-.4,6,2.2s.5,4.1-1.7,5.5a310.7,310.7,0,0,1-46.5,21.3,203.7,203.7,0,0,1-50.7,10.7,132.7,132.7,0,0,1-52-6,125.8,125.8,0,0,1-45.6-26.9c-12.5-11-23.2-24.8-32.3-41.3a206.5,206.5,0,0,1-18.8-48.6,247,247,0,0,1-6.8-51.1,484.1,484.1,0,0,1,.9-51.1q7.2-97.7,51.5-197.3a712.6,712.6,0,0,1,49-89.5c11.4-17,23.2-33.1,35.4-48.1q-22.2,15.3-43.5,33.2-27.3,23-56.2,54.5a821.8,821.8,0,0,0-93.8,125.3l-5.1,8.1-4.7,8.5c-3.7,6-6.9,11.7-9.8,17.1-6.2,11.3-12,23-17.4,34.9-6.9,14.5-12.1,26.4-15.8,35.8-1.4,3.4-2.6,6.4-3.4,9l-3.4,8.9c-1.2,4.3-2,7.4-2.6,9.4a48,48,0,0,0-2.1,8.5v.9a7.6,7.6,0,0,1-2.1,3.8,9.8,9.8,0,0,1-3.9,2.3,7.5,7.5,0,0,1-4.2.2c-4.3-.8-6.6-3.4-6.9-7.6a135.4,135.4,0,0,1-9.3-44.3,228.8,228.8,0,0,1,3-46.1q6.3-39.6,25.1-87.3,11.1-28.2,35.4-82.2c7.3-16.2,13.2-29.7,17.4-40.5,2.9-7.7,5.1-14.5,6.8-20.5a73.4,73.4,0,0,0,1.8-10.2c.2-4,0-7.1-.9-9.4v-.4q-1.4-3.9,3-5.1c2.5-.9,4.2,0,5.1,2.5a33.9,33.9,0,0,1,2.1,12.8,94.3,94.3,0,0,1-1.7,11.5,182.9,182.9,0,0,1-5.5,22.2c-3.1,9.1-8.4,23.1-15.8,42.2q-28,69.9-32.4,82.6-17.4,49.5-22.6,84.4c-2.5,15.9-3.5,30.1-2.9,42.6a115.7,115.7,0,0,0,1.7,15.8,4.9,4.9,0,0,0,.8-1.3,3,3,0,0,0,.4-1.3l4.3-8.9c4.8-10.5,10.8-22.3,17.9-35.4,8.2-15.1,14.8-26.6,19.6-34.5l5.1-8.5,5.1-8.6,5.1-8.5,5.2-8.5q46.8-73.3,95-126.6,57.5-63.9,119.3-103.5c5.7-3.7,11.3-7.1,17-10.2l.9-.9q63.9-36.1,131.6-44.7A8.1,8.1,0,0,1,1292.1,634.3ZM970.2,647.5c-9.4,12.5-19.7,27.4-31.1,44.7,4.5-2.5,8.8-5.1,12.8-7.6s8.5-6.4,13.6-10.7A93.4,93.4,0,0,0,977.9,662a109.2,109.2,0,0,0,20-28.1c.9-2,1.8-4.6,3-7.7a31.4,31.4,0,0,0,.8-3.8v-.9h-1.2a38,38,0,0,0-6.9,3C986.8,628.8,979,636.4,970.2,647.5Zm31.5-27.3v0Z" transform="translate(-80.9 -610.4)" style="fill:url(#Degradado_sin_nombre_39)"/><path d="M1218.6,954.9c1.4,1.3,1.6,2.7.4,4.1a264.2,264.2,0,0,1-35.7,29.4,235.4,235.4,0,0,1-20.1,12.3,111.9,111.9,0,0,1-21.7,9,44.6,44.6,0,0,1-12.8,1.3,29.8,29.8,0,0,1-13.2-3.9,14.2,14.2,0,0,1-5.5-6.8,20.7,20.7,0,0,1-1.3-7.7,62.7,62.7,0,0,1,1.7-12.7c1.7-5.4,3.8-11.3,6.4-17.5-1.7.3-3,0-3.8-.9a4.3,4.3,0,0,1-.5-5.9c6-7.4,11.4-14.2,16.2-20.5,2.6-3.1,5.4-3.5,8.5-1.3a5.7,5.7,0,0,1,2.6,5.6v.4c-.3,1.1-.7,2.6-1.3,4.3s-.7,1.5-1.3,2.9-1.2,3.3-2.1,5.6-1.4,2.8-2.5,5.1a28.2,28.2,0,0,0-2.2,5.1c-4.2,9.4-7.1,16.2-8.5,20.5a40.6,40.6,0,0,0-2.1,9.3,13.3,13.3,0,0,0,.4,3.9,5.7,5.7,0,0,0,1.3,2.1c4.2,3.4,10.3,4.6,18.3,3.4a65.2,65.2,0,0,0,20.9-6.8,119.6,119.6,0,0,0,19.6-11.1,146.7,146.7,0,0,0,18.3-13.2,128.3,128.3,0,0,0,16.2-15.8C1215.9,953.7,1217.2,953.7,1218.6,954.9Zm-77.1-25.7c-2.6,1.4-4.5.8-6-1.8a3.9,3.9,0,0,1,.5-4.6l.4-.9a16,16,0,0,0,2.1-4.7,22.7,22.7,0,0,0,1.3-5.9,6.5,6.5,0,0,1,3-4.7,7.3,7.3,0,0,1,5.5-1.3,6.5,6.5,0,0,1,4.7,3,7.7,7.7,0,0,1,1.3,5.5l-.9,2.6-.4.4a71.8,71.8,0,0,1-4.7,6.4A36.6,36.6,0,0,1,1141.5,929.2Z" transform="translate(-80.9 -610.4)" style="fill:url(#Degradado_sin_nombre_39-2)"/><path d="M1362.6,959.8h-.4a112.4,112.4,0,0,1-9.8,13.2,76.8,76.8,0,0,1-12.3,11.5,49.8,49.8,0,0,1-15,7.7,46.5,46.5,0,0,1-17,2.1,33.5,33.5,0,0,1-17-5.1,39.3,39.3,0,0,1-12.8-12.3,130.4,130.4,0,0,1-8.1-14.9c-1.7-3.4-2.9-5.6-3.4-6.4a24.6,24.6,0,0,0-1.7-2.2l-.5-.4h-.4l.4-.4a1.2,1.2,0,0,0-.8.4,18.2,18.2,0,0,0-3,1.3,29.7,29.7,0,0,0-6.4,3.8,101.6,101.6,0,0,0-12.3,9.8c-2,1.7-5.9,5.6-11.5,11.5s-9.7,10.5-11.1,12a11.9,11.9,0,0,1-2.2,1.7,1.2,1.2,0,0,0-.8.4h-.9c-.2.3-.7.3-1.2,0a4.8,4.8,0,0,1-1.3-.9,2.5,2.5,0,0,1-1.3-1.2v-.9c0-.3.2-1,.4-2.1l1.3-4.3c.9-2.5,1.7-5.1,2.6-7.7,2.2-7.3,3.7-12.4,4.2-15.3,3.4-11.3,6.1-21.7,8.1-31.1l10.7,3.8a124,124,0,0,1-5.6,12,37.7,37.7,0,0,1-3.4,6.4l-3.8,5.5q-3.5,4.6-8.1,1.5c-3.1-2.1-3.6-4.8-1.3-7.9l3.4-5.5a19.6,19.6,0,0,0,3-5.1c1.1-2.3,2.8-6.1,5.1-11.5l.4-.5c1.5-3.4,3.9-4.4,7.3-3s4.5,3.9,3.4,7.3c-3.1,8.2-7,18.5-11.5,30.7l-5.5,15.3-3,7.7-1.3,3.4v-.4l-.4-.5a1.2,1.2,0,0,0-.7-1.2,2.3,2.3,0,0,0-1-.5h-1.7l.8-.8q2.1-1.8,11.1-11.1l3.8-3.8,4.1-4.3,3.6-3.8,4.9-5.4c2.7-2.9,4.8-5.3,6.2-7s4.7-4.5,6.4-6l4.2-2.5,3-.9a15.5,15.5,0,0,1,4.3,0,11.9,11.9,0,0,1,6.4,3.4,17.1,17.1,0,0,1,2.9,4.3,41.4,41.4,0,0,1,4.3,7.7c3.7,9.3,5.7,14.2,6,14.5a31.7,31.7,0,0,0,8.9,11.5,26.6,26.6,0,0,0,13.2,5.1,39.6,39.6,0,0,0,28.6-7.7,79.6,79.6,0,0,0,11.5-11.1,101.9,101.9,0,0,0,8.9-12.8c.9-1.7,2.2-2,3.9-1S1363.5,958.1,1362.6,959.8Z" transform="translate(-80.9 -610.4)" style="fill:url(#Degradado_sin_nombre_39-3)"/><path d="M1484.5,956.8c1.4,1.5,1.4,2.9,0,4.3-6.8,6-11.4,9.8-13.6,11.5a171.5,171.5,0,0,1-14.1,10.7,135.3,135.3,0,0,1-30.7,17.4c-13,5.4-25,8-35.8,7.7a58.4,58.4,0,0,1-9.3-.8l-4.7-1.3a20.5,20.5,0,0,1-5.1-2.6,32.8,32.8,0,0,1-13.7-14.9,31.7,31.7,0,0,1-3.4-9.8c-.3-3.1-.4-6.4-.4-9.8a48.2,48.2,0,0,1,5.1-19.2,57,57,0,0,1,11.9-14.9,50.5,50.5,0,0,1,16.7-10.2,47.9,47.9,0,0,1,5.1-1.3,20.6,20.6,0,0,1,7.2.4,14.7,14.7,0,0,1,5.6,5.2,13.4,13.4,0,0,1,1.7,6.8,15.1,15.1,0,0,1-1.3,5.5c-.9,2-1.6,3.6-2.2,4.7a25.3,25.3,0,0,1-6.3,7.7,38.9,38.9,0,0,1-17.1,8.9,45.9,45.9,0,0,1-14.5,1.3,36.5,36.5,0,0,0-.4,5.5,25,25,0,0,0,.4,7.7,16.3,16.3,0,0,0,2.2,6.4c1.7,4,4.8,7.5,9.3,10.6,2.9,2.3,7.6,3.9,14.1,4.7,10.5,1.2,21.4-.1,32.8-3.8q29.4-10.7,56.2-38.4C1481.7,955.4,1483.1,955.4,1484.5,956.8Zm-93.3-22.1q-15.3,6.4-22.2,20.4a5.7,5.7,0,0,0-1.2,2.6A62,62,0,0,0,1378,956a29.6,29.6,0,0,0,13.2-8.1,24.2,24.2,0,0,0,4.3-6c.2-.8.7-1.9,1.2-3.4a11.7,11.7,0,0,0,.5-3,2.7,2.7,0,0,0-1.3-2.1l-1.7.4A6.4,6.4,0,0,0,1391.2,934.7Z" transform="translate(-80.9 -610.4)" style="fill:url(#Degradado_sin_nombre_39-4)"/><path d="M1601.9,956.6c1.6,1,1.9,2.2,1.1,3.7v.4a200.7,200.7,0,0,1-18.4,23.4,218.4,218.4,0,0,1-44.7,38.4,126.4,126.4,0,0,1-27.3,12.3,49.7,49.7,0,0,1-15.7,2.2,17.7,17.7,0,0,1-8.6-2.2,11,11,0,0,1-4.2-3,13.7,13.7,0,0,1-1.7-1.7,10.1,10.1,0,0,1-.7-1.5,2.1,2.1,0,0,0-.6-1,19.6,19.6,0,0,1-.9-9.8,24.3,24.3,0,0,1,2.2-8.1,87.9,87.9,0,0,1,6.8-14.1l7.7-12.5c3.4-5.6,5.9-9.6,7.6-12.2l3-6a37.2,37.2,0,0,0,1.7-5.1h-3.4a13.3,13.3,0,0,0-3,.5l-3.8.4-7.7.8a68.3,68.3,0,0,1-16.2-1.7,24.6,24.6,0,0,1-8.5-3,19.7,19.7,0,0,1-7.7-6.3,16.4,16.4,0,0,1-3.4-11.1,41.2,41.2,0,0,1,1.7-8.5q4.3-13.2,16.2-27.3a134.7,134.7,0,0,1,23-20c2.6-1.7,4.9-3.2,6.9-4.3l4.2-1.7a37.8,37.8,0,0,1,4.7-1.3,21.9,21.9,0,0,1,9.8,1.3,16.6,16.6,0,0,1,8.1,7.2,17.6,17.6,0,0,1,1.7,9.4,32.1,32.1,0,0,1-2.1,8.5,83.5,83.5,0,0,1-8.6,13.2c-2.5,3.2-12.2,14.1-28.9,32.9a36.2,36.2,0,0,1,5.1-.5,13.1,13.1,0,0,1,3.4-.6l4.3-.7h4.6a13.7,13.7,0,0,1,5.6,1.8,10.1,10.1,0,0,1,5.9,5.9,16.7,16.7,0,0,1,.5,6.8,75.8,75.8,0,0,1-3,8.6,56.2,56.2,0,0,1-3.8,6.8c-1.7,3.1-4.4,7.4-7.9,12.8l-7.9,11.9a116.3,116.3,0,0,0-6.4,11.9c-2,4.9-2.8,8.4-2.6,10.7s3.2,4.5,7.7,5.1a31.4,31.4,0,0,0,13.2-.4q11.5-2.6,26.4-11.1a158.9,158.9,0,0,0,23.3-16.6,221.3,221.3,0,0,0,20.6-20.5,178.3,178.3,0,0,0,16.6-23.4A2.8,2.8,0,0,1,1601.9,956.6Zm-132.7-13.8c1.4,2,4.4,3.5,8.9,4.7a30.1,30.1,0,0,0,7.3.8c4.8-4.8,9-9.3,12.7-13.6a238.3,238.3,0,0,0,18.8-22.2,33.3,33.3,0,0,0,6-12.3c1.1-4.6.7-8-1.3-10.2s-4.4-2.7-8.1-2.2a11.5,11.5,0,0,0-2.2.4,10,10,0,0,1-2.5,1.3c-1.7,1.2-3.6,2.4-5.5,3.9a110.3,110.3,0,0,0-20.5,18.3c-6.8,8.2-11.2,15.9-13.2,23a22.3,22.3,0,0,0-1.3,5.5A4.5,4.5,0,0,0,1469.2,942.8Z" transform="translate(-80.9 -610.4)" style="fill:url(#Degradado_sin_nombre_39-5)"/><path d="M1757,957.1c.7,1.8.1,3-1.9,3.6v.4c-15.4,5.1-28.7,9.1-40.1,11.9-16.7,3.7-30.8,5.4-42.2,5.2-8.2-.6-15.2-2.2-20.8-4.7a33.8,33.8,0,0,1-12.8-9.8,86,86,0,0,1-6,14.9,124.6,124.6,0,0,1-10.6,18.7,37.9,37.9,0,0,1-8.1,8.6,12,12,0,0,1-3.4,1.7,13.6,13.6,0,0,1-3,.4,5.2,5.2,0,0,1-3.4-1.3,2.7,2.7,0,0,1-1.3-1.3l-.4-.8a15.6,15.6,0,0,1-1.3-1.3c-.3-.9-.7-2-1.3-3.4a34.9,34.9,0,0,1-1.7-11.5,67.8,67.8,0,0,1,0-11.1c.6-4.8,1.4-10.1,2.6-15.8a3.2,3.2,0,0,1-1.3-.8c-2.6-2.6-2.7-5.3-.5-8.1h.5a11.6,11.6,0,0,0,1.7-3.4,19.1,19.1,0,0,0,2.1-4.3,93.9,93.9,0,0,0,3.4-8.9v-.5l.4-.8c.6-1.4,1.8-2.1,3.7-2.1a9,9,0,0,1,5.5,2.1c1.8,1.4,2.5,3,1.9,4.7v.4l-.4,1.3-.9,2.5-1.2,5.2-2.2,9.8c-1.7,7.1-2.9,13.7-3.8,20a51.8,51.8,0,0,0-.9,9.8,29.7,29.7,0,0,0,.5,8.9c0,.9.1,1.5.4,1.7a28,28,0,0,0,6.8-5.9,81.5,81.5,0,0,0,11.1-17.1,101.5,101.5,0,0,0,7.7-18.7,37.1,37.1,0,0,1-2.6-20.9,47.7,47.7,0,0,0,1.3-5.5l1.3-2.6c.2-.6.5-1.1.6-1.5a3.9,3.9,0,0,1,.6-1.1,1.8,1.8,0,0,1,.9-.4l.4-.4h1.3a1.7,1.7,0,0,1,1.3.4c.3,0,.5.2.8.4a1.9,1.9,0,0,1,.5,1.3l.4.9v1.3a7.3,7.3,0,0,1,.4,2.5,36.5,36.5,0,0,1,.4,5.5,64.3,64.3,0,0,1-2.5,20.5,26.7,26.7,0,0,0,12.8,11.5c5.4,2.6,11.9,4,19.6,4.3,11.3.3,24.8-1.5,40.4-5.1a354.8,354.8,0,0,0,39.7-12.8Q1756,954.3,1757,957.1ZM1637.9,947c.3-3.4.4-6.6.4-9.8v0A41.1,41.1,0,0,0,1637.9,947Z" transform="translate(-80.9 -610.4)" style="fill:url(#Degradado_sin_nombre_39-6)"/><path d="M1898.2,956.4c1.5,1.2,1.7,2.4.9,3.9a103.3,103.3,0,0,1-24.7,24.7c-11.4,7.6-22.6,11.6-33.7,11.9a26.2,26.2,0,0,1-9.4-.8,29.3,29.3,0,0,1-8.9-4.3,26.1,26.1,0,0,1-11.9-15.4,49.1,49.1,0,0,1-2.2-17.8c-13,14.4-20.7,22.8-23,25.1a101.3,101.3,0,0,1-9.8,8.9,44.3,44.3,0,0,1-13.2,6.9,15.3,15.3,0,0,1-8.5,0,15.8,15.8,0,0,1-8.1-5.6,23.5,23.5,0,0,1-3-8.1,26.3,26.3,0,0,1-.4-4.7,16.1,16.1,0,0,0,.4-3.4c1.4-8.8,5.3-17.4,11.5-26a96.4,96.4,0,0,1,19.6-19.1,89.1,89.1,0,0,1,23.9-13.2,44.1,44.1,0,0,1,13.6-3.5c3.4-.2,6.1.2,8.1,1.3a8.4,8.4,0,0,1,3.8,3.9,9.3,9.3,0,0,1,.5,5.1c-.3,1.7-1.5,2.4-3.4,2.1s-2.3-.9-2.6-2.6v-.4a1.8,1.8,0,0,0-.4-1.3c0-.2-.3-.5-.9-.8a9.5,9.5,0,0,0-4.2,0,42.2,42.2,0,0,0-11.1,4.2,116.2,116.2,0,0,0-20.9,13.3,108.2,108.2,0,0,0-16.6,17.9c-5.1,6.8-8.4,13.7-9.8,20.8,0,.3-.2,1.2-.4,2.6v2.1a8.5,8.5,0,0,0,.8,3.9,12,12,0,0,0,2.6,2.5,14.8,14.8,0,0,0,3.8.4,32.7,32.7,0,0,0,10.7-4.2,76.1,76.1,0,0,0,9.8-7.7,125.5,125.5,0,0,0,30.6-40.9c2.3-3.1,5-3.5,8.1-1.3s2.7,3.4,2.2,6a77.1,77.1,0,0,0-3,15.8,42.2,42.2,0,0,0,.8,14.9,17.3,17.3,0,0,0,7.7,10.6,21.9,21.9,0,0,0,13.2,4.3c9.4,0,19.3-3.1,29.8-9.4a107.7,107.7,0,0,0,23.9-22.2A2.4,2.4,0,0,1,1898.2,956.4Z" transform="translate(-80.9 -610.4)" style="fill:url(#Degradado_sin_nombre_39-7)"/></svg>