<svg id="Capa_1" data-name="Capa 1" xmlns="http://www.w3.org/2000/svg" xmlns:xlink="http://www.w3.org/1999/xlink" viewBox="0 0 1733.4 806.3"><defs><linearGradient id="Degradado_sin_nombre_39" x1="169.86" y1="780.51" x2="1829.73" y2="755.74" gradientUnits="userSpaceOnUse"><stop offset="0" stop-color="#fff9de"/><stop offset="1" stop-color="#464ca3"/></linearGradient><linearGradient id="Degradado_sin_nombre_39-2" x1="173.49" y1="1023.99" x2="1833.37" y2="999.22" xlink:href="#Degradado_sin_nombre_39"/><linearGradient id="Degradado_sin_nombre_39-3" x1="171.45" y1="887.07" x2="1831.32" y2="862.29" xlink:href="#Degradado_sin_nombre_39"/></defs><path d="M1311.1,514.1q-18.9,30.3-48.1,80.2-63,109.8-101,171.1-60.6,96.8-114,164.5a942.7,942.7,0,0,1-66.6,76.1q-39.1,39.8-76.6,65.9-45.7,32.7-91.5,46.4a250.3,250.3,0,0,1-25,6.5,247.6,247.6,0,0,1-26.7,3,186.8,186.8,0,0,1-26.7-1.8l-13.1-3-12.5-4.1a113.2,113.2,0,0,1-45.1-29.7,124.7,124.7,0,0,1-15.5-22,108.2,108.2,0,0,1-10.7-25,128.6,128.6,0,0,1-4.7-52.3,156.4,156.4,0,0,1,14.2-50.5A125.2,125.2,0,0,1,679,897.3a150.9,150.9,0,0,1,45.2-26.2,146.1,146.1,0,0,1,51.1-9.5q28.5.6,50.5,13.7c3.5,2,4.3,4.7,2.3,8.3s-4.7,4.4-8.3,2.4c-12.7-7.5-27.5-11.1-44.5-10.7a122.7,122.7,0,0,0-45.8,8.9,132.5,132.5,0,0,0-40.4,24.9A103.9,103.9,0,0,0,662.4,946a138.5,138.5,0,0,0-11.3,45.1,125.5,125.5,0,0,0,4.7,45.8,114.9,114.9,0,0,0,9.6,20.8,121.6,121.6,0,0,0,13.6,17.8,96.9,96.9,0,0,0,37.4,24.3l10.7,3c6.8,1.6,10.5,2.4,11.3,2.4a194.1,194.1,0,0,0,22.6,1.2,194.6,194.6,0,0,0,23.2-3c7.1-1.6,14.6-3.6,22.6-5.9q41.6-13.6,84.3-44.6,36.9-26.7,73.1-64.1,31.5-32.1,64.2-74.3,49.8-64.8,111.1-162.8,10.6-17.2,102.1-170.5,17.3-29.1,30.3-50.5c-4.3,1.6-8.5,3-12.4,4.2a336.1,336.1,0,0,1-48.8,12.4c-1.5.4-9.9,2-24.9,4.8l-25,3a762.9,762.9,0,0,1-100.4,4.1c-4.3,0-21-.6-49.9-1.8-3.5-.4-8.4-.8-14.5-1.2l-10.4-.6c-12.3-.7-20.6-1.3-25-1.7q-74.2-7.2-197.8-26.8l-98-14.8c-15.5-2.4-31.7-4.8-48.8-7.2l-49.3-6.5c-41.6-4.7-74.2-7.9-98-9.5-34.5-1.6-66.9-.2-97.4,4.2q-51.7,7.1-93.9,24.9-46.9,19.6-80.8,52.9-36.3,35.7-49.3,81.4-14.2,47.6,2.4,93.9a143.3,143.3,0,0,0,22,42.1A133.5,133.5,0,0,0,206.1,820a145.9,145.9,0,0,0,42.8,18.4,69.8,69.8,0,0,1,7.7,1.8q-13.7-11.9-26.1-32.1a11.5,11.5,0,0,1-1.2-8.9,12.4,12.4,0,0,1,5.3-7.4,11.4,11.4,0,0,1,9.2-1.5,11.1,11.1,0,0,1,7.5,5.4,4.9,4.9,0,0,1,.6,1.7c5.1,12.7,11,22.8,17.8,30.3s15.4,12.9,24.9,14.9h1.2a13.3,13.3,0,0,1,10.7,5.6,11.1,11.1,0,0,1,1.8,6.3,11.8,11.8,0,0,1-3.3,8.3,12.6,12.6,0,0,1-8,4.2h-1.8a256.7,256.7,0,0,1-26.1-3.6,204.2,204.2,0,0,1-25.6-6.5q-26.7-9-46.3-23.2-42.7-30.9-59.4-83.2a171.4,171.4,0,0,1-2.4-101.6q13.7-48.1,52.3-86.7,33.9-34.5,83.8-57.1,43.3-19.5,96.8-27.9a561.3,561.3,0,0,1,101-6.5c24.6.8,57.8,3.2,99.8,7.1q44.5,4.2,99.2,11.9c36.5,5.2,69.1,10,98.1,14.6s61.5,9.4,98,14.5,69.3,9.1,98.6,11.9c37.2,4,69.9,6.5,98,7.7a662.8,662.8,0,0,0,98.1-1.2l24.3-2.3c14.7-2,22.8-3.2,24.4-3.6a417.6,417.6,0,0,0,47.5-10.7c9.5-2.8,19.2-6.1,29.1-10.1,4.4-7.1,7.3-11.9,8.9-14.3q36.3-55.8,59.4-81.4c6.4-6.7,12.5-12.8,18.5-18.4,8.3-6.7,16-11.7,23.1-14.8a38.4,38.4,0,0,1,13.7-4.2l4.1-.6h4.8a16,16,0,0,1,7.1,4.2,18.2,18.2,0,0,1,2.4,6.5,18.7,18.7,0,0,1-1.2,8.9,33.1,33.1,0,0,1-1.8,6.6c-.8,1.5-2.5,5.5-5.3,11.8A178.2,178.2,0,0,1,1389,457a268.4,268.4,0,0,1-38.6,33.9A320.5,320.5,0,0,1,1311.1,514.1Zm511-96.3a12,12,0,0,1-2.4,8.9,11,11,0,0,1-7.7,4.8h-.6q-56.4,4.2-112.3,26.7-51.7,21.4-100.4,58.8-44.5,34.5-85.6,80.8a839.3,839.3,0,0,0-70.7,94.5,967.4,967.4,0,0,0-57,103.4,988.4,988.4,0,0,0-45.1,109.9c-6.4,19.8-11.9,38.6-16.7,56.4-5.5,20.6-9.9,39.8-13,57.6q-5.4,32.7-7.2,58.3a237.2,237.2,0,0,0-.6,29.1,198.7,198.7,0,0,0,3,27.9,12.1,12.1,0,0,1-2.4,8.9,10.8,10.8,0,0,1-7.7,4.8c-5.5,1.2-9.7-.8-12.5-6a227.8,227.8,0,0,1-43.3-67.7c-10.3-23.8-17.1-50.3-20.2-79.6q-7.8-70,10.1-160.4,13-66,41.5-153.3l24.4-74.9c5.1-15.8,8.7-28.3,10.7-37.4a108.1,108.1,0,0,0,3.6-19c.7-7.1.6-12.7-.6-16.6v-.6c-1.2-4,.2-6.6,4.1-7.8s6,.6,7.2,4.2c1.9,5.6,2.7,12.9,2.3,22a184.2,184.2,0,0,1-2.9,20.2c-2,9.9-5.2,23-9.5,39.2-1.6,5.9-3.3,12.4-5.1,19.3s-3.6,13.2-5.3,18.7-3.7,12-5.7,19.3-3.8,13.6-5.3,18.7q-26.9,93.9-37.5,152.1c-4.3,26.6-7.3,52.1-8.9,76.7q-2.4,42.1,1.8,76.6,5.4,42.2,18.4,73.1a195.6,195.6,0,0,0,19,35.6q.6-11.2,2.4-24.9a535.3,535.3,0,0,1,10.1-59.4c4.8-20.6,9.9-40,15.5-58.2,5.5-19.8,11.6-38.9,18.4-57.1q42.1-118.2,103.4-215.6a816.6,816.6,0,0,1,70.7-96.9q40.9-48.7,86.1-84.3a469.5,469.5,0,0,1,102.8-64.2A389.6,389.6,0,0,1,1809,407.7a9.8,9.8,0,0,1,4.8,0,10.7,10.7,0,0,1,4.1,2.1,13.1,13.1,0,0,1,3,3.6A8.6,8.6,0,0,1,1822.1,417.8Zm-453.3,10.7q-19.6,26.1-43.4,62.4c6.3-3.6,12.3-7.1,17.8-10.7s11.9-8.9,19-14.9a136.3,136.3,0,0,0,17.3-16.6,150.3,150.3,0,0,0,27.9-39.2c1.2-2.8,2.6-6.3,4.2-10.7.3-1.6.7-3.4,1.1-5.3v-1.2H1411a43.2,43.2,0,0,0-9.5,4.1Q1387.1,405.4,1368.8,428.5Zm43.9-38v0Z" transform="translate(-128.8 -376.8)" style="fill:url(#Degradado_sin_nombre_39)"/><path d="M1686,864l-.6.6c-19.4,20.6-33.4,35-42.2,43.4a540.2,540.2,0,0,1-46.3,39.2c-25.3,19.8-41,32.2-46.9,37.4a366.2,366.2,0,0,0-74.3,92.7c-4.7,9.1-8.9,18.2-12.5,27.3a130,130,0,0,0-7.1,27.9c-1.2,11.1-.4,20.2,2.4,27.4,2,4.7,4.2,7.9,6.8,9.5a9.9,9.9,0,0,0,8.6.6,28.4,28.4,0,0,0,8.3-7.8,50.8,50.8,0,0,0,6.6-12.4c3.1-6.4,6.9-15.5,11.3-27.4,5.1-13.8,11.3-32.7,18.4-56.4,4.7-15.1,10.3-34.3,16.6-57.6q18.5-69,26.2-117.7c1.5-12.2,2.5-22,2.9-29.1v-7.1a9.9,9.9,0,0,1-.6-3l-.6-1.8a1.7,1.7,0,0,1,1.2.6h0l-1.2,1.2a65.7,65.7,0,0,0-5.3,4.8c-2.4,2.7-5.9,7-10.7,12.7s-7.5,9.2-8.3,10.4a155.9,155.9,0,0,1-21.4,22c-9.1,7.9-18.6,12.9-28.5,14.9-4,.8-7.4.4-10.1-1.2a9.7,9.7,0,0,1-4.2-4.8,11.2,11.2,0,0,1-1.2-5.3c-.4-4,.2-9.3,1.8-16.1s4.8-18.2,9.5-29.7c2-5.1,6-14.6,11.9-28.5l13.1,9.5a41.9,41.9,0,0,0-5.4,4.8l-5.3,5.9c-3.6,4-7.4,7.9-11.3,11.9q-3,3-6,0a4.5,4.5,0,0,1-.5-4.8c2.7-4.7,5.3-9.5,7.7-14.2l4.1-7.1a44.3,44.3,0,0,1,4.8-7.8c3.2-3.9,6.7-4.3,10.7-1.2s4.7,6.2,2.4,10.1v.6a224.7,224.7,0,0,0-14.9,25.6c-5.5,10.7-9.3,19.8-11.3,27.3-2,5.6-2.8,9.9-2.4,13.1s.4,3.2,1.2,3.6,1.8.4,4.2,0c7.9-1.6,16-5.8,24.3-12.5,6.4-5.2,13.3-12.3,20.8-21.4l8.7-11c4.1-5.4,7.6-9.6,10.4-12.8a67,67,0,0,1,5.3-5.9,7,7,0,0,0,1.8-1.2,6.2,6.2,0,0,1,2.4-1.2,6.4,6.4,0,0,1,4.7-.6,8.9,8.9,0,0,1,4.2,2.4,25.1,25.1,0,0,1,2.3,5.3,13.3,13.3,0,0,1,.6,4.2,44.1,44.1,0,0,1,.6,8.3,277.1,277.1,0,0,1-2.3,30.9q-6.6,48.8-22.6,118.8-16,67.8-33.9,117.1a267.7,267.7,0,0,1-12.5,27.9,95,95,0,0,1-9.5,13.7c-4.3,5.5-9.1,9.3-14.2,11.2a18.8,18.8,0,0,1-10.1,1.8,18.3,18.3,0,0,1-10.1-4.1c-4.4-3.2-7.7-8.4-10.1-15.5q-4.2-13.1-1.2-32.1,4.8-26.7,21.4-57.6a335,335,0,0,1,35-50.5,323,323,0,0,1,42.2-43.4q6.6-6.4,47.5-38a418.2,418.2,0,0,0,45.2-38.6c11.9-11.5,25.5-26.1,41-44,2-1.9,3.9-2.1,5.9-.6S1687.6,862,1686,864Z" transform="translate(-128.8 -376.8)" style="fill:url(#Degradado_sin_nombre_39-2)"/><path d="M1860.1,858.3q3.6,2.1,1.2,5.1v.6c-16.3,24.2-31.1,42.8-44.6,55.8-9.9,9.5-19.6,16.9-29.1,22-13.1,7.1-25.1,10.5-36.2,10.1a35.7,35.7,0,0,1-19.6-5.3,60.8,60.8,0,0,1-15.5-13.1c-6.7-7.5-12.5-17-17.2-28.5l-19.6,18.4a197.9,197.9,0,0,1-26.8,20.2c-4.7,2.8-8.5,1.9-11.2-2.7s-1.8-8.2,2.9-11a1.7,1.7,0,0,1,1.2-.6c7.5-2.7,16.3-7.7,26.2-14.8,7.1-5.6,14.8-11.9,23.1-19a242,242,0,0,1-6.5-27.4h-1.8c-5.1-1.9-6.9-5.5-5.3-10.6a57.5,57.5,0,0,0,3.5-13.7c.4-2.8.8-7.9,1.2-15.5a7.1,7.1,0,0,1,2.4-5.6,8.7,8.7,0,0,1,5.9-2.1,7.4,7.4,0,0,1,4.2,1.2,7.7,7.7,0,0,1,2.7,3,7.9,7.9,0,0,1,.9,3.5v.6a195.8,195.8,0,0,0,7.1,53.5q11.8-10.6,32.7-32.1c21.3-21.8,36.6-36.8,45.7-45.1s18.8-15.9,25.6-20.2a87.5,87.5,0,0,1,15.4-8.3c7.1-2.4,13.5-3.4,19-3a7.2,7.2,0,0,1,5.7,2.4,8.8,8.8,0,0,1,2,5.9,6.7,6.7,0,0,1-2.6,5.6,9.1,9.1,0,0,1-5.7,2.1,4.6,4.6,0,0,1-1.8-.6c-3.1-.8-7.1-.4-11.8,1.2a61.3,61.3,0,0,0-13.7,5.4c-7.5,3.9-16.1,9.7-25.6,17.2-11.4,9.1-26.9,23.4-46.3,42.8l-22.6,23.1c-1.6,1.2-5.9,5.6-13,13.1a1.7,1.7,0,0,0,.6,1.2,2.4,2.4,0,0,0,.5,1.8c4.4,11.9,9.6,21.4,15.5,28.5l4.7,5.9,6,4.8a59,59,0,0,0,5.9,3.6,28.7,28.7,0,0,0,7.2,2.3,36,36,0,0,0,16,0,47.1,47.1,0,0,0,15.4-5.3,126.2,126.2,0,0,0,28-19.6c15.4-15.1,29.7-33.5,42.7-55.3Q1856.5,856.4,1860.1,858.3Z" transform="translate(-128.8 -376.8)" style="fill:url(#Degradado_sin_nombre_39-3)"/></svg>