<svg id="Capa_1" data-name="Capa 1" xmlns="http://www.w3.org/2000/svg" xmlns:xlink="http://www.w3.org/1999/xlink" viewBox="0 0 1096.3 731.6"><defs><linearGradient id="Degradado_sin_nombre_39" x1="413.95" y1="747.08" x2="1380.15" y2="740.89" gradientUnits="userSpaceOnUse"><stop offset="0" stop-color="#fff9de"/><stop offset="1" stop-color="#464ca3"/></linearGradient><linearGradient id="Degradado_sin_nombre_39-2" x1="414.19" y1="784.34" x2="1380.38" y2="778.14" xlink:href="#Degradado_sin_nombre_39"/><linearGradient id="Degradado_sin_nombre_39-3" x1="414.15" y1="777.25" x2="1380.34" y2="771.06" xlink:href="#Degradado_sin_nombre_39"/><linearGradient id="Degradado_sin_nombre_39-4" x1="413.78" y1="720.93" x2="1379.98" y2="714.74" xlink:href="#Degradado_sin_nombre_39"/><linearGradient id="Degradado_sin_nombre_39-5" x1="414.25" y1="794.11" x2="1380.45" y2="787.92" xlink:href="#Degradado_sin_nombre_39"/></defs><path d="M984.1,594.2a216.1,216.1,0,0,1,8.6,91.2A220.1,220.1,0,0,1,982,729.7,165.4,165.4,0,0,1,962,771q-24.7,37.5-65.2,63.5a243.9,243.9,0,0,1-83.5,33.3,280.9,280.9,0,0,1-89.9,3.4,333.6,333.6,0,0,1-69.5-15.8q-6,14.6-11.1,26.4-27.3,64.4-53.2,110a530.4,530.4,0,0,1-33.3,51.5,22.6,22.6,0,0,1-3,4.1c-1.1,1.2-2.3,2.7-3.6,4.4a36,36,0,0,0-2.7,3.9,16.6,16.6,0,0,0-1.8,1.9l-1.9,2.3a9.8,9.8,0,0,1-1.5,1.7l-2.5,3-2.6,3a154.2,154.2,0,0,1-23.8,20.9,109,109,0,0,1-27.7,15.3,126.6,126.6,0,0,1-15.4,5.1l-15.7,2.2H437.9c-9.4-1.7-14.5-2.7-15.4-3q-11.4-2.5-29.4-11.1-3.7-2.1-2.1-6c1.1-2.2,3-2.9,5.5-2.1l.5.4c11.3,4.9,20.6,8,27.7,9.4l14,1.7h14.5l14.1-2.5c7.1-2.3,11.6-3.9,13.6-4.7a96.7,96.7,0,0,0,24.7-14.5,157,157,0,0,0,21.3-20l2.6-2.6,2.1-3a16.7,16.7,0,0,0,1.5-1.7,22.5,22.5,0,0,0,1.7-2.1,8,8,0,0,1,1.5-1.7l2.1-3,2.4-3a19.4,19.4,0,0,0,2.1-3,22.7,22.7,0,0,0,1.9-3.4,515.5,515.5,0,0,0,31.6-50.7q29.7-55.3,61.7-134.6l-1.2-.5a474.9,474.9,0,0,1-80.1-40q-3.9-2.1-1.5-6c1.5-2.5,3.6-3.1,6.1-1.7,26.7,16.8,52.9,30,78.4,39.6l1.3.5q10.6-26.4,30.3-79.7,27.6-74.1,43-113.3,26.9-66.9,49.4-112.1a578,578,0,0,1,30.7-53.3,309.3,309.3,0,0,1,26.9-37,242.1,242.1,0,0,0-37.1-12,235.1,235.1,0,0,0-42.6-6.4,313.7,313.7,0,0,0-43.1,1.3q-47.7,5.6-80.5,29A127.4,127.4,0,0,0,568.7,526c-4.8,14.8-6.3,28.7-4.3,41.8,2,15.1,8.1,27,18.3,35.8a54,54,0,0,0,17.5,10.2,82.2,82.2,0,0,0,20.5,4.3,97.3,97.3,0,0,0,20.4-1.3,93.7,93.7,0,0,0,19.6-6.4c12-5.4,23-13.8,33.3-25.1a146.2,146.2,0,0,0,23-35,7.3,7.3,0,0,1,4.7-4.2,8,8,0,0,1,6.6.2,8.1,8.1,0,0,1,4.4,4.7,8.4,8.4,0,0,1,0,6.6l-.4.4a63.7,63.7,0,0,1-5.1,8.5,95.2,95.2,0,0,0-1.7,13.2,218.1,218.1,0,0,0,.4,23.9,7.5,7.5,0,0,1-.6,4.7,10.4,10.4,0,0,1-2.8,3.4,7.1,7.1,0,0,1-4.3,1.3,7.8,7.8,0,0,1-6.1-2,8.3,8.3,0,0,1-3.2-5.7v-1.7c.5-5.1,1.1-10.1,1.7-14.9-2.3,2.5-4.4,4.8-6.4,6.8-11.7,11.6-24.4,20.3-38.4,26a94.2,94.2,0,0,1-46,7.2,90.8,90.8,0,0,1-23-5.5,65.9,65.9,0,0,1-20.4-12.4,58.9,58.9,0,0,1-14.1-19.1,73.1,73.1,0,0,1-4.3-11.1,71.1,71.1,0,0,1-2.5-11.5c-2-14.5-.4-29.7,4.7-45.6A137.7,137.7,0,0,1,580.6,483,146.4,146.4,0,0,1,613,450.6a158.6,158.6,0,0,1,40.1-21.3,237.5,237.5,0,0,1,43.8-10.6,319.5,319.5,0,0,1,45.2-3,237.9,237.9,0,0,1,45.2,5.1,305.6,305.6,0,0,1,44.3,13.6c0-.3.1-.4.4-.4a230.4,230.4,0,0,1,22.6-21.3,188,188,0,0,1,26-17.5,127.1,127.1,0,0,1,60.5-15.7c3.1,0,4.7,1.4,4.7,4.2s-1.4,4.4-4.3,4.7a129.6,129.6,0,0,0-28.7,4.9A114.7,114.7,0,0,0,886.1,405a160.4,160.4,0,0,0-23.8,17.1A214.4,214.4,0,0,0,843.9,440a268.5,268.5,0,0,1,96.3,74.1A239.9,239.9,0,0,1,984.1,594.2Zm-7.2,89.1c.6-7.4.8-14.5.8-21.3s-.2-14.1-.8-20.9a230.7,230.7,0,0,0-9-41.8q-12.3-39.1-40.9-74.1a234.3,234.3,0,0,0-29.6-31.1,281.3,281.3,0,0,0-34.3-26,261.6,261.6,0,0,0-29.4-16.2,421.1,421.1,0,0,0-27.3,39.2c-9,15.1-18.6,32.7-28.5,52.8q-20.9,42.3-47.7,110.8c-4.3,11.1-8.8,23-13.7,35.8l-15.7,42q-8.5,22.8-13.2,36c-12.5,32.9-22.8,59.2-30.7,78.8a304.5,304.5,0,0,0,67.7,14.5c30.1,3.4,59,2,86.5-4.3a239.4,239.4,0,0,0,79.3-33.6q37.5-24.7,59.6-60.5A151.4,151.4,0,0,0,967.9,725c1.7-5.4,3.6-12.2,5.6-20.4S976,690.7,976.9,683.3Z" transform="translate(-390.5 -379.5)" style="fill:url(#Degradado_sin_nombre_39)"/><path d="M1159.3,771c1.4,1.5,1.4,2.9,0,4.3-6.9,6-11.4,9.8-13.7,11.5a168.8,168.8,0,0,1-14,10.7,137.5,137.5,0,0,1-30.7,17.4c-13.1,5.4-25,8-35.8,7.7a49.9,49.9,0,0,1-9.4-.9l-4.7-1.2a20.5,20.5,0,0,1-5.1-2.6,32.6,32.6,0,0,1-13.6-14.9,29.3,29.3,0,0,1-3.4-9.8c-.3-3.1-.5-6.4-.5-9.8a46.8,46.8,0,0,1,5.2-19.2,55.5,55.5,0,0,1,11.9-14.9,50.1,50.1,0,0,1,16.6-10.2l5.1-1.3a21,21,0,0,1,7.3.4,14.9,14.9,0,0,1,5.5,5.1,14.1,14.1,0,0,1,1.7,6.9,13.3,13.3,0,0,1-1.3,5.5,47.1,47.1,0,0,1-2.1,4.7,24.2,24.2,0,0,1-6.4,7.7,38,38,0,0,1-17,8.9,49.3,49.3,0,0,1-14.5,1.3,37.4,37.4,0,0,0-.5,5.5,25,25,0,0,0,.5,7.7,17.9,17.9,0,0,0,2.1,6.4c1.7,4,4.8,7.5,9.4,10.6,2.8,2.3,7.5,3.9,14,4.7,10.5,1.2,21.5-.1,32.9-3.8q29.4-10.6,56.2-38.4C1156.4,769.6,1157.8,769.6,1159.3,771Zm-93.4-22.1c-10.2,4.2-17.6,11.1-22.1,20.4a5.8,5.8,0,0,0-1.3,2.6,60.3,60.3,0,0,0,10.2-1.7,29.6,29.6,0,0,0,13.2-8.1,21.8,21.8,0,0,0,4.3-6c.3-.8.7-2,1.3-3.4a11.3,11.3,0,0,0,.4-3,2.5,2.5,0,0,0-1.3-2.1l-1.7.4A7.1,7.1,0,0,0,1065.9,748.9Z" transform="translate(-390.5 -379.5)" style="fill:url(#Degradado_sin_nombre_39-2)"/><path d="M1262.8,769.1c1.4,1.3,1.6,2.7.4,4.1a265.5,265.5,0,0,1-35.8,29.4,219.3,219.3,0,0,1-20,12.3,111.9,111.9,0,0,1-21.7,9,44.9,44.9,0,0,1-12.8,1.3,29.8,29.8,0,0,1-13.2-3.9,14.9,14.9,0,0,1-5.6-6.8,23,23,0,0,1-1.2-7.7,56.3,56.3,0,0,1,1.7-12.7c1.7-5.4,3.8-11.3,6.4-17.5a4.2,4.2,0,0,1-3.9-.9c-1.7-2-1.8-3.9-.4-5.9,6-7.4,11.4-14.2,16.2-20.5,2.5-3.1,5.4-3.5,8.5-1.3a5.9,5.9,0,0,1,2.6,5.6v.4c-.3,1.1-.7,2.6-1.3,4.3s-.7,1.5-1.3,2.9-1.3,3.3-2.1,5.6l-2.6,5.1a34.6,34.6,0,0,0-2.1,5.1,217.7,217.7,0,0,0-8.5,20.5,41.2,41.2,0,0,0-2.2,9.3,12.7,12.7,0,0,0,.5,3.9,5.5,5.5,0,0,0,1.2,2.1c4.3,3.4,10.4,4.5,18.4,3.4a63.9,63.9,0,0,0,20.8-6.8,122.9,122.9,0,0,0,19.6-11.1,154.9,154.9,0,0,0,18.4-13.2,128.3,128.3,0,0,0,16.2-15.8C1260.1,767.9,1261.4,767.8,1262.8,769.1Zm-77.1-25.8c-2.6,1.5-4.6.9-6-1.7a4.1,4.1,0,0,1,.4-4.6l.5-.9a16,16,0,0,0,2.1-4.7,22.7,22.7,0,0,0,1.3-5.9,6,6,0,0,1,3-4.7,7.3,7.3,0,0,1,5.5-1.3,6.7,6.7,0,0,1,4.7,3,8.2,8.2,0,0,1,1.3,5.5l-.9,2.6-.4.4c-1.7,2.5-3.3,4.7-4.7,6.4A35.3,35.3,0,0,1,1185.7,743.3Z" transform="translate(-390.5 -379.5)" style="fill:url(#Degradado_sin_nombre_39-3)"/><path d="M1447.7,646.2c1.7.3,2.6,1.4,2.6,3.4a2.8,2.8,0,0,1-3,2.6h-.4q-39.3-5.1-120.6-3.9-11.5,28.7-14.1,34.5l-17,44.4c-6.6,17-11.8,31.8-15.8,44.3-2.8,8.5-5.2,16-7.2,22.6-2.6,9-4.2,16.4-4.7,22.1a36.5,36.5,0,0,0-.4,5.5,11.2,11.2,0,0,0,.4,2.2v.8l.4.9a14.4,14.4,0,0,0,4.3,7.2,12.1,12.1,0,0,0,8.1,3.4,37.4,37.4,0,0,0,11-1.7c6-1.7,12.7-5.2,20.1-10.6a129.8,129.8,0,0,0,17.9-14.9,175.6,175.6,0,0,0,27.2-38,2.6,2.6,0,0,1,3.9-1.2c1.7.8,2.1,2.1,1.3,3.8v.4a222.5,222.5,0,0,1-29.5,37.9,140.5,140.5,0,0,1-17.8,16.2,93,93,0,0,1-21.4,12.4,45.7,45.7,0,0,1-12.3,3c-5.4.8-10.1,0-14.1-2.6a19.8,19.8,0,0,1-9.3-11.5l-.9-1.7a9.6,9.6,0,0,1-.4-2.1,32.2,32.2,0,0,0-.4-3.9,47.4,47.4,0,0,1,.4-6.3c.5-6.3,2.1-14.4,4.7-24.3,1.9-6.8,4.2-14.5,6.8-23a20.7,20.7,0,0,0,.8-2,5.9,5.9,0,0,0,.5-1.4c-2.3,4.2-4,6.8-5.2,7.6s-.8.9-1.7.9a2.9,2.9,0,0,1-2.1-.9c-1.1-1.7-1-3.1.4-4.2q4.3-4.4,36.3-78.9c.2-.8.9-2.5,1.9-5.1s1.7-4.5,2.3-5.9c3.1-7.7,7.1-17.7,11.9-29.9l-80.5,2.6c-16.2.8-25.7,1.3-28.5,1.3a2.8,2.8,0,0,1-3-2.6,2.8,2.8,0,0,1,2.1-3.4l19.6-5.1c2-.6,3.3,0,3.9,1.7a3.1,3.1,0,0,1-.9,3,10.6,10.6,0,0,1,3.4-.5h3q51.1-2.1,83.1-2.5c1.7-4.3,4-9.9,7-16.8s5.7-13.4,8.1-19.2,4.6-11.3,6.6-16.4,4-4.7,7.7-3,4.4,3.5,3,7.2c-4.9,12.8-11.1,28.7-18.8,47.8Q1408.9,641.1,1447.7,646.2Z" transform="translate(-390.5 -379.5)" style="fill:url(#Degradado_sin_nombre_39-4)"/><path d="M1485.6,770.2a2.4,2.4,0,0,1,.5,3.8,78.2,78.2,0,0,1-11.5,11.1,52.1,52.1,0,0,1-14.5,7.7,38.3,38.3,0,0,1-31.6-1.7c-5.4-2.3-13.7-8.6-25.1-18.8l-.4-.4-.4-.4c.2,2,.5,3.9.8,5.9a85.3,85.3,0,0,1,0,12.4,54.3,54.3,0,0,1-6.8,23,36,36,0,0,1-8.1,9.8,27.9,27.9,0,0,1-12.4,6.4,22.3,22.3,0,0,1-7.2-.4,17.8,17.8,0,0,1-7.3-2.6,28.4,28.4,0,0,1-8.9-10.6c-3.7-7.1-5-15.7-3.8-25.6a68.9,68.9,0,0,1,6.8-23.4,66.4,66.4,0,0,1,6.8-10.7,27.3,27.3,0,0,1,5.1-4.7,19.8,19.8,0,0,1,7.7-3.8l.8.4a5.2,5.2,0,0,1,5.6,0l2.5,1.3a3.5,3.5,0,0,0,1.5.8,4.9,4.9,0,0,1,1.5.9,42.4,42.4,0,0,1,5.6,3.8,45.7,45.7,0,0,1,4.2,5.1,74.1,74.1,0,0,1,9.8,9c10,9.6,17.8,15.9,23.4,18.7a34.5,34.5,0,0,0,28.6,1.3,36.7,36.7,0,0,0,12.4-7.2,67.2,67.2,0,0,0,10.6-10.7A2.4,2.4,0,0,1,1485.6,770.2Zm-89.4,18.7c.8-8.2-.2-14.9-3-20a22,22,0,0,0-6.4-6.8,9.8,9.8,0,0,0-3.8-2.1,10.8,10.8,0,0,1-2.6-.9h-1.3a12.2,12.2,0,0,0-.8,3.4,40,40,0,0,1-5.1,8.1,37.1,37.1,0,0,1-6.9,6.8,7.4,7.4,0,0,0-2.5,1.7,51.3,51.3,0,0,0-3.4,12.4c-.9,7.4-.2,13.6,2.1,18.7s7,9.3,12.4,9a18.3,18.3,0,0,0,8.1-3.4,24.1,24.1,0,0,0,6.8-7.3A41.1,41.1,0,0,0,1396.2,788.9Zm-24.3-25.5a45.4,45.4,0,0,0-5.1,7.6,13.3,13.3,0,0,0,2.9-2.9,27.3,27.3,0,0,0,3-5.6h-.4Zm0-8.5a4.8,4.8,0,0,0-1.3-.9Z" transform="translate(-390.5 -379.5)" style="fill:url(#Degradado_sin_nombre_39-5)"/></svg>