<svg id="Capa_1" data-name="Capa 1" xmlns="http://www.w3.org/2000/svg" xmlns:xlink="http://www.w3.org/1999/xlink" viewBox="0 0 937.4 739.9"><defs><linearGradient id="Degradado_sin_nombre_39" x1="695.39" y1="687.58" x2="1420.03" y2="693.77" gradientUnits="userSpaceOnUse"><stop offset="0" stop-color="#fff9de"/><stop offset="1" stop-color="#464ca3"/></linearGradient><linearGradient id="Degradado_sin_nombre_39-2" x1="695.11" y1="719.79" x2="1419.76" y2="725.99" xlink:href="#Degradado_sin_nombre_39"/><linearGradient id="Degradado_sin_nombre_39-3" x1="695.19" y1="710.69" x2="1419.83" y2="716.88" xlink:href="#Degradado_sin_nombre_39"/></defs><path d="M1467.1,841.6a83.6,83.6,0,0,1,2.2,19.4,126.4,126.4,0,0,1-6.9,36.6c-7.5,21.9-19.8,42.5-37.1,62.1q-47,53.4-121.9,70.7-65.1,15.4-141.4.8a305.5,305.5,0,0,1-129.3-56.4,386.6,386.6,0,0,1-52.1-48.3q-18.9-21.2-44.4-55.6l-41.4-56c-9.2-11.5-17.8-21.4-25.8-29.8-5.8,0-11.1-.1-16-.4a175.1,175.1,0,0,1-44.8-9.5c-7.7,19.6-14.8,36.7-21.1,51.3q-27.6,65.6-53.9,111.6a531.9,531.9,0,0,1-33.6,52.2,22.6,22.6,0,0,1-3,4.1c-1.1,1.3-2.4,2.8-3.7,4.5l-2.8,3.9-1.7,1.9-1.9,2.4-1.5,1.7-2.6,3-2.6,3a158.4,158.4,0,0,1-24.1,21.2,109.7,109.7,0,0,1-28,15.5,130.7,130.7,0,0,1-15.6,4.7l-15.9,2.6-16.4-.4-4.7-.5-6-.8a20.9,20.9,0,0,1-4.8-1.3c-7.7-1.7-17.7-5.5-29.7-11.2-2.6-1.5-3.3-3.5-2.2-6.1s3-3,5.6-2.1l.5.4c11.5,4.9,20.8,8.1,28,9.5l14.2,1.7h14.6l14.3-2.6c7.1-2.3,11.7-3.8,13.8-4.7a95.6,95.6,0,0,0,24.9-14.7,154.8,154.8,0,0,0,21.6-20.2l2.6-2.6,2.1-3,2.2-2.4,2.6-3.2c.3-.3,1.6-2,3.9-5.2a73.1,73.1,0,0,0,4.7-7.3,527.5,527.5,0,0,0,31.9-51.3Q754,868,792.7,768.3a107.6,107.6,0,0,1-9.9-6,115.9,115.9,0,0,1-15.1-11.2c-2.9-2.9-5-5.2-6.4-6.9l-1.8-1.7a16,16,0,0,1-2.1-2.6,16.9,16.9,0,0,1-3-6,15.7,15.7,0,0,1,0-9.1,13.1,13.1,0,0,1,6.9-8.2,17.1,17.1,0,0,1,7.7-1.7,20.9,20.9,0,0,1,3.5.4l2.1.5a56.3,56.3,0,0,1,9.1,1.3l9,2.1a132.4,132.4,0,0,1,16.4,5.6q3.9-9.9,6.9-18.9,28.1-75,43.5-115.1,27.2-67.2,50-112.9a591.6,591.6,0,0,1,31-53.9,336.2,336.2,0,0,1,32.8-44.4A261.4,261.4,0,0,0,921.6,368a293.3,293.3,0,0,0-34.5-2.2c-10.6.3-22.1,1.2-34.5,2.6q-37.1,4.8-65.5,19.9-31.1,16.8-48.7,45.6-20.7,34.1-14.6,63.4a49.9,49.9,0,0,0,15,27.1,45.5,45.5,0,0,0,13,9.1,74.1,74.1,0,0,0,15.1,4.7,97.3,97.3,0,0,0,32.7.5,88.3,88.3,0,0,0,30.2-12.1c18.6-11.2,33.3-27.2,43.9-47.8a9.8,9.8,0,0,1,5.2-4.4,7.4,7.4,0,0,1,6.5.5,9.5,9.5,0,0,1,4.3,5.1,7.4,7.4,0,0,1-.5,6.5c0,.3-.1.4-.4.4l-.4.9-.4.4c-1.2,3.5-3.1,8.3-5.9,14.5s-4.6,10.8-5.8,14c-2.6,6.3-4.7,11.5-6.4,15.5s-1.6,5.4-2.2,7.7l-.9,3.5-.4,1.7v2.6a8.3,8.3,0,0,1-3.2,5.6,8.8,8.8,0,0,1-6.5,1.7,8.7,8.7,0,0,1-5.8-3,8,8,0,0,1-1.7-6.5,13.7,13.7,0,0,1,.4-3.4,12.6,12.6,0,0,1,.9-2.6c0-.6.5-2.1,1.7-4.7a73.4,73.4,0,0,1,3.9-8.6,138.8,138.8,0,0,1-19,12.9q-34.5,19.8-72.8,11.2a87.7,87.7,0,0,1-17.7-6A69,69,0,0,1,730.7,533a63.8,63.8,0,0,1-17.3-33.6c-2.3-11.7-1.6-24.1,2.2-37a112.6,112.6,0,0,1,14.6-33.6c12.7-20.4,30.3-36.5,53-48.3,19.9-10.6,42.5-17.5,68.1-20.7a273.4,273.4,0,0,1,35.4-2.6,253.2,253.2,0,0,1,35.7,1.7,287.5,287.5,0,0,1,57.8,13.4,187.5,187.5,0,0,1,21.1-19.8,183.6,183.6,0,0,1,26.3-17.7,129.7,129.7,0,0,1,61.2-15.9c2.8,0,4.4,1.4,4.7,4.3s-1.4,4.4-4.3,4.7a132.2,132.2,0,0,0-29.1,5,116.5,116.5,0,0,0-26.9,11.8A157.8,157.8,0,0,0,1009,362c-4.8,4.3-10,9.3-15.5,15a272.3,272.3,0,0,1,60.4,33.7,213,213,0,0,1,50.8,50.8,171.6,171.6,0,0,1,29.3,65.9,184.5,184.5,0,0,1,3.5,36.2,208.7,208.7,0,0,1-4.3,36.2,245.6,245.6,0,0,1-10.8,35c-2.6,6-5.2,11.4-7.8,16.3a105.8,105.8,0,0,1-9.5,16c-12.3,18.4-29.1,35.7-50.4,52.1a326.5,326.5,0,0,1-61.6,36.6A288.2,288.2,0,0,1,888,784.3c5.4,6.6,11.3,13.9,17.6,22q3.4,4.7,41,57.3c16.3,22.7,30.6,41.1,42.6,55.1a349.8,349.8,0,0,0,50,47.4,275.7,275.7,0,0,0,59,35.4,322.9,322.9,0,0,0,65.6,20.7,353.8,353.8,0,0,0,68.9,6.9c24.7.2,47.5-2.2,68.5-7.4,23.9-5.7,45.1-14.2,63.8-25.4a199,199,0,0,0,52.1-43.9c15.6-18.4,26.3-38.1,32.4-59.1a97,97,0,0,0,4.3-32.3,49.6,49.6,0,0,0-2.2-15.5,39,39,0,0,0-6.4-12.9,8.6,8.6,0,0,1-1.6-6.7,8.3,8.3,0,0,1,3.5-5.6,9.1,9.1,0,0,1,6.5-1.5,8.2,8.2,0,0,1,5.8,3.4c0,.3.1.4.4.4A59.1,59.1,0,0,1,1467.1,841.6ZM791.4,748.5l6.9,4.3c1.7-4.3,3.5-8.7,5.2-13.3a104.9,104.9,0,0,0-14.7-4.8c-3.4-.8-6.1-1.4-8.2-1.7a53.9,53.9,0,0,0-8.1-1.7h-1.3l.4.4,1.3,1.7c1.1,1.2,3,3.1,5.6,5.6A93.2,93.2,0,0,0,791.4,748.5Zm28-2.1c-1.1,2.6-2.8,7-5.1,13.3a137.3,137.3,0,0,0,36.2,7.8l-.9-.9a3.1,3.1,0,0,0-1.1-.8,2.1,2.1,0,0,0-1.1-.5A158.3,158.3,0,0,0,819.4,746.4Zm13-34.1-7.8,19.8a189.5,189.5,0,0,1,32.3,21.6c5.2,4.3,10.5,9.2,16,14.6,15.2-.2,31.4-2.3,48.7-6a325,325,0,0,0,123.2-56.4c19.5-15,35.3-30.9,47.4-47.9a88.1,88.1,0,0,0,8.6-14.2,141.6,141.6,0,0,0,7.4-15.1,196.1,196.1,0,0,0,10.7-31.9,202.9,202.9,0,0,0,4.8-33.6,157.4,157.4,0,0,0-2.6-33.2,168,168,0,0,0-26.3-62,215.5,215.5,0,0,0-47-49.1,243.4,243.4,0,0,0-59.9-33.7l-1.3-.4a354.1,354.1,0,0,0-34,47q-13.8,22.8-28.9,53.4Q902.6,528,875.5,597.3c-4.4,11.2-9,23.2-13.8,36.2l-16,42.4C840,691.3,835.5,703.4,832.4,712.3Z" transform="translate(-531.9 -318.9)" style="fill:url(#Degradado_sin_nombre_39)"/><path d="M1292.6,714.9a2.7,2.7,0,0,1,0,4.3q-10.3,9-13.8,11.7a174.4,174.4,0,0,1-14.2,10.7,140.8,140.8,0,0,1-31,17.7c-13.3,5.5-25.3,8-36.2,7.8a50.1,50.1,0,0,1-9.5-.9l-4.8-1.3a20.5,20.5,0,0,1-5.1-2.6,32.4,32.4,0,0,1-13.8-15.1,31.6,31.6,0,0,1-3.5-9.9c-.3-3.1-.4-6.4-.4-9.9a47.2,47.2,0,0,1,5.2-19.4,54.8,54.8,0,0,1,12-15.1,50.6,50.6,0,0,1,16.8-10.3c2-.6,3.8-1,5.2-1.3a21,21,0,0,1,7.3.4,14,14,0,0,1,5.6,5.2,13.1,13.1,0,0,1,1.8,6.9,15.6,15.6,0,0,1-1.3,5.6c-.9,2-1.6,3.6-2.2,4.7a24.8,24.8,0,0,1-6.4,7.8,38.2,38.2,0,0,1-17.3,9,46.8,46.8,0,0,1-14.6,1.3,38.7,38.7,0,0,0-.5,5.6,22.8,22.8,0,0,0,.5,7.8,17.1,17.1,0,0,0,2.1,6.5c1.7,4,4.9,7.6,9.5,10.7,2.9,2.3,7.6,3.9,14.2,4.8a80.7,80.7,0,0,0,33.2-3.9q29.7-10.8,56.9-38.8A2.7,2.7,0,0,1,1292.6,714.9Zm-94.4-22.4c-10.3,4.3-17.8,11.2-22.4,20.7a5.3,5.3,0,0,0-1.3,2.6,55,55,0,0,0,10.4-1.8,29.9,29.9,0,0,0,13.3-8.1,24,24,0,0,0,4.3-6.1c.3-.8.7-2,1.3-3.4a13.3,13.3,0,0,0,.5-3,2.7,2.7,0,0,0-1.3-2.2l-1.8.4A7.1,7.1,0,0,0,1198.2,692.5Z" transform="translate(-531.9 -318.9)" style="fill:url(#Degradado_sin_nombre_39-2)"/><path d="M1436.5,714.5q2.3,1.7.9,3.9a103.5,103.5,0,0,1-25,24.9c-11.5,7.8-22.8,11.8-34,12.1a26.4,26.4,0,0,1-9.5-.8,28.3,28.3,0,0,1-9.1-4.4,26.9,26.9,0,0,1-12-15.5,48.4,48.4,0,0,1-2.2-18.1c-13.2,14.7-21,23.2-23.3,25.5a119.1,119.1,0,0,1-9.9,9c-4.9,3.5-9.3,5.8-13.3,6.9a14.3,14.3,0,0,1-8.7,0,15.8,15.8,0,0,1-8.1-5.6,22.3,22.3,0,0,1-3.1-8.2,42.6,42.6,0,0,1-.4-4.7,17.7,17.7,0,0,0,.4-3.5c1.5-8.9,5.4-17.6,11.7-26.3a96.2,96.2,0,0,1,19.8-19.4,93.4,93.4,0,0,1,24.1-13.3,45.2,45.2,0,0,1,13.8-3.5c3.5-.2,6.2.2,8.2,1.3a9.2,9.2,0,0,1,3.9,3.9,9.7,9.7,0,0,1,.4,5.2c-.3,1.7-1.4,2.4-3.4,2.1s-2.3-.8-2.6-2.6V683a2.2,2.2,0,0,0-.4-1.3c0-.3-.3-.5-.9-.8a10,10,0,0,0-4.3,0c-3.2.5-6.9,2-11.2,4.3a112.3,112.3,0,0,0-21.1,13.3,106.2,106.2,0,0,0-16.8,18.1,53.5,53.5,0,0,0-10,21.1,16,16,0,0,1-.4,2.6v2.2a8.6,8.6,0,0,0,.9,3.9,10.7,10.7,0,0,0,2.6,2.6,21.1,21.1,0,0,0,3.8.4,35.1,35.1,0,0,0,10.8-4.3,64.6,64.6,0,0,0,9.9-7.8c13.5-12.1,23.9-25.8,31-41.4,2.3-3.1,5.1-3.5,8.2-1.2a5.3,5.3,0,0,1,2.2,6,78,78,0,0,0-3,15.9,43,43,0,0,0,.8,15.1,17.8,17.8,0,0,0,7.8,10.8,22.3,22.3,0,0,0,13.4,4.3c9.4,0,19.5-3.2,30.1-9.5a109.8,109.8,0,0,0,24.2-22.4A2.4,2.4,0,0,1,1436.5,714.5Z" transform="translate(-531.9 -318.9)" style="fill:url(#Degradado_sin_nombre_39-3)"/></svg>