<svg id="Capa_1" data-name="Capa 1" xmlns="http://www.w3.org/2000/svg" xmlns:xlink="http://www.w3.org/1999/xlink" viewBox="0 0 415.6 328"><defs><linearGradient id="Degradado_sin_nombre_3" x1="774.81" y1="517.77" x2="1096.08" y2="515.02" gradientTransform="matrix(1, 0, 0, -1, -554.44, 702.42)" gradientUnits="userSpaceOnUse"><stop offset="0" stop-color="#fff9de"/><stop offset="1" stop-color="#464ca3"/></linearGradient><linearGradient id="Degradado_sin_nombre_3-2" x1="774.69" y1="503.49" x2="1095.96" y2="500.74" xlink:href="#Degradado_sin_nombre_3"/><linearGradient id="Degradado_sin_nombre_3-3" x1="774.72" y1="507.52" x2="1095.99" y2="504.78" xlink:href="#Degradado_sin_nombre_3"/></defs><path d="M562.5,252.9a36.1,36.1,0,0,1,1,8.6,56.7,56.7,0,0,1-3.1,16.3A80.4,80.4,0,0,1,544,305.3q-20.8,23.7-54.1,31.3-28.8,6.9-62.7.4a136.4,136.4,0,0,1-57.3-25,173.4,173.4,0,0,1-23.1-21.4c-5.6-6.3-12.1-14.5-19.7-24.7l-18.3-24.8c-4.1-5.1-7.9-9.5-11.5-13.2l-7-.2a75.1,75.1,0,0,1-19.9-4.2c-3.4,8.7-6.6,16.3-9.4,22.7a445.3,445.3,0,0,1-23.9,49.5,228.2,228.2,0,0,1-14.9,23.2,10.2,10.2,0,0,1-1.3,1.8,17.5,17.5,0,0,0-1.6,2l-1.3,1.7-.7.8-.9,1.1-.6.8-1.2,1.3-1.1,1.3a72.8,72.8,0,0,1-10.7,9.4,50.3,50.3,0,0,1-12.4,6.9c-2.3.8-4.6,1.5-7,2.1l-7,1.1h-7.3l-2.1-.3-2.6-.3a7.3,7.3,0,0,1-2.1-.6,62.7,62.7,0,0,1-13.2-5,1.9,1.9,0,0,1-1-2.7c.5-1.1,1.3-1.3,2.5-.9l.2.2a69.4,69.4,0,0,0,12.4,4.2l6.3.7H176l6.3-1.1,6.2-2.1a43.7,43.7,0,0,0,11-6.5,68.2,68.2,0,0,0,9.6-9l1.1-1.1,1-1.3.9-1.1,1.2-1.4,1.7-2.3a30.2,30.2,0,0,0,2.1-3.3,231.7,231.7,0,0,0,14.1-22.7q15.2-27.9,32.3-72.1l-4.4-2.6a64.8,64.8,0,0,1-6.7-5l-2.8-3-.8-.8a3.4,3.4,0,0,1-.9-1.2,7.2,7.2,0,0,1-1.4-2.6,6.8,6.8,0,0,1,0-4,6,6,0,0,1,3.1-3.7,6.7,6.7,0,0,1,3.4-.7h1.6l.9.3a17.5,17.5,0,0,1,4,.5l4,1a48.4,48.4,0,0,1,7.3,2.5c1.1-3,2.2-5.8,3-8.4l19.3-51.1q12.1-29.7,22.2-50A268.5,268.5,0,0,1,329,67.8a147.6,147.6,0,0,1,14.6-19.7A126.2,126.2,0,0,0,305.4,42c-4.7.1-9.8.5-15.3,1.1-11,1.5-20.7,4.4-29.1,8.9a55.4,55.4,0,0,0-21.6,20.2c-6.1,10.1-8.2,19.4-6.4,28.1a22.4,22.4,0,0,0,6.6,12,19.4,19.4,0,0,0,5.8,4,26.1,26.1,0,0,0,6.7,2.1,41.6,41.6,0,0,0,14.5.2,38.8,38.8,0,0,0,13.4-5.3,52.4,52.4,0,0,0,19.4-21.2,5,5,0,0,1,2.3-2,3.3,3.3,0,0,1,2.9.3,4.1,4.1,0,0,1,1.9,2.2,3.3,3.3,0,0,1-.2,2.9c0,.1,0,.2-.2.2l-.2.4v.2c-.6,1.5-1.4,3.6-2.6,6.4a62.3,62.3,0,0,0-2.6,6.2c-1.2,2.8-2.1,5.1-2.9,6.9a13.2,13.2,0,0,0-.9,3.4l-.4,1.5-.2.8v1.1a3.5,3.5,0,0,1-1.4,2.5,4.3,4.3,0,0,1-2.9.8,4,4,0,0,1-2.6-1.4,3.5,3.5,0,0,1-.7-2.8,6.6,6.6,0,0,1,.1-1.5l.4-1.2a10.2,10.2,0,0,1,.8-2.1c.5-1.3,1.1-2.6,1.7-3.8a61.9,61.9,0,0,1-8.4,5.7,43.6,43.6,0,0,1-32.3,5,36,36,0,0,1-7.8-2.7,29.4,29.4,0,0,1-7.1-5,28.4,28.4,0,0,1-7.6-14.9,34.2,34.2,0,0,1,.9-16.4,53.5,53.5,0,0,1,6.5-14.9,58.7,58.7,0,0,1,23.5-21.4,85.5,85.5,0,0,1,30.2-9.2,117.2,117.2,0,0,1,15.7-1.1,118.6,118.6,0,0,1,15.8.7,125.3,125.3,0,0,1,25.6,6,86.7,86.7,0,0,1,9.4-8.8,82.8,82.8,0,0,1,11.7-7.9,58.1,58.1,0,0,1,27.1-7,1.9,1.9,0,0,1,2.1,1.9,1.8,1.8,0,0,1-1.9,2.1,56.2,56.2,0,0,0-12.9,2.2,53.2,53.2,0,0,0-12,5.2,67.5,67.5,0,0,0-10.7,7.7c-2.1,1.9-4.4,4.1-6.9,6.7a117,117,0,0,1,26.8,14.9,92.5,92.5,0,0,1,22.5,22.5,75.4,75.4,0,0,1,13,29.2,79.2,79.2,0,0,1,1.6,16.1,95.7,95.7,0,0,1-1.9,16,103.1,103.1,0,0,1-4.8,15.5c-1.2,2.7-2.3,5.1-3.5,7.3a50.9,50.9,0,0,1-4.2,7.1c-5.4,8.1-12.9,15.8-22.3,23.1a147.7,147.7,0,0,1-27.3,16.2,128.2,128.2,0,0,1-46.6,12.6l7.8,9.8,18.1,25.4c7.3,10.1,13.6,18.2,18.9,24.4a152.1,152.1,0,0,0,22.2,21A119.8,119.8,0,0,0,399,323.8a141.7,141.7,0,0,0,29,9.2,165.4,165.4,0,0,0,30.6,3.1,122.2,122.2,0,0,0,30.4-3.3,96.2,96.2,0,0,0,28.2-11.3,88.1,88.1,0,0,0,23.1-19.4,70.1,70.1,0,0,0,14.4-26.2,41.4,41.4,0,0,0,1.9-14.4,19.7,19.7,0,0,0-1-6.8,16.4,16.4,0,0,0-2.8-5.8,3.8,3.8,0,0,1-.7-2.9,3.7,3.7,0,0,1,1.5-2.5,4.3,4.3,0,0,1,2.9-.7,3.7,3.7,0,0,1,2.6,1.5c0,.2,0,.2.2.2A28.6,28.6,0,0,1,562.5,252.9ZM262.9,211.7l3.1,1.9c.8-1.9,1.6-3.9,2.3-5.9a49.7,49.7,0,0,0-6.5-2.2l-3.6-.7a23.3,23.3,0,0,0-3.6-.8H254l.2.2.5.8,2.5,2.4A47.3,47.3,0,0,0,262.9,211.7Zm12.5-1c-.5,1.2-1.3,3.1-2.3,5.9a59.6,59.6,0,0,0,16,3.5l-.4-.4c-.1-.2-.3-.3-.4-.4l-.5-.2A79.5,79.5,0,0,0,275.4,210.7Zm5.7-15.1-3.4,8.8A89.4,89.4,0,0,1,292,214c2.3,1.9,4.6,4,7.1,6.4a115.3,115.3,0,0,0,21.6-2.6,144.4,144.4,0,0,0,54.6-25,102.8,102.8,0,0,0,21-21.3,33,33,0,0,0,3.8-6.3,69.5,69.5,0,0,0,3.3-6.7,77.8,77.8,0,0,0,4.7-14.1,83.7,83.7,0,0,0,2.2-14.9,72.4,72.4,0,0,0-1.2-14.7,74.4,74.4,0,0,0-11.6-27.5,96.1,96.1,0,0,0-20.9-21.8,108.1,108.1,0,0,0-26.5-14.9l-.6-.2a162.2,162.2,0,0,0-15.1,20.8c-4.1,6.8-8.3,14.7-12.8,23.7-6.2,12.7-13.4,29.2-21.4,49.7-1.9,5-4,10.3-6.1,16.1L287,179.5l-5.9,16.1Z" transform="translate(-147.9 -21.2)" style="fill:url(#Degradado_sin_nombre_3)"/><path d="M485.2,196.8a1.1,1.1,0,0,1,.2,1.6l-.2.3c-3.1,2.6-5.1,4.4-6.2,5.2s-4.1,3.2-6.3,4.7a59.9,59.9,0,0,1-13.7,7.8,39.1,39.1,0,0,1-16.1,3.5,19.9,19.9,0,0,1-4.2-.4l-2.1-.6a7,7,0,0,1-2.3-1.1,14.7,14.7,0,0,1-6.1-6.7,14.3,14.3,0,0,1-1.5-4.4,31,31,0,0,1-.2-4.4,20.1,20.1,0,0,1,2.3-8.6,26.6,26.6,0,0,1,5.3-6.7,24.1,24.1,0,0,1,7.5-4.6l2.3-.5a8.6,8.6,0,0,1,3.2.1,7.9,7.9,0,0,1,2.5,2.3,6.8,6.8,0,0,1,.8,3.1,5.4,5.4,0,0,1-.6,2.5,21.7,21.7,0,0,1-1,2.1,10.2,10.2,0,0,1-2.8,3.4,16.3,16.3,0,0,1-7.7,4,19.9,19.9,0,0,1-6.4.6,19,19,0,0,0-.3,2.5,9.8,9.8,0,0,0,.3,3.4,7,7,0,0,0,.9,2.9,11.1,11.1,0,0,0,4.2,4.8q2,1.5,6.3,2.1A34.8,34.8,0,0,0,458,214c8.8-3.2,17.2-9,25.2-17.2a1.2,1.2,0,0,1,1.7-.3Zm-41.9-10a18.3,18.3,0,0,0-9.9,9.2,2.3,2.3,0,0,0-.6,1.2,36.9,36.9,0,0,0,4.6-.8,13.9,13.9,0,0,0,5.9-3.6,10.1,10.1,0,0,0,1.9-2.7,7.7,7.7,0,0,1,.6-1.5,6.8,6.8,0,0,0,.2-1.4,1,1,0,0,0-.6-.9h-.8Z" transform="translate(-147.9 -21.2)" style="fill:url(#Degradado_sin_nombre_3-2)"/><path d="M548.9,196.6c.7.5.9,1.1.4,1.7a46.4,46.4,0,0,1-11,11.1c-5.1,3.4-10.1,5.2-15.1,5.3a11.8,11.8,0,0,1-4.2-.3,13,13,0,0,1-4.1-2,12.3,12.3,0,0,1-5.3-6.9,23.8,23.8,0,0,1-1-8c-5.8,6.5-9.3,10.3-10.3,11.3a41.8,41.8,0,0,1-4.4,4,17.8,17.8,0,0,1-5.9,3.1,6.2,6.2,0,0,1-3.8,0,7.2,7.2,0,0,1-3.6-2.5,10,10,0,0,1-1.4-3.6c-.1-.7-.1-1.4-.2-2.1a8.8,8.8,0,0,0,.2-1.6,27.8,27.8,0,0,1,5.2-11.6,39.9,39.9,0,0,1,8.8-8.6,38.5,38.5,0,0,1,10.7-5.9,18.4,18.4,0,0,1,6.1-1.6,6.5,6.5,0,0,1,3.6.6,3.5,3.5,0,0,1,1.7,1.7,3.7,3.7,0,0,1,.2,2.3q-.2,1.2-1.5.9c-.9-.1-1-.3-1.1-1.1v-.2a1.4,1.4,0,0,0-.2-.6l-.4-.3a3.1,3.1,0,0,0-1.9,0,16.6,16.6,0,0,0-5,1.9,47.2,47.2,0,0,0-9.3,5.9,51.6,51.6,0,0,0-7.5,8,23.9,23.9,0,0,0-4.4,9.4c-.1.4-.1.7-.2,1.1v1a3.3,3.3,0,0,0,.4,1.7,4.3,4.3,0,0,0,1.1,1.2l1.7.2a20,20,0,0,0,4.8-1.9,30.8,30.8,0,0,0,4.4-3.5,55.7,55.7,0,0,0,13.8-18.4,2.3,2.3,0,0,1,3.6-.5,2.4,2.4,0,0,1,1,2.7,33.4,33.4,0,0,0-1.4,7,21.4,21.4,0,0,0,.4,6.7,8,8,0,0,0,3.4,4.8,10.2,10.2,0,0,0,6,1.9c4.2,0,8.6-1.4,13.3-4.2a50.9,50.9,0,0,0,10.8-9.9,1,1,0,0,1,1.4-.4Z" transform="translate(-147.9 -21.2)" style="fill:url(#Degradado_sin_nombre_3-3)"/></svg>