<svg id="Capa_1" data-name="Capa 1" xmlns="http://www.w3.org/2000/svg" xmlns:xlink="http://www.w3.org/1999/xlink" viewBox="0 0 1507 1168.9"><defs><linearGradient id="Degradado_sin_nombre_39" x1="172.57" y1="915.48" x2="1764.32" y2="890.7" gradientUnits="userSpaceOnUse"><stop offset="0" stop-color="#fff9de"/><stop offset="1" stop-color="#464ca3"/></linearGradient><linearGradient id="Degradado_sin_nombre_39-2" x1="171.62" y1="854.47" x2="1763.37" y2="829.69" xlink:href="#Degradado_sin_nombre_39"/><linearGradient id="Degradado_sin_nombre_39-3" x1="169.65" y1="727.4" x2="1761.39" y2="702.63" xlink:href="#Degradado_sin_nombre_39"/><linearGradient id="Degradado_sin_nombre_39-4" x1="171.7" y1="859.05" x2="1763.44" y2="834.28" xlink:href="#Degradado_sin_nombre_39"/><linearGradient id="Degradado_sin_nombre_39-5" x1="171.61" y1="853.58" x2="1763.35" y2="828.8" xlink:href="#Degradado_sin_nombre_39"/><linearGradient id="Degradado_sin_nombre_39-6" x1="171.79" y1="864.84" x2="1763.53" y2="840.06" xlink:href="#Degradado_sin_nombre_39"/></defs><path d="M965.7,349.4q4.2,13.7,0,33.3a175.3,175.3,0,0,1-8.3,29.1c-2.3,7.5-6.3,16.6-11.9,27.3q-12.4,23.3-32.6,49.3-30.9,39.9-76.7,80.8c.4,8.8,2.1,41.3,5.1,97.8s4.8,99.7,5.6,129.8q1.8,68.3-2.3,116.4l-1.2,9.5c-.4,3.2-.8,6.8-1.2,10.7s-.8,7.2-1.2,9.5q-1.8,13.1-5.4,29.1a586.4,586.4,0,0,1-16.6,57.1,507.8,507.8,0,0,1-52.3,105.7q-35.1,53-80.2,87.4a302.3,302.3,0,0,1-51.1,31.4c-2.4,1.2-5.9,2.8-10.7,4.8v.6c-10.7,16.2-21.9,32.1-33.8,47.5s-24.6,30.5-38.1,45.2a694.5,694.5,0,0,1-84.9,79.6,509.7,509.7,0,0,1-47.5,33.8q-27.4,17.3-52.3,26.8c-4,1.6-6.6.4-7.7-3.6s-.6-6.1,2.9-7.7c14.7-6.3,31.1-15.7,49.3-27.9a423.9,423.9,0,0,0,45.2-34.5,859.5,859.5,0,0,0,80.8-79.6c12.3-14.7,23.9-29.5,35-44.6,2.4-3.1,8-10.9,16.7-23.1l.6-.6-11.3,3a333.5,333.5,0,0,1-58.8,7.7,47.5,47.5,0,0,1-8.7.6h-6.2c-4.7,0-9.7-.2-14.8-.6a249.7,249.7,0,0,1-29.7-4.2,215.7,215.7,0,0,1-55.9-20.8,187.9,187.9,0,0,1-24.9-15.4c-1.6-.8-5.6-3.8-11.9-8.9s-10.1-8.4-11.3-9.5a193.5,193.5,0,0,1-36.3-47,197.1,197.1,0,0,1-20.2-55.8,247.7,247.7,0,0,1-5.9-58.8l.6-14.3c.4-6.7.8-11.7,1.2-14.8l1.8-14.9,1.2-7.1,1.7-7.2a301,301,0,0,1,44-108.7c.4-.4,3.4-4.3,8.9-11.9,0-.4,1.2-2,3.6-5l5.3-6.8,9.5-11.3,5.4-5.4a11.1,11.1,0,0,1,2.7-3c1.3-1.1,2-1.9,2-2.3l11.3-10.1a12.9,12.9,0,0,1,3.3-3.3l4.4-3.3a36.7,36.7,0,0,0,3.6-2.9c3.2-2.8,11.3-8.5,24.4-17.3,20.2-12.2,38.2-20.8,54-25.5l7.2-2.4a26,26,0,0,0,4.1-.6q3-.6,3-1.2l14.8-2.9a235.6,235.6,0,0,1,30.3-3,261.7,261.7,0,0,1,30.3,1.8,145.4,145.4,0,0,1,29.7,6.5,129.2,129.2,0,0,1,28.6,11.9A131.9,131.9,0,0,1,657.4,814a134.5,134.5,0,0,1,20.8,23.8,175.5,175.5,0,0,1,14.9,26.7q11.9,26.1,16.6,58.2a360.5,360.5,0,0,1,3.6,59.4q0,6.6-1.8,29.7c-1.6,14.7-2.6,24.4-3,29.2q-7.8,55.2-30.3,114a603.6,603.6,0,0,1-31.5,67.2c9.1-6,17.6-12.1,25.6-18.5,28.1-22.1,52.6-49.7,73.6-82.5q29.7-45.2,48.7-101c6.4-18.2,11.7-36.3,16.1-54.1,2-9.9,3.6-18.8,4.7-26.7.4-2.4.8-5.4,1.2-8.9s.8-7,1.2-10.1a72.8,72.8,0,0,0,.6-9q3.6-40.4,2.4-114c0-15.9-.4-33.3-1.2-52.3s-1.6-35.8-2.4-50.5-1.7-32.5-2.7-53.5-1.6-38.2-2-51.7q-33.9,28.1-72.5,54.1Q635.4,713.6,532.1,745.1l-3.6,1.2-3.3,1.2-3.5,1.2a14.3,14.3,0,0,1-3.9.6l-13.7,4.1q-15.5,3.6-29.1,5.4-29.7,4.7-58.2,6.5-63,4.8-117-1.2a12.6,12.6,0,0,1-10.7-13.7c.8-5.5,3.7-8.9,8.9-10.1a4.2,4.2,0,0,1,4.1-1.1,153.3,153.3,0,0,0,42.2-4.8,177.9,177.9,0,0,0,19.6-5.9,87.5,87.5,0,0,0,18.4-8.4,11.1,11.1,0,0,1,9.2-1.7A10.8,10.8,0,0,1,399,724a13.4,13.4,0,0,1,1.2,9.2,10.6,10.6,0,0,1-5.4,7.1,7,7,0,0,0-1.8,1.2,122.3,122.3,0,0,1-19.6,6c15.1.8,29.3,1,42.8.6a541.5,541.5,0,0,0,56.4-4.8,259.2,259.2,0,0,0,28-4.1c5.1-1.2,9.7-2.4,13.6-3.6a34,34,0,0,0,6.3-1.5l7.4-2.1A550.8,550.8,0,0,0,582,713.6c17-6.7,34.4-14.3,52.2-22.6,19.4-9.5,36.3-18.6,50.5-27.3q28.5-16.7,48.8-30.3a816.7,816.7,0,0,0,77.8-60.6v-5.3c-.4-17.9-.6-27.6-.6-29.2q-.6-21.3-.6-29.1,0-33.1,5.3-59.4a218.5,218.5,0,0,1,20.8-57.6c11.1-19.8,24.2-35.7,39.2-47.5A91.4,91.4,0,0,1,902.8,328a54.1,54.1,0,0,1,17.2-4.1,77.5,77.5,0,0,1,17.2.6c2,.4,5,1.2,8.9,2.3l4.8,2.4a42.3,42.3,0,0,0,4.2,3C960.6,337.3,964.2,343.1,965.7,349.4ZM574.8,1254.8a249.7,249.7,0,0,0,33.9-12.4,609.4,609.4,0,0,0,48.1-96.3q20.9-55.8,27.9-108.1,0-2.4,3-28.5c1.2-14.7,1.8-24,1.8-28a340.4,340.4,0,0,0-3-55.2q-4.2-29.1-14.2-52.3a205,205,0,0,0-13.1-23.8A109.3,109.3,0,0,0,642,830.6a136.1,136.1,0,0,0-20.8-16,149.5,149.5,0,0,0-24.4-10.7,137.7,137.7,0,0,0-26.1-5.9,210.1,210.1,0,0,0-27.4-1.8A199.8,199.8,0,0,0,516,798l-7.1,1.5a26,26,0,0,0-6,1.4l-2.9.3a22,22,0,0,0-4.2.9l-6.5,1.8q-21.4,6-49.9,22.6c-12.7,7.9-20.4,13.1-23.2,15.4l-3.3,3a26.7,26.7,0,0,1-4.1,3,10.5,10.5,0,0,0-3.3,2.9l-10.7,9.5-1.5,1.5a11.9,11.9,0,0,1-1.8,1.5,4.4,4.4,0,0,0-1.4,1.8l-4.8,4.8-9.5,10.6a59.3,59.3,0,0,0-5,6,50.5,50.5,0,0,1-3.9,4.7c-5.2,7.2-7.9,10.9-8.3,11.3a285.7,285.7,0,0,0-44,102.8l-1.2,6.5-1.2,7.2-1.8,13.6a71.6,71.6,0,0,0-1.1,14.3l-1.2,14.3a265.1,265.1,0,0,0,4.7,55.8,210.3,210.3,0,0,0,19,52.3,178.3,178.3,0,0,0,33.9,43.9q40.9,38.7,98.6,49.4a229.3,229.3,0,0,0,27.4,2.9,77.2,77.2,0,0,0,13.6,0l6.3-.3a62,62,0,0,0,8-.9A263.9,263.9,0,0,0,574.8,1254.8ZM946.7,379.1q2.4-14.9-.6-23.7l-.6-1.8c-.7-.8-1.1-1.4-1.1-1.8s-.4-1-1.2-1.8-1.4-1.2-1.8-1.2c-1.6-1.6-4.4-2.7-8.3-3.5a51.7,51.7,0,0,0-11.3,0,38.8,38.8,0,0,0-10.7,2.9,94.9,94.9,0,0,0-21.4,13.7q-19.1,15.5-32.7,41.6c-8.3,15-14.2,32.1-17.8,51.1-3.2,15.8-4.7,34-4.7,54.6,0,5.2.1,14.7.5,28.5v13.1q38.7-36.7,64.8-72.5,18.5-24.9,29.1-47.5c5.2-9.9,8.7-18.2,10.7-24.9A149.3,149.3,0,0,0,946.7,379.1Z" transform="translate(-289 -323.7)" style="fill:url(#Degradado_sin_nombre_39)"/><path d="M1127.9,828.9c2,1.9,2,3.9,0,5.9-9.5,8.3-15.8,13.7-19,16a207.6,207.6,0,0,1-19.6,14.9,194.2,194.2,0,0,1-42.8,24.4q-27.3,11.3-49.9,10.6a71.3,71.3,0,0,1-13-1.1l-6.6-1.8a31.7,31.7,0,0,1-7.1-3.6,46,46,0,0,1-19-20.8,42.5,42.5,0,0,1-4.8-13.6c-.3-4.4-.6-9-.6-13.7a65,65,0,0,1,7.2-26.7,74.7,74.7,0,0,1,16.6-20.8,69,69,0,0,1,23.2-14.3c2.8-.8,5.1-1.4,7.1-1.8a26.9,26.9,0,0,1,10.1.6,19.4,19.4,0,0,1,7.7,7.1,19,19,0,0,1,2.4,9.6,19.9,19.9,0,0,1-1.8,7.7l-2.9,6.5a33.8,33.8,0,0,1-9,10.7,53,53,0,0,1-23.7,12.5,67.1,67.1,0,0,1-20.2,1.8,53,53,0,0,0-.6,7.7,32.3,32.3,0,0,0,.6,10.7,23.5,23.5,0,0,0,3,8.9c2.3,5.5,6.7,10.5,13,14.8,4,3.2,10.5,5.4,19.6,6.6,14.7,1.6,29.9-.2,45.8-5.4q41-14.8,78.4-53.4C1124,826.9,1126,826.9,1127.9,828.9ZM997.8,798q-21.3,8.8-30.9,28.5a6.8,6.8,0,0,0-1.7,3.5,68,68,0,0,0,14.2-2.3,41.9,41.9,0,0,0,18.4-11.3,33.2,33.2,0,0,0,6-8.3q.6-1.8,1.8-4.8a23.8,23.8,0,0,0,.5-4.1,3.4,3.4,0,0,0-1.7-3,9.8,9.8,0,0,0-2.4.6A9.7,9.7,0,0,0,997.8,798Z" transform="translate(-289 -323.7)" style="fill:url(#Degradado_sin_nombre_39-2)"/><path d="M1125.9,838.4q-3.3-2.4-.9-5.4a1067.6,1067.6,0,0,0,58.2-96.2q29.1-54.1,46.3-102.2a345.3,345.3,0,0,0,16.1-53.5c2.3-9.5,4.1-18.4,5.3-26.7.4-4.8.6-9.1.6-13.1a40.2,40.2,0,0,0-.6-12.5c-.4-1.9-.8-2.9-1.2-2.9l.6.6h.6a11.9,11.9,0,0,0-3,2.3,36.1,36.1,0,0,0-4.1,3.6c-4.8,5.2-10.1,12.3-16.1,21.4q-11.9,19.7-26.1,49.3t-23.2,51.1c-6.3,15.8-12.4,33.5-18.4,52.9q-19.1,60-22.6,108.1c-1.1,20.6,0,38.6,3.6,54.1a21.6,21.6,0,0,0,1.8,5.9,63.8,63.8,0,0,1,1.8,6.5,45.3,45.3,0,0,0,5.3,10.1,27.1,27.1,0,0,0,7.7,7.2,20.7,20.7,0,0,0,11.3,1.7c7.2-.3,15.1-3.5,23.8-9.5a108.6,108.6,0,0,0,20.8-18.4c12.3-12.2,23.5-26.9,33.9-43.9v-.6c1.5-2,3.4-2.3,5.6-.9s2.7,3.2,1.5,5.6h-.6q-20.9,29.7-35.1,44.6a136.5,136.5,0,0,1-21.4,19.6c-9.9,7.1-19,11.7-27.3,13.6a30.6,30.6,0,0,1-31.5-9.5,51.7,51.7,0,0,1-8.3-13.6c-.4-.8-1.4-3.4-3-7.7a66.2,66.2,0,0,1-1.7-7.2q-6.6-24.9-4.8-58.2,2.4-48.7,22.6-112.9a563.8,563.8,0,0,1,19.6-54c5.9-14.7,13.7-31.9,23.2-51.7s19.6-37.5,27.9-50.5a189.5,189.5,0,0,1,17.8-23.8,46.8,46.8,0,0,1,5.9-5.9,27,27,0,0,1,9.6-4.8,14.5,14.5,0,0,1,7.1.6,11.3,11.3,0,0,1,7.1,4.2,20.4,20.4,0,0,1,4.2,9.5c1.2,4.3,1.5,9.7,1.2,16a97.4,97.4,0,0,1-1.2,14.9q-1.8,13-5.4,28.5a477.8,477.8,0,0,1-17.8,54.6q-17.8,47.6-49.3,102.8a887.5,887.5,0,0,1-61.8,95.7C1129.9,839.8,1128,840,1125.9,838.4Z" transform="translate(-289 -323.7)" style="fill:url(#Degradado_sin_nombre_39-3)"/><path d="M1422.6,828.9c2,1.9,2,3.9,0,5.9-9.5,8.3-15.8,13.7-19,16a221.4,221.4,0,0,1-19.6,14.9,196.5,196.5,0,0,1-42.8,24.4q-27.3,11.3-49.9,10.6a72.4,72.4,0,0,1-13.1-1.1l-6.5-1.8a29.7,29.7,0,0,1-7.1-3.6,45.4,45.4,0,0,1-19-20.8,42.5,42.5,0,0,1-4.8-13.6c-.4-4.4-.6-9-.6-13.7a66.4,66.4,0,0,1,7.1-26.7,75,75,0,0,1,16.7-20.8,68.1,68.1,0,0,1,23.2-14.3c2.7-.8,5.1-1.4,7.1-1.8a27.1,27.1,0,0,1,10.1.6,20.1,20.1,0,0,1,7.7,7.1,19,19,0,0,1,2.4,9.6,19.9,19.9,0,0,1-1.8,7.7c-1.2,2.7-2.2,4.9-3,6.5a32.3,32.3,0,0,1-8.9,10.7,53,53,0,0,1-23.7,12.5,67.1,67.1,0,0,1-20.2,1.8,53,53,0,0,0-.6,7.7,32.3,32.3,0,0,0,.6,10.7,21.7,21.7,0,0,0,2.9,8.9c2.4,5.5,6.8,10.5,13.1,14.8,3.9,3.2,10.5,5.4,19.6,6.6,14.6,1.6,29.9-.2,45.7-5.4q41.1-14.8,78.5-53.4C1418.6,826.9,1420.6,826.9,1422.6,828.9ZM1292.5,798q-21.4,8.8-30.9,28.5a7.7,7.7,0,0,0-1.8,3.5,69,69,0,0,0,14.3-2.3,42.5,42.5,0,0,0,18.4-11.3,30.6,30.6,0,0,0,5.9-8.3q.6-1.8,1.8-4.8a17.6,17.6,0,0,0,.6-4.1,3.5,3.5,0,0,0-1.8-3,8.5,8.5,0,0,0-2.3.6A9.7,9.7,0,0,0,1292.5,798Z" transform="translate(-289 -323.7)" style="fill:url(#Degradado_sin_nombre_39-4)"/><path d="M1624.6,833h-.6c-5.5,8.3-10.1,14.5-13.7,18.4a102.9,102.9,0,0,1-17.2,16.1,69.9,69.9,0,0,1-20.8,10.7,66.6,66.6,0,0,1-23.7,2.9,47.4,47.4,0,0,1-23.8-7.1,55.8,55.8,0,0,1-17.8-17.2,181.2,181.2,0,0,1-11.3-20.8c-2.4-4.8-4-7.7-4.8-8.9a28.9,28.9,0,0,0-2.3-3l-.6-.6h-.6l.6-.6a1.7,1.7,0,0,0-1.2.6,32.9,32.9,0,0,0-4.2,1.8,48.2,48.2,0,0,0-8.9,5.3,145.4,145.4,0,0,0-17.2,13.7c-2.8,2.4-8.2,7.7-16.1,16S1427,875,1425,877a12.9,12.9,0,0,1-3,2.4,1.7,1.7,0,0,0-1.2.6h-1.2c-.4.4-.9.4-1.7,0a7,7,0,0,1-1.8-1.2,3.9,3.9,0,0,1-1.8-1.8v-1.2a18,18,0,0,1,.6-3l1.8-5.9,3.5-10.7c3.2-10.3,5.2-17.4,6-21.4,4.7-15.8,8.5-30.3,11.3-43.4l14.8,5.4a182.5,182.5,0,0,1-7.7,16.6,59.6,59.6,0,0,1-4.8,8.9l-5.3,7.7c-3.2,4.4-6.9,5.1-11.3,2.1s-4.9-6.6-1.8-11l4.8-7.7a34,34,0,0,0,4.1-7.1c1.6-3.2,4-8.5,7.2-16.1l.6-.5c1.9-4.8,5.3-6.2,10.1-4.2s6.3,5.3,4.7,10.1c-4.4,11.5-9.7,25.7-16,42.8l-7.8,21.4-4.1,10.6-1.8,4.8v-.6l-.6-.6a2,2,0,0,0-.9-1.8,2.9,2.9,0,0,0-1.5-.6h-2.3l1.1-1.2c2-1.5,7.2-6.7,15.5-15.4,1.6-1.6,3.3-3.4,5.3-5.3s3.9-4,5.7-6l5-5.3,6.9-7.5c3.7-4.1,6.6-7.4,8.6-9.8,3.5-3.5,6.5-6.3,8.9-8.3a55.3,55.3,0,0,1,5.9-3.5l4.2-1.2a14.7,14.7,0,0,1,5.9,0,15.3,15.3,0,0,1,8.9,4.7,22.8,22.8,0,0,1,4.2,6,54.5,54.5,0,0,1,5.9,10.7c5.2,13,8,19.8,8.4,20.2,3.5,7.1,7.7,12.4,12.4,16a36,36,0,0,0,18.5,7.1,55.2,55.2,0,0,0,39.8-10.7,120.9,120.9,0,0,0,16-15.4,170.6,170.6,0,0,0,12.5-17.8c1.2-2.4,2.9-2.9,5.3-1.5S1625.8,830.6,1624.6,833Z" transform="translate(-289 -323.7)" style="fill:url(#Degradado_sin_nombre_39-5)"/><path d="M1794.5,828.9c2,1.9,2,3.9,0,5.9-9.5,8.3-15.8,13.7-19,16a207.6,207.6,0,0,1-19.6,14.9,196.5,196.5,0,0,1-42.8,24.4q-27.3,11.3-49.9,10.6a73.2,73.2,0,0,1-13.1-1.1l-6.5-1.8a29.7,29.7,0,0,1-7.1-3.6,45.4,45.4,0,0,1-19-20.8,42.5,42.5,0,0,1-4.8-13.6c-.4-4.4-.6-9-.6-13.7a65,65,0,0,1,7.2-26.7,74.7,74.7,0,0,1,16.6-20.8,68.1,68.1,0,0,1,23.2-14.3c2.7-.8,5.1-1.4,7.1-1.8a27.1,27.1,0,0,1,10.1.6,19.4,19.4,0,0,1,7.7,7.1,19,19,0,0,1,2.4,9.6,19.9,19.9,0,0,1-1.8,7.7c-1.2,2.7-2.2,4.9-3,6.5a32.3,32.3,0,0,1-8.9,10.7,53,53,0,0,1-23.7,12.5,67.1,67.1,0,0,1-20.2,1.8,53,53,0,0,0-.6,7.7,32.3,32.3,0,0,0,.6,10.7,23.3,23.3,0,0,0,2.9,8.9c2.4,5.5,6.8,10.5,13.1,14.8,4,3.2,10.5,5.4,19.6,6.6,14.7,1.6,29.9-.2,45.8-5.4q41-14.8,78.4-53.4C1790.6,826.9,1792.5,826.9,1794.5,828.9ZM1664.4,798q-21.5,8.8-30.9,28.5a7.7,7.7,0,0,0-1.8,3.5,69,69,0,0,0,14.3-2.3,41.9,41.9,0,0,0,18.4-11.3,30.6,30.6,0,0,0,5.9-8.3q.6-1.8,1.8-4.8a17.6,17.6,0,0,0,.6-4.1,3.5,3.5,0,0,0-1.8-3,9.4,9.4,0,0,0-2.3.6A9.7,9.7,0,0,0,1664.4,798Z" transform="translate(-289 -323.7)" style="fill:url(#Degradado_sin_nombre_39-6)"/></svg>