<svg id="Capa_1" data-name="Capa 1" xmlns="http://www.w3.org/2000/svg" xmlns:xlink="http://www.w3.org/1999/xlink" viewBox="0 0 1626.8 580.3"><defs><linearGradient id="Degradado_sin_nombre_39" x1="848.18" y1="894" x2="1523.27" y2="881.62" gradientUnits="userSpaceOnUse"><stop offset="0" stop-color="#fff9de"/><stop offset="1" stop-color="#464ca3"/></linearGradient><linearGradient id="Degradado_sin_nombre_39-2" x1="849.62" y1="972.51" x2="1524.71" y2="960.12" xlink:href="#Degradado_sin_nombre_39"/><linearGradient id="Degradado_sin_nombre_39-3" x1="849.55" y1="968.98" x2="1524.65" y2="956.6" xlink:href="#Degradado_sin_nombre_39"/><linearGradient id="Degradado_sin_nombre_39-4" x1="849.66" y1="974.71" x2="1524.75" y2="962.32" xlink:href="#Degradado_sin_nombre_39"/><linearGradient id="Degradado_sin_nombre_39-5" x1="849.62" y1="972.62" x2="1524.71" y2="960.24" xlink:href="#Degradado_sin_nombre_39"/></defs><path d="M1361.1,633c2.2,1.4,2.5,3.4.8,5.8s-3.7,2.7-5.9,1c-9.7-6.8-21.8-10.3-36.3-10.6a90.1,90.1,0,0,0-38.3,7.6c-4.5,2.3-10.2,5.6-17,9.8a161.6,161.6,0,0,0-16.2,12,314.6,314.6,0,0,0-29.4,27.7q-48.6,51.6-92.5,133.8-72.9,136.4-110.4,305.9c-2.8,12.2-5.6,25.4-8.5,39.6l-.8,5.2a13.9,13.9,0,0,1-1.3,4.2c-.6.9-1.2,1.7-1.7,2.6a14.4,14.4,0,0,1-4.3,3.4,11.8,11.8,0,0,1-5.9,0,16.6,16.6,0,0,1-3.5-1.3,12.8,12.8,0,0,1-3.4-3,22.1,22.1,0,0,1-4.2-4.7,127.7,127.7,0,0,1-10.2-19.6c-10-21.6-18.9-47.7-26.9-78.4A654.8,654.8,0,0,1,929,992.6c-1.4-12.2-2.7-26-3.8-41.3-.9-13.6-1.6-27.4-2.2-41.3-.8-24.4-.9-51.9-.4-82.3s2.9-58.2,6-82.6c1.1-10,2.5-20,4.2-30.3a380,380,0,0,1-37.4,15.4,402.1,402.1,0,0,1-39.7,11c-12.5,2.9-26.1,5.3-40.9,7.3-12.5,1.7-26.4,2.8-41.7,3.4a506,506,0,0,1-82.7-4.3c-14.5-1.9-28.1-4.2-40.9-6.8s-26.6-6.1-40.5-9.8q-33.2-8.6-78.8-23.4c-50-15.9-76-24.2-78-24.7q-90.7-28.2-158.5-34.1a353.4,353.4,0,0,0-80.1,2.1c-28.1,4-53.6,11.9-76.3,23.9q-38,20-58.8,52.4a131.2,131.2,0,0,0-16.2,36.2,123.8,123.8,0,0,0-3,39.2A128.9,128.9,0,0,0,70,840.1a107.4,107.4,0,0,0,23.4,31.1,99.4,99.4,0,0,0,32.8,19.2c3.2,1.1,6.4,2.1,9.8,3l-2.5-2.6c-3.4-4-6.8-8.2-10.2-12.8a104.6,104.6,0,0,1-8.6-14.5c-1.4-3.4-.4-5.9,3-7.6s5.8-.5,7.3,2.9h.4a80.4,80.4,0,0,0,7.7,12,131.6,131.6,0,0,0,9.8,11.1,116.2,116.2,0,0,0,11,9.3c4.3,3.2,7.9,5,10.7,5.6a8.5,8.5,0,0,1,5.7,3,8.3,8.3,0,0,1-.2,11.9,8.1,8.1,0,0,1-5.9,2.5h-.9c-15.9-1.9-30-5.6-42.2-11a115.2,115.2,0,0,1-35.8-23.9,110.9,110.9,0,0,1-24.2-34.9,131.4,131.4,0,0,1-10.7-40.9q-3.9-42.6,20.9-81,21.3-33.6,61.8-55.8,34.1-18.3,78.8-26a376.4,376.4,0,0,1,83.1-3.9q68.5,4.8,161.5,31.6c11.3,3.1,37.6,11.1,78.8,23.8q49.1,15,78,22.6,42.2,10.7,79.2,16.2a630.4,630.4,0,0,0,80.6,6c14.7,0,28.1-.6,40-1.7a404.2,404.2,0,0,0,40.1-5.1,356.4,356.4,0,0,0,39.2-9.8,342.9,342.9,0,0,0,37.9-14.1l4.7-2.1a351.9,351.9,0,0,1,10.2-40.5c5.4-15.6,11.7-28.6,18.8-38.8,5.1-7.4,10.3-12.9,15.7-16.6a40.4,40.4,0,0,1,23-7.2,45.3,45.3,0,0,1,12,2.1,24.2,24.2,0,0,1,11,6.8,21.2,21.2,0,0,1,5.6,12.4,31.6,31.6,0,0,1-1.7,12.3c-2,6-5.9,12.4-11.5,19.2a188.6,188.6,0,0,1-14.9,14.9A278.4,278.4,0,0,1,952.4,705c-2.2,12.5-4.4,26.6-6.3,42.2q-9,76.3-5.6,162.4c.6,13.6,1.3,27.1,2.1,40.4s2.6,27.9,4.3,40.1a714.9,714.9,0,0,0,15.3,79.2c3.2,13.4,6.9,26.5,11.1,39.2A385.4,385.4,0,0,0,987,1146a102.7,102.7,0,0,0,6.4,13.2c2.5-11.6,5.5-23.8,8.9-36.6a1590.1,1590.1,0,0,1,49.9-156.8q15.3-40.9,31.1-75.8,17.4-38.8,36.2-73.8,19.9-36.6,42.6-70.3c17-25,34.1-46.6,51.1-64.7a314.9,314.9,0,0,1,30.3-28.2c12.8-10.2,24.4-17.9,34.9-23a99.6,99.6,0,0,1,41.3-8.9C1335.9,621.4,1349.7,625.3,1361.1,633ZM961,668.4a244.1,244.1,0,0,0-6,25.1,241.3,241.3,0,0,0,42.2-31.1c5.7-5.7,10.2-10.5,13.6-14.5a43.8,43.8,0,0,0,8.5-16.2,19.1,19.1,0,0,0,.9-8.1,8.7,8.7,0,0,0-3-5.9c-2.8-3.1-7.7-4.6-14.5-4.3a25.5,25.5,0,0,0-14.9,6c-4,3.1-7.8,7.6-11.5,13.6Q967.8,646.2,961,668.4Z" transform="translate(-49.9 -601.1)" style="fill:url(#Degradado_sin_nombre_39)"/><path d="M1297.6,956.8c1.4,1.5,1.4,2.9,0,4.3-6.8,6-11.4,9.8-13.6,11.5a171.5,171.5,0,0,1-14.1,10.7,137.5,137.5,0,0,1-30.7,17.4c-13.1,5.4-25,8-35.8,7.7a60.7,60.7,0,0,1-9.4-.8l-4.6-1.3a21.1,21.1,0,0,1-5.2-2.6,32.6,32.6,0,0,1-13.6-14.9,31.7,31.7,0,0,1-3.4-9.8c-.3-3.1-.4-6.4-.4-9.8a48.2,48.2,0,0,1,5.1-19.2,57,57,0,0,1,11.9-14.9,51.2,51.2,0,0,1,16.6-10.2l5.1-1.3a21,21,0,0,1,7.3.4,13.7,13.7,0,0,1,5.5,5.2,12.5,12.5,0,0,1,1.7,6.8,14.8,14.8,0,0,1-1.2,5.5c-.9,2-1.6,3.6-2.2,4.7a24.2,24.2,0,0,1-6.4,7.7,38,38,0,0,1-17,8.9,46.2,46.2,0,0,1-14.5,1.3,36.5,36.5,0,0,0-.4,5.5,22.2,22.2,0,0,0,.4,7.7,17.9,17.9,0,0,0,2.1,6.4c1.7,4,4.9,7.5,9.4,10.6,2.8,2.3,7.5,3.9,14.1,4.7,10.5,1.2,21.4-.1,32.8-3.8q29.4-10.7,56.2-38.4A2.7,2.7,0,0,1,1297.6,956.8Zm-93.3-22.1c-10.3,4.3-17.6,11.1-22.2,20.4a5.8,5.8,0,0,0-1.3,2.6,63.3,63.3,0,0,0,10.3-1.7,29.6,29.6,0,0,0,13.2-8.1,21.5,21.5,0,0,0,4.2-6l1.3-3.4a11.3,11.3,0,0,0,.4-3,2.6,2.6,0,0,0-1.2-2.1l-1.7.4A6.4,6.4,0,0,0,1204.3,934.7Z" transform="translate(-49.9 -601.1)" style="fill:url(#Degradado_sin_nombre_39-2)"/><path d="M1442.5,959.8h-.5a102,102,0,0,1-9.8,13.2,72.8,72.8,0,0,1-12.3,11.5,49.4,49.4,0,0,1-14.9,7.7,47,47,0,0,1-17.1,2.1,33.5,33.5,0,0,1-17-5.1,39.3,39.3,0,0,1-12.8-12.3A130.4,130.4,0,0,1,1350,962a64.6,64.6,0,0,0-3.4-6.4,24.6,24.6,0,0,0-1.7-2.2l-.4-.4h-.5l.5-.4a1.2,1.2,0,0,0-.9.4l-3,1.3a29.7,29.7,0,0,0-6.4,3.8,101.6,101.6,0,0,0-12.3,9.8c-2,1.7-5.9,5.6-11.5,11.5s-9.7,10.5-11.1,12a17.3,17.3,0,0,1-2.1,1.7,1.2,1.2,0,0,0-.9.4h-.8a1,1,0,0,1-1.3,0,4.8,4.8,0,0,1-1.3-.9,2.5,2.5,0,0,1-1.3-1.2v-.9c0-.3.2-1,.4-2.1l1.3-4.3c.9-2.5,1.7-5.1,2.6-7.7a139.7,139.7,0,0,0,4.2-15.3c3.4-11.3,6.1-21.7,8.1-31.1l10.7,3.8c-2.3,5.4-4.1,9.4-5.5,12a46,46,0,0,1-3.5,6.4l-3.8,5.5q-3.4,4.6-8.1,1.5c-3.1-2.1-3.5-4.8-1.3-7.9l3.4-5.5a19.6,19.6,0,0,0,3-5.1c1.2-2.3,2.9-6.1,5.1-11.5l.5-.5q2.1-5.1,7.2-3c3.4,1.5,4.5,3.9,3.4,7.3l-11.5,30.7-5.5,15.3-3,7.7-1.3,3.4v-.4l-.4-.5a1.2,1.2,0,0,0-.7-1.2,1.9,1.9,0,0,0-1-.5h-1.7l.8-.8q2.1-1.8,11.1-11.1l3.8-3.8,4.1-4.3,3.6-3.8,4.9-5.4c2.7-2.9,4.8-5.3,6.2-7s4.7-4.5,6.4-6l4.2-2.5,3-.9a15.5,15.5,0,0,1,4.3,0,11.5,11.5,0,0,1,6.4,3.4,20.4,20.4,0,0,1,3,4.3,48.5,48.5,0,0,1,4.2,7.7c3.7,9.3,5.7,14.2,6,14.5a31.7,31.7,0,0,0,8.9,11.5,26.6,26.6,0,0,0,13.2,5.1,39.6,39.6,0,0,0,28.6-7.7,79.6,79.6,0,0,0,11.5-11.1,101.9,101.9,0,0,0,8.9-12.8c.9-1.7,2.2-2,3.9-1S1443.3,958.1,1442.5,959.8Z" transform="translate(-49.9 -601.1)" style="fill:url(#Degradado_sin_nombre_39-3)"/><path d="M1581.4,956.2c1.4,1.3,1.4,2.6,0,4.1h-.5a123.5,123.5,0,0,1-24.7,17.4,101.3,101.3,0,0,1-28.5,10.3,74.1,74.1,0,0,1-15.4.8,30.4,30.4,0,0,1-8.1-1.7,20.5,20.5,0,0,1-7.6-4.3,17.6,17.6,0,0,1-5.1-7.2,25.6,25.6,0,0,1-1.7-7.7l-8.1,8.5a100.1,100.1,0,0,1-11.1,9.8,30.5,30.5,0,0,1-6.4,3.9,20.1,20.1,0,0,1-8.1,2.5,14.9,14.9,0,0,1-9-1.7,10.2,10.2,0,0,1-4.2-3.8,14.5,14.5,0,0,1-2.6-4.7,29.3,29.3,0,0,1-.4-8.5,33.7,33.7,0,0,1,.9-7.7l.8-3a11.9,11.9,0,0,1-2.6-1.2q-4.2-4.3,0-8.1v-.5a12.2,12.2,0,0,0,3-5.5,44,44,0,0,0,1.7-8.5,6.1,6.1,0,0,1,2.4-3.6,4.7,4.7,0,0,1,4-1.1,5.6,5.6,0,0,1,3,1.7h.4a12.1,12.1,0,0,1,3.4,6,20,20,0,0,1,.3,5.1c-.2,2-.5,4.7-1.1,8.1-.6,1.7-1.3,4.2-2.1,7.4s-1.5,5.2-1.7,5.8c-.6,2.5-1,4.7-1.3,6.4a8.9,8.9,0,0,0-.4,4.7,5.3,5.3,0,0,0,1.2,2.9,6.9,6.9,0,0,0,4.3,1.3c3.1.3,6.8-.8,11.1-3.4a51.7,51.7,0,0,0,10.2-8.1,63,63,0,0,0,13.2-21.3v-.8h.4a3.6,3.6,0,0,0,.5-1.3l.8-.9c2.3-3.1,4.8-3.4,7.7-.8a4.9,4.9,0,0,1,1.7,6.4,43.2,43.2,0,0,0-3.4,12.7c-.3,4.9.8,8.6,3.4,11.1s5.9,4.3,11.1,5.1a44.9,44.9,0,0,0,14-.4,78.7,78.7,0,0,0,27.3-8.9,105.3,105.3,0,0,0,23-17.5A3,3,0,0,1,1581.4,956.2Z" transform="translate(-49.9 -601.1)" style="fill:url(#Degradado_sin_nombre_39-4)"/><path d="M1675.3,957.7c1.6,1.1,1.8,2.6.7,4.3h-.5a115.2,115.2,0,0,1-15.3,15.7,82.1,82.1,0,0,1-18.3,12,69.7,69.7,0,0,1-21.3,5.9c-1.7.3-9,.9-21.8,1.7h-.8a28.8,28.8,0,0,1-1.3,11.1,42,42,0,0,1-3,6,38.1,38.1,0,0,1-4.2,5.1,21.2,21.2,0,0,1-6.4,3.8,11.7,11.7,0,0,1-9,0,7.9,7.9,0,0,1-4.2-3,21.7,21.7,0,0,1-2.2-4.6,17.8,17.8,0,0,1,.9-7.7,34,34,0,0,1,3.2-5.3,23,23,0,0,1,4.4-4.9,20.4,20.4,0,0,1,9.4-4.7,60.6,60.6,0,0,0-1.3-6.4c-.5-1.7-1.4-5-2.7-9.8l-3-11.3q-1-4.1-2.1-10.5a49,49,0,0,1-.7-11.9,50.5,50.5,0,0,1,1.3-11.9,68.1,68.1,0,0,1,3.8-11.1c3.4-8.2,8-14.8,13.7-19.6a36.5,36.5,0,0,1,11.1-6.4,4.6,4.6,0,0,0,2.1-.4h2.1a8.5,8.5,0,0,1,4.7,1.3,11.6,11.6,0,0,1,5.1,6.8,13,13,0,0,1,0,6.8,31.2,31.2,0,0,1-1.7,6,53.7,53.7,0,0,1-5.1,10.2,253.4,253.4,0,0,1-23.9,29,77.4,77.4,0,0,0,1.7,9.3,40.1,40.1,0,0,0,1.3,4.9c.6,1.9,1.1,3.6,1.5,5.2s.9,3.3,1.3,5.3a26,26,0,0,0,1.5,5.1c.5,3.1,1,5.8,1.3,8.1l1.2-.4c10.5,0,17.5-.3,20.9-.9a64.6,64.6,0,0,0,20-5.3,75.4,75.4,0,0,0,17.5-11.3,145.2,145.2,0,0,0,14.1-15.3C1672.4,956.8,1673.8,956.6,1675.3,957.7Zm-91.2,50.7a14.9,14.9,0,0,0,1.7-3.6,13.7,13.7,0,0,0,.7-4.9,10.9,10.9,0,0,0-5.1,3.4c-.9,1.1-1.7,2.3-2.6,3.6a13.2,13.2,0,0,0-1.7,3.9,5.4,5.4,0,0,0,0,3.1h.9a2.7,2.7,0,0,0,1.2-.4,11.7,11.7,0,0,0,2.6-2.1A23.7,23.7,0,0,0,1584.1,1008.4Zm5.4-74.1a30.3,30.3,0,0,0-1.3,9.3V947a120,120,0,0,0,20-25.1,37.9,37.9,0,0,0,4.3-8.9,42.6,42.6,0,0,0,.4-4.7,7,7,0,0,0-.9-3.9c-.2-.8-.7-1.2-1.2-1.2h-.9a2,2,0,0,1-.8.4,41.5,41.5,0,0,0-6.9,5.5,44.1,44.1,0,0,0-10.2,15.8A51.9,51.9,0,0,0,1589.5,934.3Z" transform="translate(-49.9 -601.1)" style="fill:url(#Degradado_sin_nombre_39-5)"/></svg>