<svg id="Capa_1" data-name="Capa 1" xmlns="http://www.w3.org/2000/svg" viewBox="0 0 248 28.2"><line x1="6.8" y1="12.8" x2="239.9" y2="12.8"/><path d="M27.8,135.4l29.1-.5,29.1-.3,58.3-.2,58.2.2,29.2.3,29.1.5-29.1.5-29.2.3-58.2.2L86,136.2l-29.1-.3Z" transform="translate(-20.9 -122.6)"/><path d="M32.2,125.8a16.2,16.2,0,0,1-11.3,9.7s6,.3,11.3,11.1c0,0,3-9.4,11.4-11.5C43.6,135.1,36.3,135.4,32.2,125.8Z" transform="translate(-20.9 -122.6)"/><path d="M138.4,122.6a21.8,21.8,0,0,1-15.3,13.2s8.1.4,15.3,15c0,0,4-12.7,15.5-15.5C153.9,135.3,144,135.6,138.4,122.6Z" transform="translate(-20.9 -122.6)"/><path d="M257.5,125.6a16.2,16.2,0,0,1-11.3,9.8s6,.3,11.3,11c0,0,3-9.3,11.4-11.4C268.9,135,261.6,135.2,257.5,125.6Z" transform="translate(-20.9 -122.6)"/></svg>